G75*
%MOIN*%
%OFA0B0*%
%FSLAX26Y26*%
%IPPOS*%
%LPD*%
%AMOC8*
5,1,8,0,0,1.08239X$1,22.5*
%
%ADD10C,0.133984*%
%ADD11R,0.059181X0.067055*%
%ADD12R,0.067055X0.059181*%
%ADD13R,0.126110X0.063118*%
%ADD14R,0.063118X0.126110*%
%ADD15R,0.063118X0.063118*%
%ADD16R,0.433197X0.417843*%
%ADD17R,0.050000X0.093000*%
%ADD18R,0.070992X0.059181*%
%ADD19R,0.145795X0.124142*%
%ADD20R,0.086740X0.074929*%
%ADD21R,0.035000X0.061000*%
%ADD22C,0.059496*%
%ADD23C,0.066000*%
%ADD24R,0.067055X0.025717*%
%ADD25R,0.071000X0.054000*%
%ADD26R,0.072000X0.006000*%
%ADD27R,0.054000X0.071000*%
%ADD28R,0.055244X0.055244*%
%ADD29R,0.220598X0.252094*%
%ADD30R,0.047370X0.070992*%
%ADD31R,0.074929X0.106425*%
%ADD32R,0.106425X0.074929*%
%ADD33R,0.049339X0.031622*%
%ADD34R,0.133984X0.078866*%
%ADD35R,0.070992X0.086740*%
%ADD36R,0.086740X0.070992*%
%ADD37R,0.031622X0.094614*%
%ADD38OC8,0.070000*%
%ADD39C,0.134000*%
%ADD40R,0.102488X0.102488*%
%ADD41C,0.006324*%
%ADD42R,0.252094X0.220598*%
%ADD43R,0.070992X0.047370*%
%ADD44R,0.094614X0.031622*%
%ADD45C,0.047622*%
%ADD46C,0.067055*%
D10*
X01080000Y00915000D03*
X03560000Y00145000D03*
X03900000Y02950000D03*
D11*
X03452402Y02935000D03*
X03377598Y02935000D03*
X03377598Y02860000D03*
X03452402Y02860000D03*
X03417598Y02560000D03*
X03492402Y02560000D03*
X02837402Y02175000D03*
X02762598Y02175000D03*
X02362402Y01700000D03*
X02287598Y01700000D03*
X02187402Y01700000D03*
X02112598Y01700000D03*
X01717402Y01700000D03*
X01642598Y01700000D03*
X01477402Y01705000D03*
X01402598Y01705000D03*
X01077402Y01700000D03*
X01002598Y01700000D03*
X00897402Y01700000D03*
X00822598Y01700000D03*
X00427402Y01700000D03*
X00352598Y01700000D03*
X00247402Y01700000D03*
X00172598Y01700000D03*
X01167598Y01160000D03*
X01242402Y01160000D03*
X01347598Y01160000D03*
X01422402Y01160000D03*
X01417598Y01285000D03*
X01492402Y01285000D03*
X01672598Y01160000D03*
X01747402Y01160000D03*
X01852598Y01160000D03*
X01927402Y01160000D03*
X01917598Y01285000D03*
X01992402Y01285000D03*
X02027598Y01065000D03*
X02102402Y01065000D03*
X02102402Y00985000D03*
X02027598Y00985000D03*
X02027598Y00905000D03*
X02102402Y00905000D03*
X01787402Y00970000D03*
X01712598Y00970000D03*
X01712402Y00890000D03*
X01637598Y00890000D03*
X01712598Y00810000D03*
X01787402Y00810000D03*
X01787402Y00640000D03*
X01712598Y00640000D03*
X01792598Y00395000D03*
X01867402Y00395000D03*
X01937598Y00395000D03*
X02012402Y00395000D03*
X01867402Y00295000D03*
X01792598Y00295000D03*
X01792598Y00115000D03*
X01867402Y00115000D03*
X02707598Y00670000D03*
X02782402Y00670000D03*
X02857598Y00670000D03*
X02932402Y00670000D03*
X02957598Y00235000D03*
X03032402Y00235000D03*
X03032402Y00145000D03*
X02957598Y00145000D03*
X03487598Y00775000D03*
X03562402Y00775000D03*
X03562402Y00965000D03*
X03487598Y00965000D03*
X03487598Y01060000D03*
X03562402Y01060000D03*
X03567402Y01250000D03*
X03492598Y01250000D03*
X03492598Y01425000D03*
X03567402Y01425000D03*
X03567402Y01500000D03*
X03492598Y01500000D03*
X03002402Y01640000D03*
X02927598Y01640000D03*
X02942402Y01285000D03*
X02867598Y01285000D03*
X02792402Y01285000D03*
X02717598Y01285000D03*
D12*
X02575000Y01292402D03*
X02575000Y01217598D03*
X02575000Y01142402D03*
X02650000Y01142402D03*
X02650000Y01067598D03*
X02575000Y01067598D03*
X02495000Y01067598D03*
X02495000Y01142402D03*
X02495000Y01217598D03*
X02495000Y01292402D03*
X02255000Y01482598D03*
X02255000Y01557402D03*
X02480000Y01547598D03*
X02480000Y01622402D03*
X02555000Y01622402D03*
X02555000Y01547598D03*
X02770000Y01527402D03*
X02770000Y01452598D03*
X02985000Y01212402D03*
X02985000Y01137598D03*
X02985000Y00822402D03*
X02985000Y00747598D03*
X02640000Y00827598D03*
X02565000Y00827598D03*
X02565000Y00902402D03*
X02640000Y00902402D03*
X02490000Y00902402D03*
X02490000Y00827598D03*
X02490000Y00742402D03*
X02490000Y00667598D03*
X02565000Y00667598D03*
X02565000Y00742402D03*
X02345000Y00462402D03*
X02345000Y00387598D03*
X02345000Y00312402D03*
X02345000Y00237598D03*
X02345000Y00157402D03*
X02345000Y00082598D03*
X01980000Y00207598D03*
X01980000Y00282402D03*
X01515000Y00492598D03*
X01515000Y00567402D03*
X01515000Y00672598D03*
X01515000Y00747402D03*
X00980000Y01462598D03*
X00980000Y01537402D03*
X01015000Y02102598D03*
X01015000Y02177402D03*
X01130000Y02177402D03*
X01130000Y02102598D03*
X01215000Y02102598D03*
X01215000Y02177402D03*
X01450000Y02177402D03*
X01450000Y02102598D03*
X01535000Y02102598D03*
X01535000Y02177402D03*
X01655000Y02177402D03*
X01655000Y02102598D03*
X01780000Y02102598D03*
X01780000Y02177402D03*
X01865000Y02177402D03*
X01865000Y02102598D03*
X02105000Y02102598D03*
X02185000Y02102598D03*
X02185000Y02177402D03*
X02105000Y02177402D03*
X02300000Y02177402D03*
X02300000Y02102598D03*
X02425000Y02107598D03*
X02425000Y02182402D03*
X02505000Y02182402D03*
X02505000Y02107598D03*
X03040000Y02522598D03*
X03040000Y02597402D03*
X03400000Y02272402D03*
X03400000Y02197598D03*
X03570000Y02197598D03*
X03570000Y02272402D03*
X03655000Y02272402D03*
X03655000Y02197598D03*
X03740000Y02197598D03*
X03740000Y02272402D03*
X03670000Y02632598D03*
X03670000Y02707402D03*
X03670000Y02777598D03*
X03670000Y02852402D03*
X03620000Y01692402D03*
X03620000Y01617598D03*
X03505000Y01617598D03*
X03505000Y01692402D03*
X02860000Y00387402D03*
X02860000Y00312598D03*
X02780000Y00312598D03*
X02780000Y00387402D03*
X02780000Y00212402D03*
X02780000Y00137598D03*
X00900000Y02102598D03*
X00900000Y02177402D03*
X00810000Y02177402D03*
X00810000Y02102598D03*
X00570000Y02107598D03*
X00570000Y02182402D03*
X00490000Y02182402D03*
X00490000Y02107598D03*
X00375000Y02102598D03*
X00375000Y02177402D03*
X00250000Y02177402D03*
X00250000Y02102598D03*
X00165000Y02102598D03*
X00165000Y02177402D03*
X00205000Y01377402D03*
X00205000Y01302598D03*
X00205000Y01202402D03*
X00205000Y01127598D03*
D13*
X00740512Y01290000D03*
X00929488Y01290000D03*
D14*
X00285000Y00105512D03*
X00285000Y00294488D03*
X01330000Y00309488D03*
X01330000Y00475512D03*
X01330000Y00664488D03*
X01330000Y00120512D03*
D15*
X01745197Y00205000D03*
X01894803Y00205000D03*
X01955197Y00115000D03*
X02104803Y00115000D03*
X01870000Y00735197D03*
X01784803Y00725000D03*
X01635197Y00725000D03*
X01870000Y00884803D03*
X02330000Y01405197D03*
X02410000Y01405197D03*
X02410000Y01554803D03*
X02330000Y01554803D03*
X03420197Y01340000D03*
X03569803Y01340000D03*
X03660000Y01344803D03*
X03660000Y01195197D03*
X03624803Y00870000D03*
X03475197Y00870000D03*
X03475197Y00685000D03*
X03624803Y00685000D03*
X03569803Y00305000D03*
X03420197Y00305000D03*
X03710000Y01625197D03*
X03710000Y01774803D03*
X03639803Y02040000D03*
X03490197Y02040000D03*
X03485000Y02200197D03*
X03485000Y02349803D03*
D16*
X00670000Y00590000D03*
D17*
X00670000Y00262000D03*
X00603000Y00262000D03*
X00536000Y00262000D03*
X00737000Y00262000D03*
X00804000Y00262000D03*
D18*
X00380000Y00660000D03*
X00380000Y00780000D03*
D19*
X01045000Y00732283D03*
X01045000Y00517717D03*
X01045000Y00342283D03*
X01045000Y00127717D03*
D20*
X00583110Y01250000D03*
X00346890Y01250000D03*
D21*
X02485000Y00468500D03*
X02535000Y00468500D03*
X02585000Y00468500D03*
X02635000Y00468500D03*
X02635000Y00081500D03*
X02585000Y00081500D03*
X02535000Y00081500D03*
X02485000Y00081500D03*
D22*
X00895000Y00974252D02*
X00895000Y01025748D01*
X00795000Y01025748D02*
X00795000Y00974252D01*
X00695000Y00974252D02*
X00695000Y01025748D01*
X00595000Y01025748D02*
X00595000Y00974252D01*
X00495000Y00974252D02*
X00495000Y01025748D01*
X00395000Y01025748D02*
X00395000Y00974252D01*
X00295000Y00974252D02*
X00295000Y01025748D01*
X00195000Y01025748D02*
X00195000Y00974252D01*
X00195000Y01474252D02*
X00195000Y01525748D01*
X00295000Y01525748D02*
X00295000Y01474252D01*
X00395000Y01474252D02*
X00395000Y01525748D01*
X00495000Y01525748D02*
X00495000Y01474252D01*
X00595000Y01474252D02*
X00595000Y01525748D01*
X00695000Y01525748D02*
X00695000Y01474252D01*
X00795000Y01474252D02*
X00795000Y01525748D01*
X00895000Y01525748D02*
X00895000Y01474252D01*
D23*
X03250000Y01500000D03*
X03250000Y01400000D03*
X03250000Y01300000D03*
X03250000Y01200000D03*
X03250000Y01100000D03*
X03250000Y01000000D03*
X03250000Y00900000D03*
X03250000Y00800000D03*
X03250000Y00700000D03*
X03250000Y00600000D03*
X03350000Y00600000D03*
X03350000Y00500000D03*
X03250000Y00500000D03*
X03250000Y00400000D03*
X03250000Y00300000D03*
X03350000Y00400000D03*
X03350000Y00200000D03*
X03250000Y00200000D03*
X03250000Y00100000D03*
X03725000Y00350000D03*
X03725000Y00450000D03*
X03725000Y00550000D03*
X03725000Y00650000D03*
X03725000Y00750000D03*
X03850000Y00700000D03*
X03850000Y00600000D03*
X03850000Y00500000D03*
X03850000Y00400000D03*
X03850000Y00300000D03*
X03850000Y00200000D03*
X03850000Y00100000D03*
X03850000Y00800000D03*
X03850000Y00900000D03*
X03850000Y01000000D03*
X03850000Y01100000D03*
X03850000Y01200000D03*
X03850000Y01300000D03*
X03850000Y01400000D03*
X03850000Y01500000D03*
X03850000Y01600000D03*
X03850000Y01700000D03*
X03850000Y01800000D03*
X03850000Y01900000D03*
X03750000Y01900000D03*
X03650000Y01900000D03*
X03550000Y01900000D03*
X03450000Y01900000D03*
X03350000Y01900000D03*
X03250000Y01900000D03*
X03250000Y01800000D03*
X03250000Y01700000D03*
X03250000Y01600000D03*
X03250000Y02000000D03*
X03250000Y02100000D03*
X03250000Y02200000D03*
X03250000Y02300000D03*
X03250000Y02400000D03*
X03850000Y02400000D03*
X03850000Y02300000D03*
X03850000Y02200000D03*
X03850000Y02100000D03*
X03850000Y02000000D03*
D24*
X02940906Y01072500D03*
X02940906Y01047500D03*
X02940906Y01022500D03*
X02940906Y00997500D03*
X02940906Y00972500D03*
X02940906Y00947500D03*
X02940906Y00922500D03*
X02940906Y00897500D03*
X02729094Y00897500D03*
X02729094Y00922500D03*
X02729094Y00947500D03*
X02729094Y00972500D03*
X02729094Y00997500D03*
X02729094Y01022500D03*
X02729094Y01047500D03*
X02729094Y01072500D03*
D25*
X02400000Y01225000D03*
X02400000Y01285000D03*
X02160000Y01290000D03*
X02160000Y01230000D03*
X02160000Y00730000D03*
X02160000Y00670000D03*
X02400000Y00675000D03*
X02400000Y00735000D03*
D26*
X02400000Y00705000D03*
X02160000Y00700000D03*
X02160000Y01260000D03*
X02400000Y01255000D03*
D27*
X02770000Y01155000D03*
X02830000Y01155000D03*
X02890000Y01155000D03*
X02890000Y00810000D03*
X02830000Y00810000D03*
X02770000Y00810000D03*
D28*
X03110000Y00828661D03*
X03110000Y00911339D03*
X03110000Y01053661D03*
X03110000Y01136339D03*
X01515000Y00406339D03*
X01515000Y00323661D03*
D29*
X01540000Y02548425D03*
X01220000Y02548425D03*
X00900000Y02548425D03*
X00580000Y02548425D03*
X00255000Y02543425D03*
X01870000Y02548425D03*
X02195000Y02548425D03*
X02515000Y02553425D03*
X02850000Y02553425D03*
D30*
X02760236Y02266024D03*
X02604764Y02266024D03*
X02425236Y02266024D03*
X02284764Y02261024D03*
X02105236Y02261024D03*
X01959764Y02261024D03*
X01780236Y02261024D03*
X01629764Y02261024D03*
X01450236Y02261024D03*
X01309764Y02261024D03*
X01130236Y02261024D03*
X00989764Y02261024D03*
X00810236Y02261024D03*
X00669764Y02261024D03*
X00490236Y02261024D03*
X00344764Y02256024D03*
X00165236Y02256024D03*
X02939764Y02266024D03*
D31*
X00380000Y00553740D03*
X00380000Y00396260D03*
D32*
X00466260Y00095000D03*
X00623740Y00095000D03*
D33*
X02936850Y00312598D03*
X02936850Y00387402D03*
X03043150Y00387402D03*
X03043150Y00350000D03*
X03043150Y00312598D03*
D34*
X02280000Y00674764D03*
X02280000Y00895236D03*
X02280000Y01069764D03*
X02280000Y01290236D03*
D35*
X01525118Y01430000D03*
X01414882Y01430000D03*
D36*
X01615000Y01435118D03*
X01615000Y01324882D03*
X01940000Y01434882D03*
X01940000Y01545118D03*
X01110000Y01485118D03*
X01110000Y01374882D03*
D37*
X01195000Y01472362D03*
X01245000Y01472362D03*
X01295000Y01472362D03*
X01345000Y01472362D03*
X01345000Y01267638D03*
X01295000Y01267638D03*
X01245000Y01267638D03*
X01195000Y01267638D03*
X01700000Y01267638D03*
X01750000Y01267638D03*
X01800000Y01267638D03*
X01850000Y01267638D03*
X01850000Y01472362D03*
X01800000Y01472362D03*
X01750000Y01472362D03*
X01700000Y01472362D03*
X01635000Y01797638D03*
X01585000Y01797638D03*
X01535000Y01797638D03*
X01485000Y01797638D03*
X01485000Y02002362D03*
X01535000Y02002362D03*
X01585000Y02002362D03*
X01635000Y02002362D03*
X02135000Y02002362D03*
X02185000Y02002362D03*
X02235000Y02002362D03*
X02285000Y02002362D03*
X02285000Y01797638D03*
X02235000Y01797638D03*
X02185000Y01797638D03*
X02135000Y01797638D03*
X01000000Y01797638D03*
X00950000Y01797638D03*
X00900000Y01797638D03*
X00850000Y01797638D03*
X00850000Y02002362D03*
X00900000Y02002362D03*
X00950000Y02002362D03*
X01000000Y02002362D03*
X00350000Y02002362D03*
X00300000Y02002362D03*
X00250000Y02002362D03*
X00200000Y02002362D03*
X00200000Y01797638D03*
X00250000Y01797638D03*
X00300000Y01797638D03*
X00350000Y01797638D03*
D38*
X00460000Y02900000D03*
X00515000Y03000000D03*
X00625000Y03000000D03*
X00570000Y02900000D03*
X00680000Y02900000D03*
X00790000Y02900000D03*
X00735000Y03000000D03*
X00845000Y03000000D03*
X00900000Y02900000D03*
X01010000Y02900000D03*
X00955000Y03000000D03*
X01065000Y03000000D03*
X01175000Y03000000D03*
X01120000Y02900000D03*
X01230000Y02900000D03*
X01340000Y02900000D03*
X01285000Y03000000D03*
X01395000Y03000000D03*
X01505000Y03000000D03*
X01450000Y02900000D03*
X01560000Y02900000D03*
X01670000Y02900000D03*
X01615000Y03000000D03*
X01725000Y03000000D03*
X01780000Y02900000D03*
X01890000Y02900000D03*
X01835000Y03000000D03*
X01945000Y03000000D03*
X02055000Y03000000D03*
X02000000Y02900000D03*
X02110000Y02900000D03*
X02220000Y02900000D03*
X02165000Y03000000D03*
X02275000Y03000000D03*
X02385000Y03000000D03*
X02330000Y02900000D03*
X02440000Y02900000D03*
D39*
X02710000Y02950000D03*
X00190000Y02950000D03*
D40*
X00220000Y00591614D03*
X00220000Y00418386D03*
D41*
X02827942Y01427649D02*
X02907176Y01427649D01*
X02907176Y01402351D01*
X02827942Y01402351D01*
X02827942Y01427649D01*
X02827942Y01408674D02*
X02907176Y01408674D01*
X02907176Y01414997D02*
X02827942Y01414997D01*
X02827942Y01421320D02*
X02907176Y01421320D01*
X02907176Y01427643D02*
X02827942Y01427643D01*
X02827942Y01477649D02*
X02907176Y01477649D01*
X02907176Y01452351D01*
X02827942Y01452351D01*
X02827942Y01477649D01*
X02827942Y01458674D02*
X02907176Y01458674D01*
X02907176Y01464997D02*
X02827942Y01464997D01*
X02827942Y01471320D02*
X02907176Y01471320D01*
X02907176Y01477643D02*
X02827942Y01477643D01*
X02827942Y01527649D02*
X02907176Y01527649D01*
X02907176Y01502351D01*
X02827942Y01502351D01*
X02827942Y01527649D01*
X02827942Y01508674D02*
X02907176Y01508674D01*
X02907176Y01514997D02*
X02827942Y01514997D01*
X02827942Y01521320D02*
X02907176Y01521320D01*
X02907176Y01527643D02*
X02827942Y01527643D01*
X02827942Y01577649D02*
X02907176Y01577649D01*
X02907176Y01552351D01*
X02827942Y01552351D01*
X02827942Y01577649D01*
X02827942Y01558674D02*
X02907176Y01558674D01*
X02907176Y01564997D02*
X02827942Y01564997D01*
X02827942Y01571320D02*
X02907176Y01571320D01*
X02907176Y01577643D02*
X02827942Y01577643D01*
X03022824Y01577649D02*
X03102058Y01577649D01*
X03102058Y01552351D01*
X03022824Y01552351D01*
X03022824Y01577649D01*
X03022824Y01558674D02*
X03102058Y01558674D01*
X03102058Y01564997D02*
X03022824Y01564997D01*
X03022824Y01571320D02*
X03102058Y01571320D01*
X03102058Y01577643D02*
X03022824Y01577643D01*
X03022824Y01527649D02*
X03102058Y01527649D01*
X03102058Y01502351D01*
X03022824Y01502351D01*
X03022824Y01527649D01*
X03022824Y01508674D02*
X03102058Y01508674D01*
X03102058Y01514997D02*
X03022824Y01514997D01*
X03022824Y01521320D02*
X03102058Y01521320D01*
X03102058Y01527643D02*
X03022824Y01527643D01*
X03022824Y01477649D02*
X03102058Y01477649D01*
X03102058Y01452351D01*
X03022824Y01452351D01*
X03022824Y01477649D01*
X03022824Y01458674D02*
X03102058Y01458674D01*
X03102058Y01464997D02*
X03022824Y01464997D01*
X03022824Y01471320D02*
X03102058Y01471320D01*
X03102058Y01477643D02*
X03022824Y01477643D01*
X03022824Y01427649D02*
X03102058Y01427649D01*
X03102058Y01402351D01*
X03022824Y01402351D01*
X03022824Y01427649D01*
X03022824Y01408674D02*
X03102058Y01408674D01*
X03102058Y01414997D02*
X03022824Y01414997D01*
X03022824Y01421320D02*
X03102058Y01421320D01*
X03102058Y01427643D02*
X03022824Y01427643D01*
D42*
X03001575Y02950000D03*
D43*
X03288976Y02860236D03*
X03288976Y03039764D03*
D44*
X03352638Y02785000D03*
X03352638Y02735000D03*
X03352638Y02685000D03*
X03352638Y02635000D03*
X03557362Y02635000D03*
X03557362Y02685000D03*
X03557362Y02735000D03*
X03557362Y02785000D03*
D45*
X02625000Y00165000D03*
D46*
X00160000Y00780000D03*
M02*
