G75*
%MOIN*%
%OFA0B0*%
%FSLAX26Y26*%
%IPPOS*%
%LPD*%
%AMOC8*
5,1,8,0,0,1.08239X$1,22.5*
%
%ADD10R,0.425000X0.410000*%
%ADD11C,0.051496*%
%ADD12C,0.058000*%
%ADD13OC8,0.062000*%
%ADD14C,0.035685*%
%ADD15C,0.040000*%
%ADD16C,0.012000*%
%ADD17C,0.016000*%
%ADD18C,0.024000*%
%ADD19C,0.039622*%
%ADD20C,0.086000*%
%ADD21C,0.059055*%
%ADD22C,0.076000*%
D10*
X00667500Y00590000D03*
D11*
X00695000Y00974252D02*
X00695000Y01025748D01*
X00595000Y01025748D02*
X00595000Y00974252D01*
X00495000Y00974252D02*
X00495000Y01025748D01*
X00395000Y01025748D02*
X00395000Y00974252D01*
X00295000Y00974252D02*
X00295000Y01025748D01*
X00195000Y01025748D02*
X00195000Y00974252D01*
X00195000Y01474252D02*
X00195000Y01525748D01*
X00295000Y01525748D02*
X00295000Y01474252D01*
X00395000Y01474252D02*
X00395000Y01525748D01*
X00495000Y01525748D02*
X00495000Y01474252D01*
X00595000Y01474252D02*
X00595000Y01525748D01*
X00695000Y01525748D02*
X00695000Y01474252D01*
X00795000Y01474252D02*
X00795000Y01525748D01*
X00895000Y01525748D02*
X00895000Y01474252D01*
X00895000Y01025748D02*
X00895000Y00974252D01*
X00795000Y00974252D02*
X00795000Y01025748D01*
D12*
X03250000Y01000000D03*
X03250000Y01100000D03*
X03250000Y01200000D03*
X03250000Y01300000D03*
X03250000Y01400000D03*
X03250000Y01500000D03*
X03250000Y01600000D03*
X03250000Y01700000D03*
X03250000Y01800000D03*
X03250000Y01900000D03*
X03350000Y01900000D03*
X03450000Y01900000D03*
X03550000Y01900000D03*
X03650000Y01900000D03*
X03750000Y01900000D03*
X03850000Y01900000D03*
X03850000Y01800000D03*
X03850000Y01700000D03*
X03850000Y01600000D03*
X03850000Y01500000D03*
X03850000Y01400000D03*
X03850000Y01300000D03*
X03850000Y01200000D03*
X03850000Y01100000D03*
X03850000Y01000000D03*
X03850000Y00900000D03*
X03850000Y00800000D03*
X03850000Y00700000D03*
X03850000Y00600000D03*
X03850000Y00500000D03*
X03850000Y00400000D03*
X03850000Y00300000D03*
X03850000Y00200000D03*
X03850000Y00100000D03*
X03725000Y00350000D03*
X03725000Y00450000D03*
X03725000Y00550000D03*
X03725000Y00650000D03*
X03725000Y00750000D03*
X03350000Y00600000D03*
X03250000Y00600000D03*
X03250000Y00700000D03*
X03250000Y00800000D03*
X03250000Y00900000D03*
X03250000Y00500000D03*
X03350000Y00500000D03*
X03350000Y00400000D03*
X03250000Y00400000D03*
X03250000Y00300000D03*
X03250000Y00200000D03*
X03350000Y00200000D03*
X03250000Y00100000D03*
X03250000Y02000000D03*
X03250000Y02100000D03*
X03250000Y02200000D03*
X03250000Y02300000D03*
X03250000Y02400000D03*
X03850000Y02400000D03*
X03850000Y02300000D03*
X03850000Y02200000D03*
X03850000Y02100000D03*
X03850000Y02000000D03*
D13*
X02440000Y02900000D03*
X02385000Y03000000D03*
X02275000Y03000000D03*
X02220000Y02900000D03*
X02110000Y02900000D03*
X02055000Y03000000D03*
X01945000Y03000000D03*
X01890000Y02900000D03*
X01780000Y02900000D03*
X01725000Y03000000D03*
X01615000Y03000000D03*
X01560000Y02900000D03*
X01670000Y02900000D03*
X01505000Y03000000D03*
X01395000Y03000000D03*
X01340000Y02900000D03*
X01230000Y02900000D03*
X01175000Y03000000D03*
X01065000Y03000000D03*
X01010000Y02900000D03*
X00900000Y02900000D03*
X00845000Y03000000D03*
X00735000Y03000000D03*
X00680000Y02900000D03*
X00790000Y02900000D03*
X00625000Y03000000D03*
X00515000Y03000000D03*
X00460000Y02900000D03*
X00570000Y02900000D03*
X00955000Y03000000D03*
X01120000Y02900000D03*
X01285000Y03000000D03*
X01450000Y02900000D03*
X01835000Y03000000D03*
X02000000Y02900000D03*
X02165000Y03000000D03*
X02330000Y02900000D03*
D14*
X02360000Y02195000D03*
X02570000Y02120000D03*
X02625000Y02120000D03*
X02675000Y02140000D03*
X02705000Y02095000D03*
X02745000Y02045000D03*
X02995000Y02045000D03*
X02995000Y02105000D03*
X03160000Y02090000D03*
X03160000Y01995000D03*
X03145000Y01840000D03*
X03160000Y01785000D03*
X03125000Y01710000D03*
X03140000Y01665000D03*
X03075000Y01725000D03*
X03050000Y01770000D03*
X03025000Y01815000D03*
X02975000Y01825000D03*
X02950000Y01770000D03*
X02905000Y01825000D03*
X03125000Y01490000D03*
X03015000Y01285000D03*
X02830000Y01235000D03*
X02845000Y00950000D03*
X02820000Y00720000D03*
X02990000Y00670000D03*
X03105000Y00745000D03*
X03435000Y00955000D03*
X03345000Y01090000D03*
X03430000Y01140000D03*
X03600000Y01010000D03*
X03680000Y01025000D03*
X03685000Y01135000D03*
X03615000Y01344803D03*
X03390000Y01475000D03*
X03375000Y01595000D03*
X03405000Y01675000D03*
X03340000Y01700000D03*
X03345000Y01780000D03*
X03425000Y02075000D03*
X03435000Y02140000D03*
X03620000Y02345000D03*
X03680000Y02125000D03*
X03360000Y02560000D03*
X03255000Y02745000D03*
X03530000Y02910000D03*
X03770000Y02830000D03*
X03700000Y02580000D03*
X02480000Y01495000D03*
X02490000Y01400000D03*
X02250000Y01200000D03*
X02150000Y00985000D03*
X02070000Y00790000D03*
X02250000Y00750000D03*
X01935000Y00575000D03*
X01870000Y00660000D03*
X01575000Y00790000D03*
X01570000Y01010000D03*
X01660000Y01035000D03*
X01895000Y01220000D03*
X02000000Y01370000D03*
X02040000Y01420000D03*
X02050000Y01475000D03*
X02050000Y01530000D03*
X02015000Y01575000D03*
X02005000Y01795000D03*
X02065000Y01795000D03*
X02045000Y01925000D03*
X01990000Y01940000D03*
X01925000Y01925000D03*
X01685000Y01760000D03*
X01755000Y01575000D03*
X01610000Y01510000D03*
X01525000Y01370000D03*
X01390000Y01350000D03*
X01385000Y01215000D03*
X01280000Y01105000D03*
X01175000Y01075000D03*
X01095000Y01175000D03*
X01210000Y00965000D03*
X00825000Y00750000D03*
X00825000Y00650000D03*
X00725000Y00650000D03*
X00725000Y00550000D03*
X00725000Y00450000D03*
X00825000Y00450000D03*
X00825000Y00550000D03*
X00625000Y00550000D03*
X00625000Y00450000D03*
X00525000Y00450000D03*
X00520000Y00550000D03*
X00520000Y00650000D03*
X00625000Y00650000D03*
X00620000Y00750000D03*
X00520000Y00750000D03*
X00720000Y00750000D03*
X00865000Y00275000D03*
X00865000Y00195000D03*
X00805000Y00195000D03*
X00670000Y00195000D03*
X00480000Y00185000D03*
X01505000Y00090000D03*
X02195000Y00115000D03*
X02440000Y00315000D03*
X02740000Y00065000D03*
X02875000Y00185000D03*
X02860000Y00260000D03*
X03625000Y00625000D03*
X01435000Y01825000D03*
X01260000Y01960000D03*
X01260000Y02005000D03*
X01065000Y01980000D03*
X01105000Y01605000D03*
D15*
X01240000Y01575000D03*
X01280000Y01355000D03*
X01015000Y01210000D03*
X00960000Y01210000D03*
X00905000Y01210000D03*
X00850000Y01210000D03*
X00790000Y01210000D03*
X00675000Y00870000D03*
X00615000Y00870000D03*
X00555000Y00870000D03*
X00500000Y00870000D03*
X00285000Y00680000D03*
X00220000Y00680000D03*
X00155000Y00680000D03*
X00085000Y00335000D03*
X00085000Y00285000D03*
X00085000Y00235000D03*
X00085000Y00185000D03*
X00085000Y00135000D03*
X00085000Y00085000D03*
X00365000Y00085000D03*
X00365000Y00135000D03*
X00365000Y00185000D03*
X01180000Y00435000D03*
X01180000Y00480000D03*
X01180000Y00525000D03*
X01180000Y00570000D03*
X01180000Y00615000D03*
X01420000Y00505000D03*
X01420000Y00460000D03*
X01650000Y00395000D03*
X01650000Y00335000D03*
X01650000Y00275000D03*
X01650000Y00550000D03*
X01410000Y00875000D03*
X01345000Y00875000D03*
X01285000Y00875000D03*
X01225000Y00875000D03*
X01345000Y01050000D03*
X01395000Y01050000D03*
X01445000Y01050000D03*
X01575000Y01100000D03*
X01625000Y01100000D03*
X01735000Y01090000D03*
X01895000Y01045000D03*
X01895000Y00995000D03*
X01785000Y01360000D03*
X02110000Y01615000D03*
X02175000Y01580000D03*
X01920000Y01710000D03*
X01870000Y01755000D03*
X01860000Y01990000D03*
X01845000Y02260000D03*
X01895000Y02260000D03*
X02035000Y02365000D03*
X02035000Y02420000D03*
X02035000Y02475000D03*
X02035000Y02530000D03*
X02035000Y02585000D03*
X02355000Y02590000D03*
X02355000Y02535000D03*
X02355000Y02480000D03*
X02355000Y02425000D03*
X02355000Y02370000D03*
X02680000Y02375000D03*
X02680000Y02430000D03*
X02680000Y02485000D03*
X02680000Y02540000D03*
X02680000Y02595000D03*
X02805000Y02775000D03*
X02865000Y02775000D03*
X02930000Y02775000D03*
X02995000Y02775000D03*
X03160000Y02585000D03*
X03160000Y02535000D03*
X03075000Y02350000D03*
X03025000Y02300000D03*
X02930000Y02155000D03*
X02890000Y02100000D03*
X02845000Y02050000D03*
X02710000Y01755000D03*
X02645000Y01755000D03*
X02585000Y01755000D03*
X02525000Y01755000D03*
X02370000Y01990000D03*
X01705000Y02265000D03*
X01705000Y02370000D03*
X01705000Y02425000D03*
X01705000Y02480000D03*
X01705000Y02535000D03*
X01705000Y02590000D03*
X01385000Y02585000D03*
X01385000Y02530000D03*
X01385000Y02480000D03*
X01385000Y02430000D03*
X01385000Y02375000D03*
X01515000Y02265000D03*
X01565000Y02265000D03*
X01060000Y02370000D03*
X01060000Y02425000D03*
X01060000Y02480000D03*
X01060000Y02535000D03*
X01060000Y02585000D03*
X00740000Y02590000D03*
X00740000Y02535000D03*
X00740000Y02485000D03*
X00740000Y02430000D03*
X00740000Y02375000D03*
X00605000Y02265000D03*
X00875000Y02265000D03*
X00930000Y02265000D03*
X00740000Y02015000D03*
X00685000Y02015000D03*
X00630000Y02015000D03*
X00625000Y01795000D03*
X00685000Y01795000D03*
X00740000Y01795000D03*
X00280000Y02260000D03*
X00225000Y02260000D03*
X01535000Y01740000D03*
X02380000Y01035000D03*
X02430000Y01035000D03*
X02435000Y01115000D03*
X02430000Y00930000D03*
X02380000Y00930000D03*
X02430000Y00820000D03*
X02165000Y00555000D03*
X02130000Y00500000D03*
X02095000Y00555000D03*
X02235000Y00415000D03*
X02245000Y00350000D03*
X02255000Y00200000D03*
X02100000Y00290000D03*
X02500000Y00380000D03*
X02630000Y00385000D03*
X02620000Y00310000D03*
X02555000Y00235000D03*
X02640000Y00225000D03*
X03055000Y00485000D03*
X03105000Y00490000D03*
X03105000Y00545000D03*
X03105000Y00435000D03*
X03110000Y00385000D03*
X03135000Y00245000D03*
X03135000Y00195000D03*
X03430000Y00470000D03*
X03475000Y00510000D03*
X03430000Y00550000D03*
X03575000Y00415000D03*
X03625000Y00395000D03*
X03625000Y00450000D03*
X03755000Y00250000D03*
X03755000Y00190000D03*
X03400000Y00765000D03*
X03400000Y00910000D03*
X03500000Y01130000D03*
X03575000Y01130000D03*
X03435000Y01250000D03*
X03425000Y01425000D03*
X03505000Y01560000D03*
X03560000Y01655000D03*
X03560000Y01715000D03*
X03620000Y01560000D03*
X03165000Y01265000D03*
X03100000Y01345000D03*
X03050000Y01180000D03*
X03045000Y01075000D03*
X03110000Y00975000D03*
X03045000Y00885000D03*
X02815000Y01040000D03*
X02815000Y01085000D03*
X02685000Y01380000D03*
X03355000Y02140000D03*
X03550000Y02125000D03*
X03790000Y02030000D03*
X03785000Y02355000D03*
X03820000Y02610000D03*
X03820000Y02685000D03*
X03820000Y02755000D03*
X03540000Y03040000D03*
X03485000Y03040000D03*
X03425000Y03040000D03*
X03365000Y03040000D03*
X03290000Y02970000D03*
X03715000Y00950000D03*
X03750000Y00835000D03*
D16*
X00046000Y00802076D02*
X00046000Y00046000D01*
X01595917Y00046000D01*
X01546176Y00095741D01*
X01541000Y00108237D01*
X01541000Y00767970D01*
X01535157Y00782075D01*
X01535157Y00797925D01*
X01541223Y00812569D01*
X01552431Y00823777D01*
X01567075Y00829842D01*
X01582925Y00829842D01*
X01597030Y00824000D01*
X02047970Y00824000D01*
X02062075Y00829842D01*
X02077925Y00829842D01*
X02092569Y00823777D01*
X02103777Y00812569D01*
X02109842Y00797925D01*
X02109842Y00782075D01*
X02103777Y00767431D01*
X02092569Y00756223D01*
X02077925Y00750157D01*
X02062075Y00750157D01*
X02047970Y00756000D01*
X01609000Y00756000D01*
X01609000Y00129083D01*
X01639083Y00099000D01*
X02158502Y00099000D01*
X02155157Y00107075D01*
X02155157Y00122925D01*
X02161000Y00137030D01*
X02161000Y00300917D01*
X01926536Y00535381D01*
X01912431Y00541223D01*
X01901223Y00552431D01*
X01895157Y00567075D01*
X01895157Y00582925D01*
X01900988Y00597000D01*
X01899430Y00597000D01*
X01889139Y00601263D01*
X01881263Y00609139D01*
X01870244Y00620157D01*
X01862075Y00620157D01*
X01847431Y00626223D01*
X01836223Y00637431D01*
X01830157Y00652075D01*
X01830157Y00667925D01*
X01836223Y00682569D01*
X01847431Y00693777D01*
X01862075Y00699842D01*
X01877925Y00699842D01*
X01892569Y00693777D01*
X01903777Y00682569D01*
X01909842Y00667925D01*
X01909842Y00659755D01*
X01916598Y00653000D01*
X02953916Y00653000D01*
X02950157Y00662075D01*
X02950157Y00677925D01*
X02956223Y00692569D01*
X02960000Y00696346D01*
X02960000Y00920000D01*
X02871346Y00920000D01*
X02867569Y00916223D01*
X02852925Y00910157D01*
X02837075Y00910157D01*
X02822431Y00916223D01*
X02811223Y00927431D01*
X02805157Y00942075D01*
X02805157Y00944999D01*
X02793728Y00955000D01*
X02176346Y00955000D01*
X02172569Y00951223D01*
X02157925Y00945157D01*
X02142075Y00945157D01*
X02127431Y00951223D01*
X02116223Y00962431D01*
X02110157Y00977075D01*
X02110157Y00992925D01*
X02116223Y01007569D01*
X02127431Y01018777D01*
X02142075Y01024842D01*
X02157925Y01024842D01*
X02172569Y01018777D01*
X02176346Y01015000D01*
X02804002Y01015000D01*
X02808959Y01015330D01*
X02809935Y01015000D01*
X02810967Y01015000D01*
X02815559Y01013098D01*
X02820264Y01011507D01*
X02821040Y01010828D01*
X02821994Y01010433D01*
X02825508Y01006918D01*
X02845023Y00989842D01*
X02852925Y00989842D01*
X02867569Y00983777D01*
X02871346Y00980000D01*
X03068000Y00980000D01*
X03068000Y00983354D01*
X03074394Y00998791D01*
X03086209Y01010606D01*
X03101646Y01017000D01*
X03109573Y01017000D01*
X03120000Y01027426D01*
X03120000Y01192574D01*
X03057573Y01255000D01*
X03041346Y01255000D01*
X03037569Y01251223D01*
X03022925Y01245157D01*
X03007075Y01245157D01*
X02992431Y01251223D01*
X02981223Y01262431D01*
X02975157Y01277075D01*
X02975157Y01292925D01*
X02981223Y01307569D01*
X02992431Y01318777D01*
X03007075Y01324842D01*
X03022925Y01324842D01*
X03037569Y01318777D01*
X03041346Y01315000D01*
X03075967Y01315000D01*
X03086994Y01310433D01*
X03095433Y01301994D01*
X03123314Y01274112D01*
X03129394Y01288791D01*
X03141209Y01300606D01*
X03156646Y01307000D01*
X03167000Y01307000D01*
X03167000Y01633402D01*
X03165874Y01634528D01*
X03162569Y01631223D01*
X03147925Y01625157D01*
X03139755Y01625157D01*
X03135861Y01621263D01*
X03125570Y01617000D01*
X03036598Y01617000D01*
X02957598Y01538000D01*
X03110570Y01538000D01*
X03120861Y01533737D01*
X03124755Y01529842D01*
X03132925Y01529842D01*
X03147569Y01523777D01*
X03158777Y01512569D01*
X03164842Y01497925D01*
X03164842Y01482075D01*
X03158777Y01467431D01*
X03147569Y01456223D01*
X03132925Y01450157D01*
X03117075Y01450157D01*
X03102431Y01456223D01*
X03091223Y01467431D01*
X03085188Y01482000D01*
X02741598Y01482000D01*
X02643737Y01384139D01*
X02643737Y01384139D01*
X02635861Y01376263D01*
X02625570Y01372000D01*
X02518346Y01372000D01*
X02512569Y01366223D01*
X02497925Y01360157D01*
X02482075Y01360157D01*
X02467431Y01366223D01*
X02456223Y01377431D01*
X02450157Y01392075D01*
X02450157Y01407925D01*
X02456223Y01422569D01*
X02467431Y01433777D01*
X02482075Y01439842D01*
X02497925Y01439842D01*
X02512569Y01433777D01*
X02518346Y01428000D01*
X02608402Y01428000D01*
X02682402Y01502000D01*
X02526598Y01502000D01*
X02519842Y01495244D01*
X02519842Y01487075D01*
X02513777Y01472431D01*
X02502569Y01461223D01*
X02487925Y01455157D01*
X02472075Y01455157D01*
X02457431Y01461223D01*
X02446223Y01472431D01*
X02440157Y01487075D01*
X02440157Y01502925D01*
X02446223Y01517569D01*
X02450654Y01522000D01*
X02411598Y01522000D01*
X02085861Y01196263D01*
X02075570Y01192000D01*
X01923346Y01192000D01*
X01917569Y01186223D01*
X01902925Y01180157D01*
X01887075Y01180157D01*
X01872431Y01186223D01*
X01861223Y01197431D01*
X01859995Y01200397D01*
X01771421Y01111823D01*
X01777000Y01098354D01*
X01777000Y01081646D01*
X01770606Y01066209D01*
X01758791Y01054394D01*
X01743354Y01048000D01*
X01726646Y01048000D01*
X01711209Y01054394D01*
X01699394Y01066209D01*
X01693000Y01081646D01*
X01693000Y01098354D01*
X01699394Y01113791D01*
X01707585Y01121982D01*
X01711263Y01130861D01*
X01719139Y01138737D01*
X01719139Y01138737D01*
X01787402Y01207000D01*
X01424811Y01207000D01*
X01418777Y01192431D01*
X01407569Y01181223D01*
X01392925Y01175157D01*
X01377075Y01175157D01*
X01362431Y01181223D01*
X01351223Y01192431D01*
X01348530Y01198932D01*
X01308000Y01158402D01*
X01308000Y01133346D01*
X01313777Y01127569D01*
X01319842Y01112925D01*
X01319842Y01097075D01*
X01313777Y01082431D01*
X01302569Y01071223D01*
X01287925Y01065157D01*
X01272075Y01065157D01*
X01257431Y01071223D01*
X01246223Y01082431D01*
X01240157Y01097075D01*
X01240157Y01112925D01*
X01245556Y01125958D01*
X01211234Y01091636D01*
X01214842Y01082925D01*
X01214842Y01069755D01*
X01261598Y01023000D01*
X01532260Y01023000D01*
X01536223Y01032569D01*
X01547431Y01043777D01*
X01562075Y01049842D01*
X01577925Y01049842D01*
X01592569Y01043777D01*
X01603777Y01032569D01*
X01605449Y01028532D01*
X01620381Y01043464D01*
X01626223Y01057569D01*
X01637431Y01068777D01*
X01652075Y01074842D01*
X01667925Y01074842D01*
X01682569Y01068777D01*
X01693777Y01057569D01*
X01699842Y01042925D01*
X01699842Y01027075D01*
X01693777Y01012431D01*
X01682569Y01001223D01*
X01668464Y00995381D01*
X01609259Y00936176D01*
X01596763Y00931000D01*
X01232030Y00931000D01*
X01217925Y00925157D01*
X01202075Y00925157D01*
X01188622Y00930730D01*
X01188992Y00929349D01*
X01188992Y00900651D01*
X01181564Y00872930D01*
X01167215Y00848077D01*
X01146923Y00827785D01*
X01122069Y00813436D01*
X01094349Y00806008D01*
X01065651Y00806008D01*
X01037930Y00813436D01*
X01013077Y00827785D01*
X00992785Y00848077D01*
X00978436Y00872930D01*
X00971008Y00900651D01*
X00971008Y00929349D01*
X00978436Y00957069D01*
X00992785Y00981923D01*
X01013077Y01002215D01*
X01037930Y01016564D01*
X01065651Y01023992D01*
X01094349Y01023992D01*
X01122069Y01016564D01*
X01146923Y01002215D01*
X01167215Y00981923D01*
X01171098Y00975197D01*
X01176223Y00987569D01*
X01187431Y00998777D01*
X01201003Y01004399D01*
X01170244Y01035157D01*
X01167075Y01035157D01*
X01152431Y01041223D01*
X01146654Y01047000D01*
X01139430Y01047000D01*
X01129139Y01051263D01*
X01121263Y01059139D01*
X01117000Y01069430D01*
X01117000Y01080570D01*
X01119664Y01087000D01*
X00386598Y01087000D01*
X00340433Y01040835D01*
X00342748Y01035246D01*
X00342748Y00964754D01*
X00335479Y00947205D01*
X00322047Y00933773D01*
X00304498Y00926504D01*
X00285502Y00926504D01*
X00267953Y00933773D01*
X00254521Y00947205D01*
X00247252Y00964754D01*
X00247252Y01022654D01*
X00242748Y01018150D01*
X00242748Y00964754D01*
X00235479Y00947205D01*
X00222047Y00933773D01*
X00204498Y00926504D01*
X00185502Y00926504D01*
X00167953Y00933773D01*
X00154521Y00947205D01*
X00147252Y00964754D01*
X00147252Y01035246D01*
X00154521Y01052795D01*
X00167953Y01066227D01*
X00185502Y01073496D01*
X00204498Y01073496D01*
X00214680Y01069278D01*
X00296263Y01150861D01*
X00304139Y01158737D01*
X00314430Y01163000D01*
X01056845Y01163000D01*
X01055157Y01167075D01*
X01055157Y01182925D01*
X01061223Y01197569D01*
X01067000Y01203346D01*
X01067000Y01451542D01*
X01055613Y01460652D01*
X01054139Y01461263D01*
X01051297Y01464105D01*
X01048159Y01466615D01*
X01047390Y01468012D01*
X01046263Y01469139D01*
X01044725Y01472852D01*
X01042786Y01476372D01*
X01042610Y01477957D01*
X01042000Y01479430D01*
X01042000Y01483449D01*
X01041556Y01487443D01*
X01042000Y01488975D01*
X01042000Y01946654D01*
X01031223Y01957431D01*
X01025157Y01972075D01*
X01025157Y01987925D01*
X01031223Y02002569D01*
X01042431Y02013777D01*
X01057075Y02019842D01*
X01071000Y02019842D01*
X01071000Y02721425D01*
X00995403Y02801000D01*
X00968237Y02801000D01*
X00955741Y02806176D01*
X00935741Y02826176D01*
X00926176Y02835741D01*
X00921512Y02847000D01*
X00879000Y02847000D01*
X00879000Y02828237D01*
X00873824Y02815741D01*
X00748824Y02690741D01*
X00739259Y02681176D01*
X00726763Y02676000D01*
X00619083Y02676000D01*
X00549000Y02605917D01*
X00549000Y01699083D01*
X00677784Y01570299D01*
X00685502Y01573496D01*
X00704498Y01573496D01*
X00722047Y01566227D01*
X00735479Y01552795D01*
X00742748Y01535246D01*
X00742748Y01464754D01*
X00735479Y01447205D01*
X00722047Y01433773D01*
X00704498Y01426504D01*
X00685502Y01426504D01*
X00667953Y01433773D01*
X00654521Y01447205D01*
X00647252Y01464754D01*
X00647252Y01504665D01*
X00642748Y01509169D01*
X00642748Y01464754D01*
X00635479Y01447205D01*
X00622047Y01433773D01*
X00604498Y01426504D01*
X00585502Y01426504D01*
X00567953Y01433773D01*
X00554521Y01447205D01*
X00547252Y01464754D01*
X00547252Y01519665D01*
X00542748Y01524169D01*
X00542748Y01464754D01*
X00535479Y01447205D01*
X00522047Y01433773D01*
X00504498Y01426504D01*
X00485502Y01426504D01*
X00467953Y01433773D01*
X00454521Y01447205D01*
X00447252Y01464754D01*
X00447252Y01535246D01*
X00454404Y01552513D01*
X00429000Y01577917D01*
X00429000Y01559274D01*
X00435479Y01552795D01*
X00442748Y01535246D01*
X00442748Y01464754D01*
X00435479Y01447205D01*
X00422047Y01433773D01*
X00404498Y01426504D01*
X00385502Y01426504D01*
X00367953Y01433773D01*
X00354521Y01447205D01*
X00347252Y01464754D01*
X00347252Y01535246D01*
X00354521Y01552795D01*
X00361000Y01559274D01*
X00361000Y02666763D01*
X00366176Y02679259D01*
X00375741Y02688824D01*
X00536176Y02849259D01*
X00540982Y02854065D01*
X00520014Y02875033D01*
X00515104Y02863180D01*
X00496820Y02844896D01*
X00488284Y02841360D01*
X00140000Y02493076D01*
X00140000Y00891924D01*
X00215104Y00816820D01*
X00225000Y00792929D01*
X00225000Y00767071D01*
X00215104Y00743180D01*
X00196820Y00724896D01*
X00172929Y00715000D01*
X00147071Y00715000D01*
X00123180Y00724896D01*
X00046000Y00802076D01*
X00046000Y00791903D02*
X00056173Y00791903D01*
X00046000Y00779904D02*
X00068172Y00779904D01*
X00080171Y00767906D02*
X00046000Y00767906D01*
X00046000Y00755907D02*
X00092169Y00755907D01*
X00104168Y00743908D02*
X00046000Y00743908D01*
X00046000Y00731910D02*
X00116166Y00731910D01*
X00135213Y00719911D02*
X00046000Y00719911D01*
X00046000Y00707913D02*
X00433000Y00707913D01*
X00433000Y00719911D02*
X00184786Y00719911D01*
X00203834Y00731910D02*
X00433000Y00731910D01*
X00433000Y00743908D02*
X00215406Y00743908D01*
X00220376Y00755907D02*
X00433000Y00755907D01*
X00433000Y00767906D02*
X00225000Y00767906D01*
X00225000Y00779904D02*
X00433000Y00779904D01*
X00433000Y00791903D02*
X00225000Y00791903D01*
X00220455Y00803901D02*
X00433000Y00803901D01*
X00433000Y00804113D02*
X00433000Y00375887D01*
X00445887Y00363000D01*
X00889113Y00363000D01*
X00902000Y00375887D01*
X00902000Y00804113D01*
X00889113Y00817000D01*
X00445887Y00817000D01*
X00433000Y00804113D01*
X00444787Y00815900D02*
X00215485Y00815900D01*
X00204026Y00827898D02*
X01012964Y00827898D01*
X01000965Y00839897D02*
X00192027Y00839897D01*
X00180029Y00851895D02*
X00990580Y00851895D01*
X00983653Y00863894D02*
X00168030Y00863894D01*
X00156031Y00875892D02*
X00977642Y00875892D01*
X00974427Y00887891D02*
X00144033Y00887891D01*
X00140000Y00899889D02*
X00971212Y00899889D01*
X00971008Y00911888D02*
X00140000Y00911888D01*
X00140000Y00923886D02*
X00971008Y00923886D01*
X00972759Y00935885D02*
X00924159Y00935885D01*
X00922047Y00933773D02*
X00935479Y00947205D01*
X00942748Y00964754D01*
X00942748Y01035246D01*
X00935479Y01052795D01*
X00922047Y01066227D01*
X00904498Y01073496D01*
X00885502Y01073496D01*
X00867953Y01066227D01*
X00854521Y01052795D01*
X00847252Y01035246D01*
X00847252Y00964754D01*
X00854521Y00947205D01*
X00867953Y00933773D01*
X00885502Y00926504D01*
X00904498Y00926504D01*
X00922047Y00933773D01*
X00935760Y00947883D02*
X00975974Y00947883D01*
X00980059Y00959882D02*
X00940730Y00959882D01*
X00942748Y00971880D02*
X00986987Y00971880D01*
X00994741Y00983879D02*
X00942748Y00983879D01*
X00942748Y00995877D02*
X01006739Y00995877D01*
X01022882Y01007876D02*
X00942748Y01007876D01*
X00942748Y01019875D02*
X01050284Y01019875D01*
X01109716Y01019875D02*
X01185527Y01019875D01*
X01173529Y01031873D02*
X00942748Y01031873D01*
X00939175Y01043872D02*
X01149783Y01043872D01*
X01124532Y01055870D02*
X00932404Y01055870D01*
X00918083Y01067869D02*
X01117647Y01067869D01*
X01117000Y01079867D02*
X00379465Y01079867D01*
X00385502Y01073496D02*
X00367953Y01066227D01*
X00354521Y01052795D01*
X00347252Y01035246D01*
X00347252Y00964754D01*
X00354521Y00947205D01*
X00367953Y00933773D01*
X00385502Y00926504D01*
X00404498Y00926504D01*
X00422047Y00933773D01*
X00435479Y00947205D01*
X00442748Y00964754D01*
X00442748Y01035246D01*
X00435479Y01052795D01*
X00422047Y01066227D01*
X00404498Y01073496D01*
X00385502Y01073496D01*
X00371917Y01067869D02*
X00367466Y01067869D01*
X00357596Y01055870D02*
X00355468Y01055870D01*
X00350825Y01043872D02*
X00343469Y01043872D01*
X00342748Y01031873D02*
X00347252Y01031873D01*
X00347252Y01019875D02*
X00342748Y01019875D01*
X00342748Y01007876D02*
X00347252Y01007876D01*
X00347252Y00995877D02*
X00342748Y00995877D01*
X00342748Y00983879D02*
X00347252Y00983879D01*
X00347252Y00971880D02*
X00342748Y00971880D01*
X00340730Y00959882D02*
X00349270Y00959882D01*
X00354240Y00947883D02*
X00335760Y00947883D01*
X00324159Y00935885D02*
X00365841Y00935885D01*
X00424159Y00935885D02*
X00465841Y00935885D01*
X00467953Y00933773D02*
X00485502Y00926504D01*
X00504498Y00926504D01*
X00522047Y00933773D01*
X00535479Y00947205D01*
X00542748Y00964754D01*
X00542748Y01035246D01*
X00535479Y01052795D01*
X00522047Y01066227D01*
X00504498Y01073496D01*
X00485502Y01073496D01*
X00467953Y01066227D01*
X00454521Y01052795D01*
X00447252Y01035246D01*
X00447252Y00964754D01*
X00454521Y00947205D01*
X00467953Y00933773D01*
X00454240Y00947883D02*
X00435760Y00947883D01*
X00440730Y00959882D02*
X00449270Y00959882D01*
X00447252Y00971880D02*
X00442748Y00971880D01*
X00442748Y00983879D02*
X00447252Y00983879D01*
X00447252Y00995877D02*
X00442748Y00995877D01*
X00442748Y01007876D02*
X00447252Y01007876D01*
X00447252Y01019875D02*
X00442748Y01019875D01*
X00442748Y01031873D02*
X00447252Y01031873D01*
X00450825Y01043872D02*
X00439175Y01043872D01*
X00432404Y01055870D02*
X00457596Y01055870D01*
X00471917Y01067869D02*
X00418083Y01067869D01*
X00375000Y01115000D02*
X01195000Y01115000D01*
X01355000Y01275000D01*
X01805000Y01275000D01*
X01850000Y01320000D01*
X01945000Y01320000D01*
X01965000Y01300000D01*
X02030000Y01300000D01*
X02360000Y01630000D01*
X02860000Y01630000D01*
X02970000Y01740000D01*
X02970000Y01750000D01*
X02950000Y01770000D01*
X02925000Y01740000D02*
X02915000Y01750000D01*
X02915000Y01815000D01*
X02905000Y01825000D01*
X02865157Y01823776D02*
X02548374Y01823776D01*
X02560372Y01835774D02*
X02866338Y01835774D01*
X02866845Y01837000D02*
X02865157Y01832925D01*
X02865157Y01817075D01*
X02871223Y01802431D01*
X02882431Y01791223D01*
X02887000Y01789331D01*
X02887000Y01744430D01*
X02891263Y01734139D01*
X02892902Y01732500D01*
X02838402Y01678000D01*
X02344430Y01678000D01*
X02334139Y01673737D01*
X02326263Y01665861D01*
X02079842Y01419440D01*
X02079842Y01427925D01*
X02073817Y01442471D01*
X02083777Y01452431D01*
X02089842Y01467075D01*
X02089842Y01482925D01*
X02083777Y01497569D01*
X02078846Y01502500D01*
X02083777Y01507431D01*
X02089842Y01522075D01*
X02089842Y01537925D01*
X02083777Y01552569D01*
X02072569Y01563777D01*
X02057925Y01569842D01*
X02054842Y01569842D01*
X02054842Y01582925D01*
X02048777Y01597569D01*
X02037569Y01608777D01*
X02022925Y01614842D01*
X02007075Y01614842D01*
X01992431Y01608777D01*
X01986654Y01603000D01*
X01961598Y01603000D01*
X01843737Y01720861D01*
X01835861Y01728737D01*
X01825570Y01733000D01*
X01714345Y01733000D01*
X01718777Y01737431D01*
X01724842Y01752075D01*
X01724842Y01765244D01*
X01746598Y01787000D01*
X01965188Y01787000D01*
X01971223Y01772431D01*
X01982431Y01761223D01*
X01997075Y01755157D01*
X02012925Y01755157D01*
X02014565Y01755837D01*
X02034139Y01736263D01*
X02044430Y01732000D01*
X02120570Y01732000D01*
X02130861Y01736263D01*
X02156598Y01762000D01*
X02480570Y01762000D01*
X02490861Y01766263D01*
X02561598Y01837000D01*
X02866845Y01837000D01*
X02867352Y01811777D02*
X02536375Y01811777D01*
X02524376Y01799779D02*
X02873876Y01799779D01*
X02887000Y01787780D02*
X02512378Y01787780D01*
X02500379Y01775781D02*
X02887000Y01775781D01*
X02887000Y01763783D02*
X02484874Y01763783D01*
X02475000Y01790000D02*
X02550000Y01865000D01*
X03065000Y01865000D01*
X03080000Y01850000D01*
X03080000Y01795000D01*
X03130000Y01745000D01*
X03175000Y01745000D01*
X03200000Y01720000D01*
X03200000Y01670000D01*
X03220000Y01650000D01*
X03275000Y01650000D01*
X03300000Y01675000D01*
X03300000Y01730000D01*
X03310000Y01740000D01*
X03385000Y01740000D01*
X03435000Y01790000D01*
X03645000Y01790000D01*
X03690000Y01745000D01*
X03690000Y01295000D01*
X03710000Y01275000D01*
X03710000Y01245000D01*
X03755000Y01200000D01*
X03755000Y01095000D01*
X03850000Y01000000D01*
X03795000Y01025000D02*
X03795000Y00955000D01*
X03850000Y00900000D01*
X03813981Y00863894D02*
X03751977Y00863894D01*
X03763975Y00875892D02*
X03804784Y00875892D01*
X03806764Y00871111D02*
X03821111Y00856764D01*
X03837441Y00850000D01*
X03821111Y00843236D01*
X03806764Y00828889D01*
X03799000Y00810145D01*
X03799000Y00789855D01*
X03806764Y00771111D01*
X03821111Y00756764D01*
X03837441Y00750000D01*
X03821111Y00743236D01*
X03806764Y00728889D01*
X03799000Y00710145D01*
X03799000Y00689855D01*
X03806764Y00671111D01*
X03821111Y00656764D01*
X03837441Y00650000D01*
X03821111Y00643236D01*
X03806764Y00628889D01*
X03799000Y00610145D01*
X03799000Y00589855D01*
X03806764Y00571111D01*
X03821111Y00556764D01*
X03837441Y00550000D01*
X03821111Y00543236D01*
X03806764Y00528889D01*
X03799000Y00510145D01*
X03799000Y00489855D01*
X03806764Y00471111D01*
X03821111Y00456764D01*
X03837441Y00450000D01*
X03821111Y00443236D01*
X03806764Y00428889D01*
X03799000Y00410145D01*
X03799000Y00389855D01*
X03806764Y00371111D01*
X03821111Y00356764D01*
X03837441Y00350000D01*
X03821111Y00343236D01*
X03806764Y00328889D01*
X03799000Y00310145D01*
X03799000Y00289855D01*
X03806764Y00271111D01*
X03821111Y00256764D01*
X03837441Y00250000D01*
X03821111Y00243236D01*
X03806764Y00228889D01*
X03799000Y00210145D01*
X03799000Y00189855D01*
X03806764Y00171111D01*
X03821111Y00156764D01*
X03839855Y00149000D01*
X03860145Y00149000D01*
X03878889Y00156764D01*
X03893236Y00171111D01*
X03901000Y00189855D01*
X03901000Y00210145D01*
X03893236Y00228889D01*
X03878889Y00243236D01*
X03862559Y00250000D01*
X03878889Y00256764D01*
X03893236Y00271111D01*
X03901000Y00289855D01*
X03901000Y00310145D01*
X03893236Y00328889D01*
X03878889Y00343236D01*
X03862559Y00350000D01*
X03878889Y00356764D01*
X03893236Y00371111D01*
X03901000Y00389855D01*
X03901000Y00410145D01*
X03900632Y00411034D01*
X03973737Y00484139D01*
X03978000Y00494430D01*
X03978000Y01215570D01*
X03973737Y01225861D01*
X03965861Y01233737D01*
X03933000Y01266598D01*
X03933000Y01930570D01*
X03928737Y01940861D01*
X03920861Y01948737D01*
X03895861Y01973737D01*
X03894549Y01974281D01*
X03901000Y01989855D01*
X03901000Y02010145D01*
X03893236Y02028889D01*
X03878889Y02043236D01*
X03862559Y02050000D01*
X03878889Y02056764D01*
X03893236Y02071111D01*
X03901000Y02089855D01*
X03901000Y02110145D01*
X03893236Y02128889D01*
X03878889Y02143236D01*
X03862559Y02150000D01*
X03878889Y02156764D01*
X03893236Y02171111D01*
X03901000Y02189855D01*
X03901000Y02210145D01*
X03893236Y02228889D01*
X03878889Y02243236D01*
X03862558Y02250000D01*
X03878889Y02256764D01*
X03893236Y02271111D01*
X03901000Y02289855D01*
X03901000Y02310145D01*
X03893236Y02328889D01*
X03878889Y02343236D01*
X03862558Y02350000D01*
X03878889Y02356764D01*
X03893236Y02371111D01*
X03901000Y02389855D01*
X03901000Y02410145D01*
X03893236Y02428889D01*
X03878889Y02443236D01*
X03860145Y02451000D01*
X03839855Y02451000D01*
X03821111Y02443236D01*
X03806764Y02428889D01*
X03799000Y02410145D01*
X03799000Y02389855D01*
X03806764Y02371111D01*
X03821111Y02356764D01*
X03837441Y02350000D01*
X03821111Y02343236D01*
X03806764Y02328889D01*
X03799000Y02310145D01*
X03799000Y02289855D01*
X03806764Y02271111D01*
X03821111Y02256764D01*
X03837441Y02250000D01*
X03821111Y02243236D01*
X03806764Y02228889D01*
X03799000Y02210145D01*
X03799000Y02189855D01*
X03806764Y02171111D01*
X03821111Y02156764D01*
X03837441Y02150000D01*
X03821111Y02143236D01*
X03806764Y02128889D01*
X03799000Y02110145D01*
X03799000Y02089855D01*
X03806764Y02071111D01*
X03821111Y02056764D01*
X03837441Y02050000D01*
X03821111Y02043236D01*
X03806764Y02028889D01*
X03799000Y02010145D01*
X03799000Y02000598D01*
X03772098Y02027500D01*
X03788737Y02044139D01*
X03793000Y02054430D01*
X03793000Y02310570D01*
X03788737Y02320861D01*
X03780861Y02328737D01*
X03728000Y02381598D01*
X03728000Y02551654D01*
X03733777Y02557431D01*
X03739842Y02572075D01*
X03739842Y02587925D01*
X03733777Y02602569D01*
X03722569Y02613777D01*
X03707925Y02619842D01*
X03692075Y02619842D01*
X03688000Y02618155D01*
X03688000Y02753402D01*
X03736598Y02802000D01*
X03741654Y02802000D01*
X03747431Y02796223D01*
X03762075Y02790157D01*
X03777925Y02790157D01*
X03792569Y02796223D01*
X03803777Y02807431D01*
X03809842Y02822075D01*
X03809842Y02837925D01*
X03803777Y02852569D01*
X03792569Y02863777D01*
X03777925Y02869842D01*
X03762075Y02869842D01*
X03747431Y02863777D01*
X03741654Y02858000D01*
X03719430Y02858000D01*
X03709139Y02853737D01*
X03644139Y02788737D01*
X03636263Y02780861D01*
X03632000Y02770570D01*
X03632000Y02564430D01*
X03636263Y02554139D01*
X03652000Y02538402D01*
X03652000Y02369345D01*
X03648000Y02373346D01*
X03648000Y02520570D01*
X03643737Y02530861D01*
X03635861Y02538737D01*
X03459598Y02715000D01*
X03553737Y02809139D01*
X03558000Y02819430D01*
X03558000Y02881654D01*
X03563777Y02887431D01*
X03569842Y02902075D01*
X03569842Y02917925D01*
X03563777Y02932569D01*
X03552569Y02943777D01*
X03537925Y02949842D01*
X03522075Y02949842D01*
X03507431Y02943777D01*
X03496223Y02932569D01*
X03490157Y02917925D01*
X03490157Y02902075D01*
X03496223Y02887431D01*
X03502000Y02881654D01*
X03502000Y02836598D01*
X03418402Y02753000D01*
X03294811Y02753000D01*
X03288777Y02767569D01*
X03277569Y02778777D01*
X03262925Y02784842D01*
X03247075Y02784842D01*
X03232431Y02778777D01*
X03221223Y02767569D01*
X03215157Y02752925D01*
X03215157Y02737075D01*
X03218916Y02728000D01*
X02091598Y02728000D01*
X02028000Y02791598D01*
X02028000Y02853047D01*
X02053000Y02878047D01*
X02053000Y02921953D01*
X02021953Y02953000D01*
X01978047Y02953000D01*
X01975000Y02949953D01*
X01975000Y02955047D01*
X01998000Y02978047D01*
X01998000Y03021953D01*
X01966953Y03053000D01*
X01923047Y03053000D01*
X01892000Y03021953D01*
X01892000Y02978047D01*
X01915000Y02955047D01*
X01915000Y02949953D01*
X01911953Y02953000D01*
X01868047Y02953000D01*
X01863000Y02947953D01*
X01863000Y02953047D01*
X01888000Y02978047D01*
X01888000Y03021953D01*
X01856953Y03053000D01*
X01813047Y03053000D01*
X01782000Y03021953D01*
X01782000Y02978047D01*
X01807000Y02953047D01*
X01807000Y02947953D01*
X01801953Y02953000D01*
X01758047Y02953000D01*
X01753000Y02947953D01*
X01753000Y02953047D01*
X01778000Y02978047D01*
X01778000Y03021953D01*
X01746953Y03053000D01*
X01703047Y03053000D01*
X01672000Y03021953D01*
X01672000Y02978047D01*
X01697000Y02953047D01*
X01697000Y02947953D01*
X01691953Y02953000D01*
X01648047Y02953000D01*
X01643000Y02947953D01*
X01643000Y02953047D01*
X01668000Y02978047D01*
X01668000Y03021953D01*
X01636953Y03053000D01*
X01593047Y03053000D01*
X01562000Y03021953D01*
X01562000Y02978047D01*
X01587000Y02953047D01*
X01587000Y02947953D01*
X01581953Y02953000D01*
X01538047Y02953000D01*
X01507000Y02921953D01*
X01507000Y02878047D01*
X01538047Y02847000D01*
X01581953Y02847000D01*
X01587000Y02852047D01*
X01587000Y02079430D01*
X01591263Y02069139D01*
X01599139Y02061263D01*
X01639139Y02021263D01*
X01649430Y02017000D01*
X02452402Y02017000D01*
X02393402Y01958000D01*
X02121598Y01958000D01*
X02090861Y01988737D01*
X02080570Y01993000D01*
X02014430Y01993000D01*
X02004139Y01988737D01*
X01996263Y01980861D01*
X01995244Y01979842D01*
X01982075Y01979842D01*
X01967431Y01973777D01*
X01956223Y01962569D01*
X01952578Y01953768D01*
X01947569Y01958777D01*
X01932925Y01964842D01*
X01917075Y01964842D01*
X01902431Y01958777D01*
X01891223Y01947569D01*
X01885157Y01932925D01*
X01885157Y01917075D01*
X01891223Y01902431D01*
X01902431Y01891223D01*
X01917075Y01885157D01*
X01932925Y01885157D01*
X01937423Y01887020D01*
X01936263Y01885861D01*
X01936263Y01885860D01*
X01933402Y01883000D01*
X01694430Y01883000D01*
X01684139Y01878737D01*
X01658402Y01853000D01*
X01463346Y01853000D01*
X01457569Y01858777D01*
X01442925Y01864842D01*
X01427075Y01864842D01*
X01412431Y01858777D01*
X01401223Y01847569D01*
X01395157Y01832925D01*
X01395157Y01817075D01*
X01401223Y01802431D01*
X01412431Y01791223D01*
X01427075Y01785157D01*
X01442925Y01785157D01*
X01457569Y01791223D01*
X01463346Y01797000D01*
X01632402Y01797000D01*
X01603402Y01768000D01*
X01566397Y01768000D01*
X01558791Y01775606D01*
X01543354Y01782000D01*
X01526646Y01782000D01*
X01511209Y01775606D01*
X01499394Y01763791D01*
X01493000Y01748354D01*
X01493000Y01733000D01*
X01381598Y01733000D01*
X01368000Y01746598D01*
X01368000Y01893402D01*
X01375861Y01901263D01*
X01383737Y01909139D01*
X01388000Y01919430D01*
X01388000Y02075570D01*
X01383737Y02085861D01*
X01373000Y02096598D01*
X01373000Y02783402D01*
X01436598Y02847000D01*
X01471953Y02847000D01*
X01503000Y02878047D01*
X01503000Y02921953D01*
X01484775Y02940178D01*
X01491598Y02947000D01*
X01526953Y02947000D01*
X01558000Y02978047D01*
X01558000Y03021953D01*
X01526953Y03053000D01*
X01483047Y03053000D01*
X01452000Y03021953D01*
X01452000Y02988000D01*
X01442000Y02988000D01*
X01442000Y02996000D01*
X01399001Y02996000D01*
X01399001Y03004000D01*
X01442000Y03004000D01*
X01442000Y03019468D01*
X01414468Y03047000D01*
X01399000Y03047000D01*
X01399000Y03004001D01*
X01391000Y03004001D01*
X01391000Y03047000D01*
X01375532Y03047000D01*
X01348000Y03019468D01*
X01348000Y03004000D01*
X01390999Y03004000D01*
X01390999Y02996000D01*
X01348000Y02996000D01*
X01348000Y02980532D01*
X01375532Y02953000D01*
X01388402Y02953000D01*
X01375178Y02939775D01*
X01361953Y02953000D01*
X01318047Y02953000D01*
X01313000Y02947953D01*
X01313000Y02953047D01*
X01338000Y02978047D01*
X01338000Y03021953D01*
X01306953Y03053000D01*
X01263047Y03053000D01*
X01232000Y03021953D01*
X01232000Y02978047D01*
X01257000Y02953047D01*
X01257000Y02947953D01*
X01251953Y02953000D01*
X01209000Y02953000D01*
X01209000Y02959047D01*
X01228000Y02978047D01*
X01228000Y03021953D01*
X01196953Y03053000D01*
X01153047Y03053000D01*
X01122000Y03021953D01*
X01122000Y02978047D01*
X01141000Y02959047D01*
X01141000Y02953000D01*
X01099000Y02953000D01*
X01099000Y02959047D01*
X01118000Y02978047D01*
X01118000Y03021953D01*
X01086953Y03053000D01*
X01043047Y03053000D01*
X01012000Y03021953D01*
X01012000Y02978047D01*
X01031000Y02959047D01*
X01031000Y02953000D01*
X00989000Y02953000D01*
X00989000Y02959047D01*
X01008000Y02978047D01*
X01008000Y03021953D01*
X00976953Y03053000D01*
X00933047Y03053000D01*
X00902000Y03021953D01*
X00902000Y02978047D01*
X00921000Y02959047D01*
X00921000Y02953000D01*
X00879000Y02953000D01*
X00879000Y02959047D01*
X00898000Y02978047D01*
X00898000Y03021953D01*
X00866953Y03053000D01*
X00823047Y03053000D01*
X00792000Y03021953D01*
X00792000Y02978047D01*
X00811000Y02959047D01*
X00811000Y02953000D01*
X00769000Y02953000D01*
X00769000Y02959047D01*
X00788000Y02978047D01*
X00788000Y03021953D01*
X00756953Y03053000D01*
X00713047Y03053000D01*
X00682000Y03021953D01*
X00682000Y02978047D01*
X00701000Y02959047D01*
X00701000Y02953000D01*
X00659000Y02953000D01*
X00659000Y02959047D01*
X00678000Y02978047D01*
X00678000Y03021953D01*
X00646953Y03053000D01*
X00603047Y03053000D01*
X00572000Y03021953D01*
X00572000Y03019177D01*
X00565865Y03033987D01*
X00548987Y03050865D01*
X00526935Y03060000D01*
X00503065Y03060000D01*
X00481013Y03050865D01*
X00409134Y02978987D01*
X00400000Y02956935D01*
X00400000Y02936924D01*
X00046000Y02582924D01*
X00046000Y03103606D01*
X03991008Y03103606D01*
X03991008Y03010353D01*
X03987215Y03016923D01*
X03966923Y03037215D01*
X03942069Y03051564D01*
X03914349Y03058992D01*
X03885651Y03058992D01*
X03857930Y03051564D01*
X03833077Y03037215D01*
X03812785Y03016923D01*
X03798436Y02992069D01*
X03791008Y02964349D01*
X03791008Y02935651D01*
X03798436Y02907930D01*
X03812785Y02883077D01*
X03833077Y02862785D01*
X03857930Y02848436D01*
X03885651Y02841008D01*
X03914349Y02841008D01*
X03942069Y02848436D01*
X03966923Y02862785D01*
X03987215Y02883077D01*
X03991008Y02889646D01*
X03991008Y00046000D01*
X03606511Y00046000D01*
X03626923Y00057785D01*
X03647215Y00078077D01*
X03661564Y00102930D01*
X03668992Y00130651D01*
X03668992Y00159349D01*
X03661564Y00187069D01*
X03647215Y00211923D01*
X03626923Y00232215D01*
X03602069Y00246564D01*
X03574349Y00253992D01*
X03545651Y00253992D01*
X03517930Y00246564D01*
X03493077Y00232215D01*
X03472785Y00211923D01*
X03458436Y00187069D01*
X03451008Y00159349D01*
X03451008Y00130651D01*
X03458436Y00102930D01*
X03472785Y00078077D01*
X03493077Y00057785D01*
X03513489Y00046000D01*
X02949083Y00046000D01*
X02969083Y00066000D01*
X03211875Y00066000D01*
X03221111Y00056764D01*
X03239855Y00049000D01*
X03260145Y00049000D01*
X03278889Y00056764D01*
X03293236Y00071111D01*
X03301000Y00089855D01*
X03301000Y00110145D01*
X03293236Y00128889D01*
X03278889Y00143236D01*
X03262558Y00150000D01*
X03278889Y00156764D01*
X03293236Y00171111D01*
X03300000Y00187441D01*
X03306764Y00171111D01*
X03321111Y00156764D01*
X03339855Y00149000D01*
X03360145Y00149000D01*
X03378889Y00156764D01*
X03393236Y00171111D01*
X03401000Y00189855D01*
X03401000Y00210145D01*
X03393236Y00228889D01*
X03378889Y00243236D01*
X03360145Y00251000D01*
X03339855Y00251000D01*
X03321111Y00243236D01*
X03306764Y00228889D01*
X03300000Y00212558D01*
X03293236Y00228889D01*
X03278889Y00243236D01*
X03262558Y00250000D01*
X03278889Y00256764D01*
X03293125Y00271000D01*
X03401763Y00271000D01*
X03414259Y00276176D01*
X03423824Y00285741D01*
X03644259Y00506176D01*
X03653824Y00515741D01*
X03659000Y00528237D01*
X03659000Y00602970D01*
X03664842Y00617075D01*
X03664842Y00632925D01*
X03659000Y00647030D01*
X03659000Y00770917D01*
X03793824Y00905741D01*
X03796998Y00913404D01*
X03799368Y00911034D01*
X03799000Y00910145D01*
X03799000Y00889855D01*
X03806764Y00871111D01*
X03799814Y00887891D02*
X03775974Y00887891D01*
X03787972Y00899889D02*
X03799000Y00899889D01*
X03798514Y00911888D02*
X03796370Y00911888D01*
X03832866Y00851895D02*
X03739978Y00851895D01*
X03727980Y00839897D02*
X03817772Y00839897D01*
X03806354Y00827898D02*
X03715981Y00827898D01*
X03703983Y00815900D02*
X03801384Y00815900D01*
X03799000Y00803901D02*
X03691984Y00803901D01*
X03696111Y00793236D02*
X03681764Y00778889D01*
X03674000Y00760145D01*
X03674000Y00739855D01*
X03681764Y00721111D01*
X03696111Y00706764D01*
X03712441Y00700000D01*
X03696111Y00693236D01*
X03681764Y00678889D01*
X03674000Y00660145D01*
X03674000Y00639855D01*
X03681764Y00621111D01*
X03696111Y00606764D01*
X03712441Y00600000D01*
X03696111Y00593236D01*
X03681764Y00578889D01*
X03674000Y00560145D01*
X03674000Y00539855D01*
X03681764Y00521111D01*
X03696111Y00506764D01*
X03712441Y00500000D01*
X03696111Y00493236D01*
X03681764Y00478889D01*
X03674000Y00460145D01*
X03674000Y00439855D01*
X03681764Y00421111D01*
X03696111Y00406764D01*
X03712441Y00400000D01*
X03696111Y00393236D01*
X03681764Y00378889D01*
X03674000Y00360145D01*
X03674000Y00339855D01*
X03681764Y00321111D01*
X03696111Y00306764D01*
X03714855Y00299000D01*
X03735145Y00299000D01*
X03753889Y00306764D01*
X03768236Y00321111D01*
X03776000Y00339855D01*
X03776000Y00360145D01*
X03768236Y00378889D01*
X03753889Y00393236D01*
X03737558Y00400000D01*
X03753889Y00406764D01*
X03768236Y00421111D01*
X03776000Y00439855D01*
X03776000Y00460145D01*
X03768236Y00478889D01*
X03753889Y00493236D01*
X03737558Y00500000D01*
X03753889Y00506764D01*
X03768236Y00521111D01*
X03776000Y00539855D01*
X03776000Y00560145D01*
X03768236Y00578889D01*
X03753889Y00593236D01*
X03737558Y00600000D01*
X03753889Y00606764D01*
X03768236Y00621111D01*
X03776000Y00639855D01*
X03776000Y00660145D01*
X03768236Y00678889D01*
X03753889Y00693236D01*
X03737558Y00700000D01*
X03753889Y00706764D01*
X03768236Y00721111D01*
X03776000Y00739855D01*
X03776000Y00760145D01*
X03768236Y00778889D01*
X03753889Y00793236D01*
X03735145Y00801000D01*
X03714855Y00801000D01*
X03696111Y00793236D01*
X03694778Y00791903D02*
X03679986Y00791903D01*
X03682779Y00779904D02*
X03667987Y00779904D01*
X03659000Y00767906D02*
X03677215Y00767906D01*
X03674000Y00755907D02*
X03659000Y00755907D01*
X03659000Y00743908D02*
X03674000Y00743908D01*
X03677291Y00731910D02*
X03659000Y00731910D01*
X03659000Y00719911D02*
X03682964Y00719911D01*
X03694962Y00707913D02*
X03659000Y00707913D01*
X03659000Y00695914D02*
X03702578Y00695914D01*
X03686791Y00683916D02*
X03659000Y00683916D01*
X03659000Y00671917D02*
X03678876Y00671917D01*
X03674000Y00659919D02*
X03659000Y00659919D01*
X03659000Y00647920D02*
X03674000Y00647920D01*
X03675629Y00635922D02*
X03663601Y00635922D01*
X03664842Y00623923D02*
X03680599Y00623923D01*
X03690950Y00611925D02*
X03662709Y00611925D01*
X03659000Y00599926D02*
X03712264Y00599926D01*
X03690803Y00587928D02*
X03659000Y00587928D01*
X03659000Y00575929D02*
X03680538Y00575929D01*
X03675568Y00563931D02*
X03659000Y00563931D01*
X03659000Y00551932D02*
X03674000Y00551932D01*
X03674000Y00539934D02*
X03659000Y00539934D01*
X03658875Y00527935D02*
X03678938Y00527935D01*
X03686938Y00515937D02*
X03653905Y00515937D01*
X03642021Y00503938D02*
X03702934Y00503938D01*
X03694815Y00491939D02*
X03630023Y00491939D01*
X03618024Y00479941D02*
X03682816Y00479941D01*
X03677230Y00467942D02*
X03606026Y00467942D01*
X03594027Y00455944D02*
X03674000Y00455944D01*
X03674000Y00443945D02*
X03582029Y00443945D01*
X03570030Y00431947D02*
X03677276Y00431947D01*
X03682927Y00419948D02*
X03558031Y00419948D01*
X03546033Y00407950D02*
X03694925Y00407950D01*
X03702667Y00395951D02*
X03534034Y00395951D01*
X03522036Y00383953D02*
X03686828Y00383953D01*
X03678892Y00371954D02*
X03510037Y00371954D01*
X03498039Y00359956D02*
X03674000Y00359956D01*
X03674000Y00347957D02*
X03486040Y00347957D01*
X03474042Y00335959D02*
X03675614Y00335959D01*
X03680584Y00323960D02*
X03462043Y00323960D01*
X03450045Y00311962D02*
X03690913Y00311962D01*
X03712530Y00299963D02*
X03438046Y00299963D01*
X03426048Y00287965D02*
X03799783Y00287965D01*
X03799000Y00299963D02*
X03737470Y00299963D01*
X03759086Y00311962D02*
X03799753Y00311962D01*
X03804723Y00323960D02*
X03769416Y00323960D01*
X03774386Y00335959D02*
X03813834Y00335959D01*
X03832510Y00347957D02*
X03776000Y00347957D01*
X03776000Y00359956D02*
X03817919Y00359956D01*
X03806415Y00371954D02*
X03771108Y00371954D01*
X03763172Y00383953D02*
X03801445Y00383953D01*
X03799000Y00395951D02*
X03747333Y00395951D01*
X03755075Y00407950D02*
X03799000Y00407950D01*
X03803061Y00419948D02*
X03767073Y00419948D01*
X03772724Y00431947D02*
X03809822Y00431947D01*
X03822824Y00443945D02*
X03776000Y00443945D01*
X03776000Y00455944D02*
X03823091Y00455944D01*
X03809933Y00467942D02*
X03772770Y00467942D01*
X03767184Y00479941D02*
X03803107Y00479941D01*
X03799000Y00491939D02*
X03755185Y00491939D01*
X03747066Y00503938D02*
X03799000Y00503938D01*
X03801399Y00515937D02*
X03763061Y00515937D01*
X03771062Y00527935D02*
X03806369Y00527935D01*
X03817809Y00539934D02*
X03776000Y00539934D01*
X03776000Y00551932D02*
X03832777Y00551932D01*
X03813944Y00563931D02*
X03774432Y00563931D01*
X03769462Y00575929D02*
X03804768Y00575929D01*
X03799798Y00587928D02*
X03759197Y00587928D01*
X03759050Y00611925D02*
X03799737Y00611925D01*
X03799000Y00599926D02*
X03737736Y00599926D01*
X03769400Y00623923D02*
X03804707Y00623923D01*
X03813797Y00635922D02*
X03774370Y00635922D01*
X03776000Y00647920D02*
X03832421Y00647920D01*
X03817956Y00659919D02*
X03776000Y00659919D01*
X03771124Y00671917D02*
X03806430Y00671917D01*
X03801460Y00683916D02*
X03763209Y00683916D01*
X03747422Y00695914D02*
X03799000Y00695914D01*
X03799000Y00707913D02*
X03755038Y00707913D01*
X03767036Y00719911D02*
X03803046Y00719911D01*
X03809785Y00731910D02*
X03772709Y00731910D01*
X03776000Y00743908D02*
X03822735Y00743908D01*
X03823180Y00755907D02*
X03776000Y00755907D01*
X03772785Y00767906D02*
X03809969Y00767906D01*
X03803122Y00779904D02*
X03767221Y00779904D01*
X03755222Y00791903D02*
X03799000Y00791903D01*
X03850000Y00800000D02*
X03910000Y00860000D01*
X03910000Y01120000D01*
X03880000Y01150000D01*
X03810000Y01150000D01*
X03800000Y01160000D01*
X03800000Y01215000D01*
X03755000Y01260000D01*
X03755000Y01290000D01*
X03730000Y01315000D01*
X03730000Y01765000D01*
X03665000Y01830000D01*
X03330000Y01830000D01*
X03305000Y01805000D01*
X03305000Y01770000D01*
X03285000Y01750000D01*
X03210000Y01750000D01*
X03200000Y01760000D01*
X03200000Y01840000D01*
X03175000Y01865000D01*
X03175000Y01900000D01*
X03150000Y01925000D01*
X02520000Y01925000D01*
X02445000Y01850000D01*
X01970000Y01850000D01*
X01955000Y01835000D01*
X01710000Y01835000D01*
X01615000Y01740000D01*
X01535000Y01740000D01*
X01493000Y01739786D02*
X01374812Y01739786D01*
X01368000Y01751784D02*
X01494421Y01751784D01*
X01499391Y01763783D02*
X01368000Y01763783D01*
X01368000Y01775781D02*
X01511633Y01775781D01*
X01558367Y01775781D02*
X01611184Y01775781D01*
X01623182Y01787780D02*
X01449256Y01787780D01*
X01420743Y01787780D02*
X01368000Y01787780D01*
X01368000Y01799779D02*
X01403876Y01799779D01*
X01397352Y01811777D02*
X01368000Y01811777D01*
X01368000Y01823776D02*
X01395157Y01823776D01*
X01396338Y01835774D02*
X01368000Y01835774D01*
X01368000Y01847773D02*
X01401427Y01847773D01*
X01414832Y01859771D02*
X01368000Y01859771D01*
X01368000Y01871770D02*
X01677172Y01871770D01*
X01665173Y01859771D02*
X01455168Y01859771D01*
X01435000Y01825000D02*
X01670000Y01825000D01*
X01700000Y01855000D01*
X01945000Y01855000D01*
X01960000Y01870000D01*
X02435000Y01870000D01*
X02510000Y01945000D01*
X03160000Y01945000D01*
X03195000Y01910000D01*
X03195000Y01880000D01*
X03225000Y01850000D01*
X03675000Y01850000D01*
X03750000Y01775000D01*
X03750000Y01325000D01*
X03775000Y01300000D01*
X03775000Y01270000D01*
X03845000Y01200000D01*
X03850000Y01200000D01*
X03835000Y01250000D02*
X03800000Y01285000D01*
X03800000Y01310000D01*
X03770000Y01340000D01*
X03770000Y01785000D01*
X03700000Y01855000D01*
X03700000Y01940000D01*
X03675000Y01965000D01*
X03410000Y01965000D01*
X03395000Y01950000D01*
X03200000Y01950000D01*
X03165000Y01985000D01*
X03160000Y01995000D01*
X03195000Y02030000D02*
X03215000Y02050000D01*
X03355000Y02050000D01*
X03415000Y01990000D01*
X03740000Y01990000D01*
X03800000Y01930000D01*
X03800000Y01800000D01*
X03790000Y01790000D01*
X03790000Y01360000D01*
X03850000Y01300000D01*
X03905000Y01255000D02*
X03950000Y01210000D01*
X03950000Y00500000D01*
X03850000Y00400000D01*
X03898555Y00383953D02*
X03991008Y00383953D01*
X03991008Y00395951D02*
X03901000Y00395951D01*
X03901000Y00407950D02*
X03991008Y00407950D01*
X03991008Y00419948D02*
X03909546Y00419948D01*
X03921545Y00431947D02*
X03991008Y00431947D01*
X03991008Y00443945D02*
X03933543Y00443945D01*
X03945542Y00455944D02*
X03991008Y00455944D01*
X03991008Y00467942D02*
X03957540Y00467942D01*
X03969539Y00479941D02*
X03991008Y00479941D01*
X03991008Y00491939D02*
X03976968Y00491939D01*
X03978000Y00503938D02*
X03991008Y00503938D01*
X03991008Y00515937D02*
X03978000Y00515937D01*
X03978000Y00527935D02*
X03991008Y00527935D01*
X03991008Y00539934D02*
X03978000Y00539934D01*
X03978000Y00551932D02*
X03991008Y00551932D01*
X03991008Y00563931D02*
X03978000Y00563931D01*
X03978000Y00575929D02*
X03991008Y00575929D01*
X03991008Y00587928D02*
X03978000Y00587928D01*
X03978000Y00599926D02*
X03991008Y00599926D01*
X03991008Y00611925D02*
X03978000Y00611925D01*
X03978000Y00623923D02*
X03991008Y00623923D01*
X03991008Y00635922D02*
X03978000Y00635922D01*
X03978000Y00647920D02*
X03991008Y00647920D01*
X03991008Y00659919D02*
X03978000Y00659919D01*
X03978000Y00671917D02*
X03991008Y00671917D01*
X03991008Y00683916D02*
X03978000Y00683916D01*
X03978000Y00695914D02*
X03991008Y00695914D01*
X03991008Y00707913D02*
X03978000Y00707913D01*
X03978000Y00719911D02*
X03991008Y00719911D01*
X03991008Y00731910D02*
X03978000Y00731910D01*
X03978000Y00743908D02*
X03991008Y00743908D01*
X03991008Y00755907D02*
X03978000Y00755907D01*
X03978000Y00767906D02*
X03991008Y00767906D01*
X03991008Y00779904D02*
X03978000Y00779904D01*
X03978000Y00791903D02*
X03991008Y00791903D01*
X03991008Y00803901D02*
X03978000Y00803901D01*
X03978000Y00815900D02*
X03991008Y00815900D01*
X03991008Y00827898D02*
X03978000Y00827898D01*
X03978000Y00839897D02*
X03991008Y00839897D01*
X03991008Y00851895D02*
X03978000Y00851895D01*
X03978000Y00863894D02*
X03991008Y00863894D01*
X03991008Y00875892D02*
X03978000Y00875892D01*
X03978000Y00887891D02*
X03991008Y00887891D01*
X03991008Y00899889D02*
X03978000Y00899889D01*
X03978000Y00911888D02*
X03991008Y00911888D01*
X03991008Y00923886D02*
X03978000Y00923886D01*
X03978000Y00935885D02*
X03991008Y00935885D01*
X03991008Y00947883D02*
X03978000Y00947883D01*
X03978000Y00959882D02*
X03991008Y00959882D01*
X03991008Y00971880D02*
X03978000Y00971880D01*
X03978000Y00983879D02*
X03991008Y00983879D01*
X03991008Y00995877D02*
X03978000Y00995877D01*
X03978000Y01007876D02*
X03991008Y01007876D01*
X03991008Y01019875D02*
X03978000Y01019875D01*
X03978000Y01031873D02*
X03991008Y01031873D01*
X03991008Y01043872D02*
X03978000Y01043872D01*
X03978000Y01055870D02*
X03991008Y01055870D01*
X03991008Y01067869D02*
X03978000Y01067869D01*
X03978000Y01079867D02*
X03991008Y01079867D01*
X03991008Y01091866D02*
X03978000Y01091866D01*
X03978000Y01103864D02*
X03991008Y01103864D01*
X03991008Y01115863D02*
X03978000Y01115863D01*
X03978000Y01127861D02*
X03991008Y01127861D01*
X03991008Y01139860D02*
X03978000Y01139860D01*
X03978000Y01151858D02*
X03991008Y01151858D01*
X03991008Y01163857D02*
X03978000Y01163857D01*
X03978000Y01175855D02*
X03991008Y01175855D01*
X03991008Y01187854D02*
X03978000Y01187854D01*
X03978000Y01199852D02*
X03991008Y01199852D01*
X03991008Y01211851D02*
X03978000Y01211851D01*
X03974570Y01223849D02*
X03991008Y01223849D01*
X03991008Y01235848D02*
X03963750Y01235848D01*
X03951751Y01247846D02*
X03991008Y01247846D01*
X03991008Y01259845D02*
X03939753Y01259845D01*
X03933000Y01271844D02*
X03991008Y01271844D01*
X03991008Y01283842D02*
X03933000Y01283842D01*
X03933000Y01295841D02*
X03991008Y01295841D01*
X03991008Y01307839D02*
X03933000Y01307839D01*
X03933000Y01319838D02*
X03991008Y01319838D01*
X03991008Y01331836D02*
X03933000Y01331836D01*
X03933000Y01343835D02*
X03991008Y01343835D01*
X03991008Y01355833D02*
X03933000Y01355833D01*
X03933000Y01367832D02*
X03991008Y01367832D01*
X03991008Y01379830D02*
X03933000Y01379830D01*
X03933000Y01391829D02*
X03991008Y01391829D01*
X03991008Y01403827D02*
X03933000Y01403827D01*
X03933000Y01415826D02*
X03991008Y01415826D01*
X03991008Y01427824D02*
X03933000Y01427824D01*
X03933000Y01439823D02*
X03991008Y01439823D01*
X03991008Y01451821D02*
X03933000Y01451821D01*
X03933000Y01463820D02*
X03991008Y01463820D01*
X03991008Y01475818D02*
X03933000Y01475818D01*
X03933000Y01487817D02*
X03991008Y01487817D01*
X03991008Y01499815D02*
X03933000Y01499815D01*
X03933000Y01511814D02*
X03991008Y01511814D01*
X03991008Y01523813D02*
X03933000Y01523813D01*
X03933000Y01535811D02*
X03991008Y01535811D01*
X03991008Y01547810D02*
X03933000Y01547810D01*
X03933000Y01559808D02*
X03991008Y01559808D01*
X03991008Y01571807D02*
X03933000Y01571807D01*
X03933000Y01583805D02*
X03991008Y01583805D01*
X03991008Y01595804D02*
X03933000Y01595804D01*
X03933000Y01607802D02*
X03991008Y01607802D01*
X03991008Y01619801D02*
X03933000Y01619801D01*
X03933000Y01631799D02*
X03991008Y01631799D01*
X03991008Y01643798D02*
X03933000Y01643798D01*
X03933000Y01655796D02*
X03991008Y01655796D01*
X03991008Y01667795D02*
X03933000Y01667795D01*
X03933000Y01679793D02*
X03991008Y01679793D01*
X03991008Y01691792D02*
X03933000Y01691792D01*
X03933000Y01703790D02*
X03991008Y01703790D01*
X03991008Y01715789D02*
X03933000Y01715789D01*
X03933000Y01727787D02*
X03991008Y01727787D01*
X03991008Y01739786D02*
X03933000Y01739786D01*
X03933000Y01751784D02*
X03991008Y01751784D01*
X03991008Y01763783D02*
X03933000Y01763783D01*
X03933000Y01775781D02*
X03991008Y01775781D01*
X03991008Y01787780D02*
X03933000Y01787780D01*
X03933000Y01799779D02*
X03991008Y01799779D01*
X03991008Y01811777D02*
X03933000Y01811777D01*
X03933000Y01823776D02*
X03991008Y01823776D01*
X03991008Y01835774D02*
X03933000Y01835774D01*
X03933000Y01847773D02*
X03991008Y01847773D01*
X03991008Y01859771D02*
X03933000Y01859771D01*
X03933000Y01871770D02*
X03991008Y01871770D01*
X03991008Y01883768D02*
X03933000Y01883768D01*
X03933000Y01895767D02*
X03991008Y01895767D01*
X03991008Y01907765D02*
X03933000Y01907765D01*
X03933000Y01919764D02*
X03991008Y01919764D01*
X03991008Y01931762D02*
X03932506Y01931762D01*
X03925837Y01943761D02*
X03991008Y01943761D01*
X03991008Y01955759D02*
X03913838Y01955759D01*
X03901840Y01967758D02*
X03991008Y01967758D01*
X03991008Y01979756D02*
X03896817Y01979756D01*
X03901000Y01991755D02*
X03991008Y01991755D01*
X03991008Y02003753D02*
X03901000Y02003753D01*
X03898677Y02015752D02*
X03991008Y02015752D01*
X03991008Y02027750D02*
X03893707Y02027750D01*
X03882376Y02039749D02*
X03991008Y02039749D01*
X03991008Y02051748D02*
X03866778Y02051748D01*
X03885871Y02063746D02*
X03991008Y02063746D01*
X03991008Y02075745D02*
X03895155Y02075745D01*
X03900125Y02087743D02*
X03991008Y02087743D01*
X03991008Y02099742D02*
X03901000Y02099742D01*
X03900339Y02111740D02*
X03991008Y02111740D01*
X03991008Y02123739D02*
X03895369Y02123739D01*
X03886388Y02135737D02*
X03991008Y02135737D01*
X03991008Y02147736D02*
X03868025Y02147736D01*
X03881859Y02159734D02*
X03991008Y02159734D01*
X03991008Y02171733D02*
X03893493Y02171733D01*
X03898463Y02183731D02*
X03991008Y02183731D01*
X03991008Y02195730D02*
X03901000Y02195730D01*
X03901000Y02207728D02*
X03991008Y02207728D01*
X03991008Y02219727D02*
X03897031Y02219727D01*
X03890399Y02231725D02*
X03991008Y02231725D01*
X03991008Y02243724D02*
X03877710Y02243724D01*
X03876374Y02255722D02*
X03991008Y02255722D01*
X03991008Y02267721D02*
X03889846Y02267721D01*
X03896801Y02279719D02*
X03991008Y02279719D01*
X03991008Y02291718D02*
X03901000Y02291718D01*
X03901000Y02303717D02*
X03991008Y02303717D01*
X03991008Y02315715D02*
X03898693Y02315715D01*
X03893723Y02327714D02*
X03991008Y02327714D01*
X03991008Y02339712D02*
X03882413Y02339712D01*
X03866688Y02351711D02*
X03991008Y02351711D01*
X03991008Y02363709D02*
X03885834Y02363709D01*
X03895140Y02375708D02*
X03991008Y02375708D01*
X03991008Y02387706D02*
X03900110Y02387706D01*
X03901000Y02399705D02*
X03991008Y02399705D01*
X03991008Y02411703D02*
X03900354Y02411703D01*
X03895384Y02423702D02*
X03991008Y02423702D01*
X03991008Y02435700D02*
X03886424Y02435700D01*
X03868114Y02447699D02*
X03991008Y02447699D01*
X03991008Y02459697D02*
X03728000Y02459697D01*
X03728000Y02447699D02*
X03831886Y02447699D01*
X03813575Y02435700D02*
X03728000Y02435700D01*
X03728000Y02423702D02*
X03804616Y02423702D01*
X03799646Y02411703D02*
X03728000Y02411703D01*
X03728000Y02399705D02*
X03799000Y02399705D01*
X03799890Y02387706D02*
X03728000Y02387706D01*
X03733890Y02375708D02*
X03804860Y02375708D01*
X03814166Y02363709D02*
X03745889Y02363709D01*
X03757887Y02351711D02*
X03833311Y02351711D01*
X03817587Y02339712D02*
X03769886Y02339712D01*
X03781884Y02327714D02*
X03806277Y02327714D01*
X03801307Y02315715D02*
X03790869Y02315715D01*
X03793000Y02303717D02*
X03799000Y02303717D01*
X03799000Y02291718D02*
X03793000Y02291718D01*
X03793000Y02279719D02*
X03803198Y02279719D01*
X03810154Y02267721D02*
X03793000Y02267721D01*
X03793000Y02255722D02*
X03823626Y02255722D01*
X03822290Y02243724D02*
X03793000Y02243724D01*
X03793000Y02231725D02*
X03809601Y02231725D01*
X03802969Y02219727D02*
X03793000Y02219727D01*
X03793000Y02207728D02*
X03799000Y02207728D01*
X03799000Y02195730D02*
X03793000Y02195730D01*
X03793000Y02183731D02*
X03801537Y02183731D01*
X03806507Y02171733D02*
X03793000Y02171733D01*
X03793000Y02159734D02*
X03818141Y02159734D01*
X03831975Y02147736D02*
X03793000Y02147736D01*
X03793000Y02135737D02*
X03813612Y02135737D01*
X03804631Y02123739D02*
X03793000Y02123739D01*
X03793000Y02111740D02*
X03799661Y02111740D01*
X03799000Y02099742D02*
X03793000Y02099742D01*
X03793000Y02087743D02*
X03799875Y02087743D01*
X03804845Y02075745D02*
X03793000Y02075745D01*
X03793000Y02063746D02*
X03814129Y02063746D01*
X03833222Y02051748D02*
X03791889Y02051748D01*
X03784347Y02039749D02*
X03817624Y02039749D01*
X03806293Y02027750D02*
X03772348Y02027750D01*
X03783846Y02015752D02*
X03801323Y02015752D01*
X03799000Y02003753D02*
X03795844Y02003753D01*
X03745000Y02015000D02*
X03810000Y01950000D01*
X03880000Y01950000D01*
X03905000Y01925000D01*
X03905000Y01255000D01*
X03880000Y01250000D02*
X03835000Y01250000D01*
X03880000Y01250000D02*
X03930000Y01200000D01*
X03930000Y00780000D01*
X03850000Y00700000D01*
X03667809Y00875892D02*
X03295216Y00875892D01*
X03293236Y00871111D02*
X03301000Y00889855D01*
X03301000Y00910145D01*
X03293236Y00928889D01*
X03278889Y00943236D01*
X03262558Y00950000D01*
X03278889Y00956764D01*
X03293236Y00971111D01*
X03301000Y00989855D01*
X03301000Y01010145D01*
X03293236Y01028889D01*
X03278889Y01043236D01*
X03262558Y01050000D01*
X03278889Y01056764D01*
X03282000Y01059875D01*
X03282000Y01049430D01*
X03286263Y01039139D01*
X03294139Y01031263D01*
X03294139Y01031263D01*
X03386263Y00939139D01*
X03394139Y00931263D01*
X03404430Y00927000D01*
X03406654Y00927000D01*
X03412431Y00921223D01*
X03427075Y00915157D01*
X03442925Y00915157D01*
X03457569Y00921223D01*
X03468777Y00932431D01*
X03474842Y00947075D01*
X03474842Y00962925D01*
X03468777Y00977569D01*
X03464345Y00982000D01*
X03571654Y00982000D01*
X03577431Y00976223D01*
X03592075Y00970157D01*
X03607925Y00970157D01*
X03622569Y00976223D01*
X03633777Y00987431D01*
X03639842Y01002075D01*
X03639842Y01017000D01*
X03640188Y01017000D01*
X03646223Y01002431D01*
X03657431Y00991223D01*
X03672075Y00985157D01*
X03687925Y00985157D01*
X03702569Y00991223D01*
X03713777Y01002431D01*
X03718378Y01013539D01*
X03731000Y01000917D01*
X03731000Y00939083D01*
X03605741Y00813824D01*
X03596176Y00804259D01*
X03591000Y00791763D01*
X03591000Y00647030D01*
X03585157Y00632925D01*
X03585157Y00617075D01*
X03591000Y00602970D01*
X03591000Y00549083D01*
X03380917Y00339000D01*
X03283125Y00339000D01*
X03278889Y00343236D01*
X03262558Y00350000D01*
X03278889Y00356764D01*
X03293236Y00371111D01*
X03300000Y00387441D01*
X03306764Y00371111D01*
X03321111Y00356764D01*
X03339855Y00349000D01*
X03360145Y00349000D01*
X03378889Y00356764D01*
X03393236Y00371111D01*
X03401000Y00389855D01*
X03401000Y00410145D01*
X03393236Y00428889D01*
X03378889Y00443236D01*
X03362558Y00450000D01*
X03378889Y00456764D01*
X03393236Y00471111D01*
X03401000Y00489855D01*
X03401000Y00510145D01*
X03393236Y00528889D01*
X03378889Y00543236D01*
X03362558Y00550000D01*
X03378889Y00556764D01*
X03393236Y00571111D01*
X03401000Y00589855D01*
X03401000Y00610145D01*
X03393236Y00628889D01*
X03378889Y00643236D01*
X03360145Y00651000D01*
X03339855Y00651000D01*
X03321111Y00643236D01*
X03306764Y00628889D01*
X03300000Y00612558D01*
X03293236Y00628889D01*
X03278889Y00643236D01*
X03262558Y00650000D01*
X03278889Y00656764D01*
X03293236Y00671111D01*
X03301000Y00689855D01*
X03301000Y00710145D01*
X03293236Y00728889D01*
X03278889Y00743236D01*
X03262558Y00750000D01*
X03278889Y00756764D01*
X03293236Y00771111D01*
X03301000Y00789855D01*
X03301000Y00810145D01*
X03293236Y00828889D01*
X03278889Y00843236D01*
X03262558Y00850000D01*
X03278889Y00856764D01*
X03293236Y00871111D01*
X03286019Y00863894D02*
X03655811Y00863894D01*
X03643812Y00851895D02*
X03267134Y00851895D01*
X03282228Y00839897D02*
X03631813Y00839897D01*
X03619815Y00827898D02*
X03293646Y00827898D01*
X03298616Y00815900D02*
X03607816Y00815900D01*
X03596028Y00803901D02*
X03301000Y00803901D01*
X03301000Y00791903D02*
X03591058Y00791903D01*
X03591000Y00779904D02*
X03296878Y00779904D01*
X03290030Y00767906D02*
X03591000Y00767906D01*
X03591000Y00755907D02*
X03276819Y00755907D01*
X03277265Y00743908D02*
X03591000Y00743908D01*
X03591000Y00731910D02*
X03290215Y00731910D01*
X03296954Y00719911D02*
X03591000Y00719911D01*
X03591000Y00707913D02*
X03301000Y00707913D01*
X03301000Y00695914D02*
X03591000Y00695914D01*
X03591000Y00683916D02*
X03298540Y00683916D01*
X03293570Y00671917D02*
X03591000Y00671917D01*
X03591000Y00659919D02*
X03282044Y00659919D01*
X03267579Y00647920D02*
X03332421Y00647920D01*
X03313797Y00635922D02*
X03286203Y00635922D01*
X03295293Y00623923D02*
X03304707Y00623923D01*
X03367579Y00647920D02*
X03591000Y00647920D01*
X03586399Y00635922D02*
X03386203Y00635922D01*
X03395293Y00623923D02*
X03585157Y00623923D01*
X03587291Y00611925D02*
X03400263Y00611925D01*
X03401000Y00599926D02*
X03591000Y00599926D01*
X03591000Y00587928D02*
X03400201Y00587928D01*
X03395231Y00575929D02*
X03591000Y00575929D01*
X03591000Y00563931D02*
X03386055Y00563931D01*
X03367223Y00551932D02*
X03591000Y00551932D01*
X03581850Y00539934D02*
X03382191Y00539934D01*
X03393631Y00527935D02*
X03569852Y00527935D01*
X03557853Y00515937D02*
X03398601Y00515937D01*
X03401000Y00503938D02*
X03545855Y00503938D01*
X03533856Y00491939D02*
X03401000Y00491939D01*
X03396893Y00479941D02*
X03521858Y00479941D01*
X03509859Y00467942D02*
X03390067Y00467942D01*
X03376909Y00455944D02*
X03497861Y00455944D01*
X03485862Y00443945D02*
X03377176Y00443945D01*
X03390178Y00431947D02*
X03473864Y00431947D01*
X03461865Y00419948D02*
X03396939Y00419948D01*
X03401000Y00407950D02*
X03449867Y00407950D01*
X03437868Y00395951D02*
X03401000Y00395951D01*
X03398555Y00383953D02*
X03425870Y00383953D01*
X03413871Y00371954D02*
X03393585Y00371954D01*
X03401873Y00359956D02*
X03382081Y00359956D01*
X03389874Y00347957D02*
X03267490Y00347957D01*
X03282081Y00359956D02*
X03317919Y00359956D01*
X03306415Y00371954D02*
X03293585Y00371954D01*
X03298555Y00383953D02*
X03301445Y00383953D01*
X03250000Y00400000D02*
X03180000Y00400000D01*
X03150000Y00430000D01*
X03150000Y00700000D01*
X03105000Y00745000D01*
X03105244Y00705157D02*
X03122000Y00688402D01*
X03122000Y00424430D01*
X03126263Y00414139D01*
X03134139Y00406263D01*
X03164139Y00376263D01*
X03174430Y00372000D01*
X03206396Y00372000D01*
X03206764Y00371111D01*
X03221111Y00356764D01*
X03237441Y00350000D01*
X03221111Y00343236D01*
X03211875Y00334000D01*
X03083237Y00334000D01*
X03070741Y00328824D01*
X02995000Y00253083D01*
X02959259Y00288824D01*
X02946763Y00294000D01*
X02882030Y00294000D01*
X02867925Y00299842D01*
X02852075Y00299842D01*
X02837431Y00293777D01*
X02826223Y00282569D01*
X02823530Y00276068D01*
X02765861Y00333737D01*
X02755570Y00338000D01*
X02651397Y00338000D01*
X02643791Y00345606D01*
X02628354Y00352000D01*
X02611646Y00352000D01*
X02596209Y00345606D01*
X02584394Y00333791D01*
X02578000Y00318354D01*
X02578000Y00301646D01*
X02584394Y00286209D01*
X02596209Y00274394D01*
X02611646Y00268000D01*
X02628354Y00268000D01*
X02643791Y00274394D01*
X02651397Y00282000D01*
X02738402Y00282000D01*
X02835157Y00185244D01*
X02835157Y00177075D01*
X02841223Y00162431D01*
X02852431Y00151223D01*
X02867075Y00145157D01*
X02882925Y00145157D01*
X02890008Y00148092D01*
X02885917Y00144000D01*
X02661557Y00144000D01*
X02666811Y00156683D01*
X02666811Y00173317D01*
X02660446Y00188684D01*
X02648684Y00200446D01*
X02633317Y00206811D01*
X02616683Y00206811D01*
X02601316Y00200446D01*
X02593870Y00193000D01*
X02526598Y00193000D01*
X02508000Y00211598D01*
X02508000Y00280570D01*
X02503737Y00290861D01*
X02479842Y00314755D01*
X02479842Y00322925D01*
X02473777Y00337569D01*
X02462569Y00348777D01*
X02447925Y00354842D01*
X02432075Y00354842D01*
X02417431Y00348777D01*
X02406223Y00337569D01*
X02400157Y00322925D01*
X02400157Y00307075D01*
X02406223Y00292431D01*
X02417431Y00281223D01*
X02432075Y00275157D01*
X02440244Y00275157D01*
X02452000Y00263402D01*
X02452000Y00194430D01*
X02456263Y00184139D01*
X02464139Y00176263D01*
X02496402Y00144000D01*
X02229000Y00144000D01*
X02229000Y00321763D01*
X02223824Y00334259D01*
X01974619Y00583464D01*
X01969012Y00597000D01*
X03020570Y00597000D01*
X03030861Y00601263D01*
X03080861Y00651263D01*
X03088737Y00659139D01*
X03093000Y00669430D01*
X03093000Y00706845D01*
X03097075Y00705157D01*
X03105244Y00705157D01*
X03114488Y00695914D02*
X03093000Y00695914D01*
X03093000Y00683916D02*
X03122000Y00683916D01*
X03122000Y00671917D02*
X03093000Y00671917D01*
X03089060Y00659919D02*
X03122000Y00659919D01*
X03122000Y00647920D02*
X03077518Y00647920D01*
X03065520Y00635922D02*
X03122000Y00635922D01*
X03122000Y00623923D02*
X03053521Y00623923D01*
X03041523Y00611925D02*
X03122000Y00611925D01*
X03122000Y00599926D02*
X03027634Y00599926D01*
X03015000Y00625000D02*
X03065000Y00675000D01*
X03065000Y00755000D01*
X03095000Y00785000D01*
X03155000Y00785000D01*
X03180000Y00810000D01*
X03180000Y01210000D01*
X03245000Y01275000D01*
X03245000Y01295000D01*
X03250000Y01300000D01*
X03195000Y01290000D02*
X03195000Y01645000D01*
X03175000Y01665000D01*
X03175000Y01705000D01*
X03165000Y01715000D01*
X03130000Y01715000D01*
X03125000Y01710000D01*
X03140000Y01665000D02*
X03120000Y01645000D01*
X03025000Y01645000D01*
X02910000Y01530000D01*
X02515000Y01530000D01*
X02480000Y01495000D01*
X02443839Y01511814D02*
X02401412Y01511814D01*
X02389413Y01499815D02*
X02440157Y01499815D01*
X02440157Y01487817D02*
X02377415Y01487817D01*
X02365416Y01475818D02*
X02444820Y01475818D01*
X02454834Y01463820D02*
X02353418Y01463820D01*
X02341419Y01451821D02*
X02632224Y01451821D01*
X02644222Y01463820D02*
X02505166Y01463820D01*
X02515180Y01475818D02*
X02656221Y01475818D01*
X02668219Y01487817D02*
X02519842Y01487817D01*
X02524413Y01499815D02*
X02680218Y01499815D01*
X02730000Y01510000D02*
X03105000Y01510000D01*
X03125000Y01490000D01*
X03162251Y01475818D02*
X03167000Y01475818D01*
X03167000Y01463820D02*
X03155166Y01463820D01*
X03167000Y01451821D02*
X03136942Y01451821D01*
X03113058Y01451821D02*
X02711419Y01451821D01*
X02699421Y01439823D02*
X03167000Y01439823D01*
X03167000Y01427824D02*
X02687422Y01427824D01*
X02675424Y01415826D02*
X03167000Y01415826D01*
X03167000Y01403827D02*
X02663425Y01403827D01*
X02651427Y01391829D02*
X03167000Y01391829D01*
X03167000Y01379830D02*
X02639428Y01379830D01*
X02620000Y01400000D02*
X02730000Y01510000D01*
X02735416Y01475818D02*
X03087749Y01475818D01*
X03094834Y01463820D02*
X02723418Y01463820D01*
X02620225Y01439823D02*
X02497972Y01439823D01*
X02482028Y01439823D02*
X02329421Y01439823D01*
X02317422Y01427824D02*
X02461479Y01427824D01*
X02453430Y01415826D02*
X02305424Y01415826D01*
X02293425Y01403827D02*
X02450157Y01403827D01*
X02450259Y01391829D02*
X02281427Y01391829D01*
X02269428Y01379830D02*
X02455229Y01379830D01*
X02465822Y01367832D02*
X02257430Y01367832D01*
X02245431Y01355833D02*
X03167000Y01355833D01*
X03167000Y01343835D02*
X02233433Y01343835D01*
X02221434Y01331836D02*
X03167000Y01331836D01*
X03167000Y01319838D02*
X03035008Y01319838D01*
X02994992Y01319838D02*
X02209436Y01319838D01*
X02197437Y01307839D02*
X02981493Y01307839D01*
X02976365Y01295841D02*
X02185438Y01295841D01*
X02173440Y01283842D02*
X02975157Y01283842D01*
X02977324Y01271844D02*
X02845165Y01271844D01*
X02837925Y01274842D02*
X02822075Y01274842D01*
X02807431Y01268777D01*
X02796223Y01257569D01*
X02790157Y01242925D01*
X02790157Y01229755D01*
X02788402Y01228000D01*
X02278346Y01228000D01*
X02272569Y01233777D01*
X02257925Y01239842D01*
X02242075Y01239842D01*
X02227431Y01233777D01*
X02216223Y01222569D01*
X02210157Y01207925D01*
X02210157Y01192075D01*
X02216223Y01177431D01*
X02227431Y01166223D01*
X02242075Y01160157D01*
X02257925Y01160157D01*
X02272569Y01166223D01*
X02278346Y01172000D01*
X02805570Y01172000D01*
X02815861Y01176263D01*
X02823737Y01184139D01*
X02823737Y01184139D01*
X02834755Y01195157D01*
X02837925Y01195157D01*
X02852569Y01201223D01*
X02863777Y01212431D01*
X02869842Y01227075D01*
X02869842Y01242925D01*
X02863777Y01257569D01*
X02852569Y01268777D01*
X02837925Y01274842D01*
X02814835Y01271844D02*
X02161441Y01271844D01*
X02149443Y01259845D02*
X02798499Y01259845D01*
X02792196Y01247846D02*
X02137444Y01247846D01*
X02125446Y01235848D02*
X02232431Y01235848D01*
X02217504Y01223849D02*
X02113447Y01223849D01*
X02101449Y01211851D02*
X02211784Y01211851D01*
X02210157Y01199852D02*
X02089450Y01199852D01*
X02070000Y01220000D02*
X02400000Y01550000D01*
X02900000Y01550000D01*
X03075000Y01725000D01*
X03040000Y01720000D02*
X03040000Y01760000D01*
X03050000Y01770000D01*
X03020000Y01750000D02*
X03010000Y01760000D01*
X03010000Y01800000D01*
X03025000Y01815000D01*
X02990000Y01810000D02*
X02975000Y01825000D01*
X02990000Y01810000D02*
X02990000Y01730000D01*
X02870000Y01610000D01*
X02370000Y01610000D01*
X02040000Y01280000D01*
X01955000Y01280000D01*
X01935000Y01300000D01*
X01860000Y01300000D01*
X01815000Y01255000D01*
X01365000Y01255000D01*
X01280000Y01170000D01*
X01280000Y01105000D01*
X01319842Y01103864D02*
X01695282Y01103864D01*
X01693000Y01091866D02*
X01317685Y01091866D01*
X01311213Y01079867D02*
X01693737Y01079867D01*
X01698707Y01067869D02*
X01683477Y01067869D01*
X01694480Y01055870D02*
X01709733Y01055870D01*
X01699450Y01043872D02*
X03120000Y01043872D01*
X03120000Y01055870D02*
X01760267Y01055870D01*
X01771293Y01067869D02*
X03120000Y01067869D01*
X03120000Y01079867D02*
X01776263Y01079867D01*
X01777000Y01091866D02*
X03120000Y01091866D01*
X03120000Y01103864D02*
X01774718Y01103864D01*
X01775461Y01115863D02*
X03120000Y01115863D01*
X03120000Y01127861D02*
X01787459Y01127861D01*
X01799458Y01139860D02*
X03120000Y01139860D01*
X03120000Y01151858D02*
X01811456Y01151858D01*
X01823455Y01163857D02*
X02233144Y01163857D01*
X02217799Y01175855D02*
X01835453Y01175855D01*
X01847452Y01187854D02*
X01870800Y01187854D01*
X01860220Y01199852D02*
X01859450Y01199852D01*
X01895000Y01220000D02*
X02070000Y01220000D01*
X02060000Y01240000D02*
X02390000Y01570000D01*
X02890000Y01570000D01*
X03040000Y01720000D01*
X03020000Y01730000D02*
X03020000Y01750000D01*
X03020000Y01730000D02*
X02880000Y01590000D01*
X02380000Y01590000D01*
X02050000Y01260000D01*
X01945000Y01260000D01*
X01925000Y01280000D01*
X01870000Y01280000D01*
X01825000Y01235000D01*
X01405000Y01235000D01*
X01385000Y01215000D01*
X01421851Y01199852D02*
X01780255Y01199852D01*
X01768256Y01187854D02*
X01414200Y01187854D01*
X01394610Y01175855D02*
X01756258Y01175855D01*
X01744259Y01163857D02*
X01313455Y01163857D01*
X01308000Y01151858D02*
X01732260Y01151858D01*
X01720262Y01139860D02*
X01308000Y01139860D01*
X01313484Y01127861D02*
X01710020Y01127861D01*
X01701466Y01115863D02*
X01318626Y01115863D01*
X01325453Y01175855D02*
X01375390Y01175855D01*
X01355800Y01187854D02*
X01337452Y01187854D01*
X01270247Y01259845D02*
X01123000Y01259845D01*
X01123000Y01271844D02*
X01282246Y01271844D01*
X01294244Y01283842D02*
X01123000Y01283842D01*
X01123000Y01295841D02*
X01306243Y01295841D01*
X01318241Y01307839D02*
X01123000Y01307839D01*
X01123000Y01319838D02*
X01331796Y01319838D01*
X01329139Y01318737D02*
X01173402Y01163000D01*
X01133154Y01163000D01*
X01134842Y01167075D01*
X01134842Y01182925D01*
X01128777Y01197569D01*
X01123000Y01203346D01*
X01123000Y01461025D01*
X01123444Y01462556D01*
X01123000Y01466551D01*
X01123000Y01470570D01*
X01122390Y01472043D01*
X01122214Y01473628D01*
X01120275Y01477148D01*
X01118737Y01480861D01*
X01117609Y01481988D01*
X01116840Y01483385D01*
X01113702Y01485895D01*
X01110861Y01488737D01*
X01109387Y01489347D01*
X01098000Y01498457D01*
X01098000Y01565157D01*
X01111000Y01565157D01*
X01111000Y01523237D01*
X01116176Y01510741D01*
X01125741Y01501176D01*
X01201176Y01425741D01*
X01201176Y01425741D01*
X01210741Y01416176D01*
X01223237Y01411000D01*
X01435917Y01411000D01*
X01482917Y01364000D01*
X01427326Y01364000D01*
X01423777Y01372569D01*
X01412569Y01383777D01*
X01397925Y01389842D01*
X01382075Y01389842D01*
X01367431Y01383777D01*
X01356223Y01372569D01*
X01350157Y01357925D01*
X01350157Y01342075D01*
X01356223Y01327431D01*
X01360654Y01323000D01*
X01339430Y01323000D01*
X01329139Y01318737D01*
X01354398Y01331836D02*
X01123000Y01331836D01*
X01123000Y01343835D02*
X01350157Y01343835D01*
X01350157Y01355833D02*
X01123000Y01355833D01*
X01123000Y01367832D02*
X01354261Y01367832D01*
X01363484Y01379830D02*
X01123000Y01379830D01*
X01123000Y01391829D02*
X01455088Y01391829D01*
X01443089Y01403827D02*
X01123000Y01403827D01*
X01123000Y01415826D02*
X01211586Y01415826D01*
X01199093Y01427824D02*
X01123000Y01427824D01*
X01123000Y01439823D02*
X01187094Y01439823D01*
X01175095Y01451821D02*
X01123000Y01451821D01*
X01123303Y01463820D02*
X01163097Y01463820D01*
X01151098Y01475818D02*
X01121007Y01475818D01*
X01111781Y01487817D02*
X01139100Y01487817D01*
X01127101Y01499815D02*
X01098000Y01499815D01*
X01098000Y01511814D02*
X01115731Y01511814D01*
X01111000Y01523813D02*
X01098000Y01523813D01*
X01098000Y01535811D02*
X01111000Y01535811D01*
X01111000Y01547810D02*
X01098000Y01547810D01*
X01098000Y01559808D02*
X01111000Y01559808D01*
X01125741Y01501176D02*
X01125741Y01501176D01*
X01095000Y01465000D02*
X01070000Y01485000D01*
X01070000Y01975000D01*
X01065000Y01980000D01*
X01025157Y01979756D02*
X00549000Y01979756D01*
X00549000Y01967758D02*
X01026945Y01967758D01*
X01032895Y01955759D02*
X00549000Y01955759D01*
X00549000Y01943761D02*
X01042000Y01943761D01*
X01042000Y01931762D02*
X00549000Y01931762D01*
X00549000Y01919764D02*
X01042000Y01919764D01*
X01042000Y01907765D02*
X00549000Y01907765D01*
X00549000Y01895767D02*
X01042000Y01895767D01*
X01042000Y01883768D02*
X00549000Y01883768D01*
X00549000Y01871770D02*
X01042000Y01871770D01*
X01042000Y01859771D02*
X00549000Y01859771D01*
X00549000Y01847773D02*
X01042000Y01847773D01*
X01042000Y01835774D02*
X00549000Y01835774D01*
X00549000Y01823776D02*
X01042000Y01823776D01*
X01042000Y01811777D02*
X00549000Y01811777D01*
X00549000Y01799779D02*
X01042000Y01799779D01*
X01042000Y01787780D02*
X00549000Y01787780D01*
X00549000Y01775781D02*
X01042000Y01775781D01*
X01042000Y01763783D02*
X00549000Y01763783D01*
X00549000Y01751784D02*
X01042000Y01751784D01*
X01042000Y01739786D02*
X00549000Y01739786D01*
X00549000Y01727787D02*
X01042000Y01727787D01*
X01042000Y01715789D02*
X00549000Y01715789D01*
X00549000Y01703790D02*
X01042000Y01703790D01*
X01042000Y01691792D02*
X00556291Y01691792D01*
X00568290Y01679793D02*
X01042000Y01679793D01*
X01042000Y01667795D02*
X00580288Y01667795D01*
X00592287Y01655796D02*
X01042000Y01655796D01*
X01042000Y01643798D02*
X00604285Y01643798D01*
X00616284Y01631799D02*
X01042000Y01631799D01*
X01042000Y01619801D02*
X00628282Y01619801D01*
X00640281Y01607802D02*
X01042000Y01607802D01*
X01042000Y01595804D02*
X00652279Y01595804D01*
X00664278Y01583805D02*
X01042000Y01583805D01*
X01042000Y01571807D02*
X00908576Y01571807D01*
X00904498Y01573496D02*
X00885502Y01573496D01*
X00867953Y01566227D01*
X00854521Y01552795D01*
X00847252Y01535246D01*
X00847252Y01464754D01*
X00854521Y01447205D01*
X00867953Y01433773D01*
X00885502Y01426504D01*
X00904498Y01426504D01*
X00922047Y01433773D01*
X00935479Y01447205D01*
X00942748Y01464754D01*
X00942748Y01535246D01*
X00935479Y01552795D01*
X00922047Y01566227D01*
X00904498Y01573496D01*
X00881424Y01571807D02*
X00708576Y01571807D01*
X00728466Y01559808D02*
X00770854Y01559808D01*
X00773119Y01561454D02*
X00767803Y01557592D01*
X00763156Y01552945D01*
X00759294Y01547629D01*
X00756311Y01541774D01*
X00754280Y01535524D01*
X00753252Y01529034D01*
X00753252Y01501874D01*
X00793125Y01501874D01*
X00793125Y01498126D01*
X00753252Y01498126D01*
X00753252Y01470966D01*
X00754280Y01464476D01*
X00756311Y01458226D01*
X00759294Y01452371D01*
X00763156Y01447055D01*
X00767803Y01442408D01*
X00773119Y01438546D01*
X00778974Y01435563D01*
X00785224Y01433532D01*
X00791714Y01432504D01*
X00793126Y01432504D01*
X00793126Y01498125D01*
X00796874Y01498125D01*
X00796874Y01432504D01*
X00798286Y01432504D01*
X00804776Y01433532D01*
X00811026Y01435563D01*
X00816881Y01438546D01*
X00822197Y01442408D01*
X00826844Y01447055D01*
X00830706Y01452371D01*
X00833689Y01458226D01*
X00835720Y01464476D01*
X00836748Y01470966D01*
X00836748Y01498126D01*
X00796875Y01498126D01*
X00796875Y01501874D01*
X00836748Y01501874D01*
X00836748Y01529034D01*
X00835720Y01535524D01*
X00833689Y01541774D01*
X00830706Y01547629D01*
X00826844Y01552945D01*
X00822197Y01557592D01*
X00816881Y01561454D01*
X00811026Y01564437D01*
X00804776Y01566468D01*
X00798286Y01567496D01*
X00796874Y01567496D01*
X00796874Y01501875D01*
X00793126Y01501875D01*
X00793126Y01567496D01*
X00791714Y01567496D01*
X00785224Y01566468D01*
X00778974Y01564437D01*
X00773119Y01561454D01*
X00759425Y01547810D02*
X00737544Y01547810D01*
X00742514Y01535811D02*
X00754373Y01535811D01*
X00753252Y01523813D02*
X00742748Y01523813D01*
X00742748Y01511814D02*
X00753252Y01511814D01*
X00742748Y01499815D02*
X00793125Y01499815D01*
X00796875Y01499815D02*
X00847252Y01499815D01*
X00847252Y01487817D02*
X00836748Y01487817D01*
X00836748Y01475818D02*
X00847252Y01475818D01*
X00847639Y01463820D02*
X00835507Y01463820D01*
X00830306Y01451821D02*
X00852609Y01451821D01*
X00861903Y01439823D02*
X00818638Y01439823D01*
X00796874Y01439823D02*
X00793126Y01439823D01*
X00793126Y01451821D02*
X00796874Y01451821D01*
X00796874Y01463820D02*
X00793126Y01463820D01*
X00793126Y01475818D02*
X00796874Y01475818D01*
X00796874Y01487817D02*
X00793126Y01487817D01*
X00793126Y01511814D02*
X00796874Y01511814D01*
X00796874Y01523813D02*
X00793126Y01523813D01*
X00793126Y01535811D02*
X00796874Y01535811D01*
X00796874Y01547810D02*
X00793126Y01547810D01*
X00793126Y01559808D02*
X00796874Y01559808D01*
X00819146Y01559808D02*
X00861534Y01559808D01*
X00852456Y01547810D02*
X00830575Y01547810D01*
X00835627Y01535811D02*
X00847486Y01535811D01*
X00847252Y01523813D02*
X00836748Y01523813D01*
X00836748Y01511814D02*
X00847252Y01511814D01*
X00928466Y01559808D02*
X01042000Y01559808D01*
X01042000Y01547810D02*
X00937544Y01547810D01*
X00942514Y01535811D02*
X01042000Y01535811D01*
X01042000Y01523813D02*
X00942748Y01523813D01*
X00942748Y01511814D02*
X01042000Y01511814D01*
X01042000Y01499815D02*
X00942748Y01499815D01*
X00942748Y01487817D02*
X01041664Y01487817D01*
X01043091Y01475818D02*
X00942748Y01475818D01*
X00942361Y01463820D02*
X01051582Y01463820D01*
X01066651Y01451821D02*
X00937391Y01451821D01*
X00928097Y01439823D02*
X01067000Y01439823D01*
X01067000Y01427824D02*
X00907685Y01427824D01*
X00882314Y01427824D02*
X00707685Y01427824D01*
X00728097Y01439823D02*
X00771362Y01439823D01*
X00759693Y01451821D02*
X00737391Y01451821D01*
X00742361Y01463820D02*
X00754493Y01463820D01*
X00753252Y01475818D02*
X00742748Y01475818D01*
X00742748Y01487817D02*
X00753252Y01487817D01*
X00682314Y01427824D02*
X00607685Y01427824D01*
X00628097Y01439823D02*
X00661903Y01439823D01*
X00652609Y01451821D02*
X00637391Y01451821D01*
X00642361Y01463820D02*
X00647639Y01463820D01*
X00647252Y01475818D02*
X00642748Y01475818D01*
X00642748Y01487817D02*
X00647252Y01487817D01*
X00647252Y01499815D02*
X00642748Y01499815D01*
X00676276Y01571807D02*
X00681424Y01571807D01*
X00561903Y01439823D02*
X00528097Y01439823D01*
X00537391Y01451821D02*
X00552609Y01451821D01*
X00547639Y01463820D02*
X00542361Y01463820D01*
X00542748Y01475818D02*
X00547252Y01475818D01*
X00547252Y01487817D02*
X00542748Y01487817D01*
X00542748Y01499815D02*
X00547252Y01499815D01*
X00547252Y01511814D02*
X00542748Y01511814D01*
X00542748Y01523813D02*
X00543104Y01523813D01*
X00452456Y01547810D02*
X00437544Y01547810D01*
X00442514Y01535811D02*
X00447486Y01535811D01*
X00447252Y01523813D02*
X00442748Y01523813D01*
X00442748Y01511814D02*
X00447252Y01511814D01*
X00447252Y01499815D02*
X00442748Y01499815D01*
X00442748Y01487817D02*
X00447252Y01487817D01*
X00447252Y01475818D02*
X00442748Y01475818D01*
X00442361Y01463820D02*
X00447639Y01463820D01*
X00452609Y01451821D02*
X00437391Y01451821D01*
X00428097Y01439823D02*
X00461903Y01439823D01*
X00482314Y01427824D02*
X00407685Y01427824D01*
X00382314Y01427824D02*
X00307685Y01427824D01*
X00304498Y01426504D02*
X00322047Y01433773D01*
X00335479Y01447205D01*
X00342748Y01464754D01*
X00342748Y01535246D01*
X00335479Y01552795D01*
X00322047Y01566227D01*
X00304498Y01573496D01*
X00285502Y01573496D01*
X00267953Y01566227D01*
X00254521Y01552795D01*
X00247252Y01535246D01*
X00247252Y01464754D01*
X00254521Y01447205D01*
X00267953Y01433773D01*
X00285502Y01426504D01*
X00304498Y01426504D01*
X00282314Y01427824D02*
X00140000Y01427824D01*
X00140000Y01415826D02*
X01067000Y01415826D01*
X01067000Y01403827D02*
X00140000Y01403827D01*
X00140000Y01391829D02*
X01067000Y01391829D01*
X01067000Y01379830D02*
X00140000Y01379830D01*
X00140000Y01367832D02*
X01067000Y01367832D01*
X01067000Y01355833D02*
X00140000Y01355833D01*
X00140000Y01343835D02*
X01067000Y01343835D01*
X01067000Y01331836D02*
X00140000Y01331836D01*
X00140000Y01319838D02*
X01067000Y01319838D01*
X01067000Y01307839D02*
X00140000Y01307839D01*
X00140000Y01295841D02*
X01067000Y01295841D01*
X01067000Y01283842D02*
X00140000Y01283842D01*
X00140000Y01271844D02*
X01067000Y01271844D01*
X01067000Y01259845D02*
X00140000Y01259845D01*
X00140000Y01247846D02*
X01067000Y01247846D01*
X01067000Y01235848D02*
X00140000Y01235848D01*
X00140000Y01223849D02*
X01067000Y01223849D01*
X01067000Y01211851D02*
X00140000Y01211851D01*
X00140000Y01199852D02*
X01063507Y01199852D01*
X01057199Y01187854D02*
X00140000Y01187854D01*
X00140000Y01175855D02*
X01055157Y01175855D01*
X01056490Y01163857D02*
X00140000Y01163857D01*
X00140000Y01151858D02*
X00297260Y01151858D01*
X00285262Y01139860D02*
X00140000Y01139860D01*
X00140000Y01127861D02*
X00273263Y01127861D01*
X00261265Y01115863D02*
X00140000Y01115863D01*
X00140000Y01103864D02*
X00249266Y01103864D01*
X00237268Y01091866D02*
X00140000Y01091866D01*
X00140000Y01079867D02*
X00225269Y01079867D01*
X00295000Y01035000D02*
X00375000Y01115000D01*
X00320000Y01135000D02*
X01185000Y01135000D01*
X01345000Y01295000D01*
X01795000Y01295000D01*
X01840000Y01340000D01*
X01955000Y01340000D01*
X01975000Y01320000D01*
X02020000Y01320000D01*
X02350000Y01650000D01*
X02850000Y01650000D01*
X02925000Y01725000D01*
X02925000Y01740000D01*
X02888924Y01739786D02*
X02134384Y01739786D01*
X02146382Y01751784D02*
X02887000Y01751784D01*
X02888189Y01727787D02*
X01836810Y01727787D01*
X01848809Y01715789D02*
X02876191Y01715789D01*
X02864192Y01703790D02*
X01860807Y01703790D01*
X01872806Y01691792D02*
X02852194Y01691792D01*
X02840195Y01679793D02*
X01884805Y01679793D01*
X01896803Y01667795D02*
X02328197Y01667795D01*
X02316198Y01655796D02*
X01908802Y01655796D01*
X01920800Y01643798D02*
X02304200Y01643798D01*
X02292201Y01631799D02*
X01932799Y01631799D01*
X01944797Y01619801D02*
X02280203Y01619801D01*
X02268204Y01607802D02*
X02038543Y01607802D01*
X02049508Y01595804D02*
X02256206Y01595804D01*
X02244207Y01583805D02*
X02054478Y01583805D01*
X02054842Y01571807D02*
X02232209Y01571807D01*
X02220210Y01559808D02*
X02076538Y01559808D01*
X02085748Y01547810D02*
X02208212Y01547810D01*
X02196213Y01535811D02*
X02089842Y01535811D01*
X02089842Y01523813D02*
X02184215Y01523813D01*
X02172216Y01511814D02*
X02085592Y01511814D01*
X02081530Y01499815D02*
X02160218Y01499815D01*
X02148219Y01487817D02*
X02087816Y01487817D01*
X02089842Y01475818D02*
X02136221Y01475818D01*
X02124222Y01463820D02*
X02088494Y01463820D01*
X02083167Y01451821D02*
X02112224Y01451821D01*
X02100225Y01439823D02*
X02074914Y01439823D01*
X02079842Y01427824D02*
X02088227Y01427824D01*
X02040000Y01420000D02*
X02015000Y01420000D01*
X01790000Y01645000D01*
X01335000Y01645000D01*
X01280000Y01700000D01*
X01280000Y01935000D01*
X01300000Y01955000D01*
X01300000Y02040000D01*
X01285000Y02055000D01*
X01285000Y03000000D01*
X01338000Y02999631D02*
X01390999Y02999631D01*
X01399001Y02999631D02*
X01452000Y02999631D01*
X01452000Y03011629D02*
X01442000Y03011629D01*
X01437840Y03023628D02*
X01453675Y03023628D01*
X01465673Y03035626D02*
X01425841Y03035626D01*
X01399000Y03035626D02*
X01391000Y03035626D01*
X01391000Y03023628D02*
X01399000Y03023628D01*
X01399000Y03011629D02*
X01391000Y03011629D01*
X01364159Y03035626D02*
X01324327Y03035626D01*
X01336325Y03023628D02*
X01352160Y03023628D01*
X01348000Y03011629D02*
X01338000Y03011629D01*
X01338000Y02987632D02*
X01348000Y02987632D01*
X01352898Y02975634D02*
X01335587Y02975634D01*
X01323589Y02963635D02*
X01364897Y02963635D01*
X01363316Y02951637D02*
X01387039Y02951637D01*
X01395000Y02920000D02*
X01435000Y02960000D01*
X01465000Y02960000D01*
X01505000Y03000000D01*
X01558000Y02999631D02*
X01562000Y02999631D01*
X01562000Y03011629D02*
X01558000Y03011629D01*
X01556325Y03023628D02*
X01563675Y03023628D01*
X01575673Y03035626D02*
X01544327Y03035626D01*
X01532328Y03047625D02*
X01587672Y03047625D01*
X01642328Y03047625D02*
X01697672Y03047625D01*
X01685673Y03035626D02*
X01654327Y03035626D01*
X01666325Y03023628D02*
X01673675Y03023628D01*
X01672000Y03011629D02*
X01668000Y03011629D01*
X01668000Y02999631D02*
X01672000Y02999631D01*
X01672000Y02987632D02*
X01668000Y02987632D01*
X01665587Y02975634D02*
X01674413Y02975634D01*
X01686411Y02963635D02*
X01653589Y02963635D01*
X01646684Y02951637D02*
X01643000Y02951637D01*
X01693316Y02951637D02*
X01697000Y02951637D01*
X01725000Y03000000D02*
X01725000Y02880000D01*
X01655000Y02810000D01*
X01655000Y02105000D01*
X01675000Y02085000D01*
X02575000Y02085000D01*
X02575000Y02115000D01*
X02570000Y02120000D01*
X02555000Y02155000D02*
X02505000Y02105000D01*
X02000000Y02105000D01*
X01945000Y02160000D01*
X01945000Y02345000D01*
X01780000Y02510000D01*
X01780000Y02900000D01*
X01756684Y02951637D02*
X01753000Y02951637D01*
X01763589Y02963635D02*
X01796411Y02963635D01*
X01803316Y02951637D02*
X01807000Y02951637D01*
X01784413Y02975634D02*
X01775587Y02975634D01*
X01778000Y02987632D02*
X01782000Y02987632D01*
X01782000Y02999631D02*
X01778000Y02999631D01*
X01778000Y03011629D02*
X01782000Y03011629D01*
X01783675Y03023628D02*
X01776325Y03023628D01*
X01764327Y03035626D02*
X01795673Y03035626D01*
X01807672Y03047625D02*
X01752328Y03047625D01*
X01835000Y03000000D02*
X01835000Y02875000D01*
X01800000Y02840000D01*
X01800000Y02520000D01*
X01965000Y02355000D01*
X01965000Y02170000D01*
X02010000Y02125000D01*
X02495000Y02125000D01*
X02550000Y02180000D01*
X02620000Y02180000D01*
X02660000Y02140000D01*
X02675000Y02140000D01*
X02661899Y02177699D02*
X02659598Y02180000D01*
X03049032Y02180000D01*
X03060967Y02180000D01*
X03071994Y02184567D01*
X03191994Y02304567D01*
X03200011Y02312584D01*
X03199000Y02310145D01*
X03199000Y02289855D01*
X03199368Y02288966D01*
X03043402Y02133000D01*
X03023346Y02133000D01*
X03017569Y02138777D01*
X03002925Y02144842D01*
X02987075Y02144842D01*
X02972431Y02138777D01*
X02961223Y02127569D01*
X02955157Y02112925D01*
X02955157Y02097075D01*
X02961223Y02082431D01*
X02968654Y02075000D01*
X02961223Y02067569D01*
X02955157Y02052925D01*
X02955157Y02037075D01*
X02956845Y02033000D01*
X02783154Y02033000D01*
X02784842Y02037075D01*
X02784842Y02052925D01*
X02778777Y02067569D01*
X02767569Y02078777D01*
X02752925Y02084842D01*
X02743918Y02084842D01*
X02744842Y02087075D01*
X02744842Y02102925D01*
X02738777Y02117569D01*
X02727569Y02128777D01*
X02714842Y02134048D01*
X02714842Y02147925D01*
X02708777Y02162569D01*
X02697569Y02173777D01*
X02682925Y02179842D01*
X02667075Y02179842D01*
X02661899Y02177699D01*
X02699613Y02171733D02*
X03082135Y02171733D01*
X03094133Y02183731D02*
X03069976Y02183731D01*
X03083156Y02195730D02*
X03106132Y02195730D01*
X03095155Y02207728D02*
X03118131Y02207728D01*
X03107153Y02219727D02*
X03130129Y02219727D01*
X03119152Y02231725D02*
X03142128Y02231725D01*
X03131150Y02243724D02*
X03154126Y02243724D01*
X03143149Y02255722D02*
X03166125Y02255722D01*
X03155147Y02267721D02*
X03178123Y02267721D01*
X03167146Y02279719D02*
X03190122Y02279719D01*
X03199000Y02291718D02*
X03179144Y02291718D01*
X03191143Y02303717D02*
X03199000Y02303717D01*
X03250000Y02300000D02*
X03055000Y02105000D01*
X02995000Y02105000D01*
X02967910Y02075745D02*
X02770601Y02075745D01*
X02780360Y02063746D02*
X02959640Y02063746D01*
X02955157Y02051748D02*
X02784842Y02051748D01*
X02784842Y02039749D02*
X02955157Y02039749D01*
X02995000Y02045000D02*
X03030000Y02045000D01*
X03185000Y02200000D01*
X03250000Y02200000D01*
X03297031Y02219727D02*
X03530000Y02219727D01*
X03530000Y02231725D02*
X03290399Y02231725D01*
X03293236Y02228889D02*
X03278889Y02243236D01*
X03262558Y02250000D01*
X03278889Y02256764D01*
X03293236Y02271111D01*
X03301000Y02289855D01*
X03301000Y02310145D01*
X03293236Y02328889D01*
X03278889Y02343236D01*
X03262558Y02350000D01*
X03278889Y02356764D01*
X03293236Y02371111D01*
X03301000Y02389855D01*
X03301000Y02410145D01*
X03293236Y02428889D01*
X03278889Y02443236D01*
X03260145Y02451000D01*
X03239855Y02451000D01*
X03221111Y02443236D01*
X03206764Y02428889D01*
X03205000Y02424629D01*
X03205000Y02437573D01*
X03297426Y02530000D01*
X03333654Y02530000D01*
X03337431Y02526223D01*
X03352075Y02520157D01*
X03367925Y02520157D01*
X03382569Y02526223D01*
X03393777Y02537431D01*
X03399842Y02552075D01*
X03399842Y02567925D01*
X03393777Y02582569D01*
X03382569Y02593777D01*
X03367925Y02599842D01*
X03352075Y02599842D01*
X03337431Y02593777D01*
X03333654Y02590000D01*
X03279032Y02590000D01*
X03268006Y02585433D01*
X03259567Y02576994D01*
X03149567Y02466994D01*
X03145000Y02455967D01*
X03145000Y02342426D01*
X03042573Y02240000D01*
X02539032Y02240000D01*
X02528006Y02235433D01*
X02519567Y02226994D01*
X02517573Y02225000D01*
X02386346Y02225000D01*
X02382569Y02228777D01*
X02367925Y02234842D01*
X02352075Y02234842D01*
X02337431Y02228777D01*
X02326223Y02217569D01*
X02320157Y02202925D01*
X02320157Y02187075D01*
X02326223Y02172431D01*
X02337431Y02161223D01*
X02352075Y02155157D01*
X02367925Y02155157D01*
X02382569Y02161223D01*
X02386346Y02165000D01*
X02495402Y02165000D01*
X02483402Y02153000D01*
X02021598Y02153000D01*
X01993000Y02181598D01*
X01993000Y02360570D01*
X01988737Y02370861D01*
X01828000Y02531598D01*
X01828000Y02828402D01*
X01850861Y02851263D01*
X01857322Y02857724D01*
X01868047Y02847000D01*
X01911953Y02847000D01*
X01915000Y02850047D01*
X01915000Y02794032D01*
X01919567Y02783006D01*
X01928006Y02774567D01*
X02053006Y02649567D01*
X02064032Y02645000D01*
X03412573Y02645000D01*
X03565000Y02492573D01*
X03565000Y02392426D01*
X03534567Y02361994D01*
X03530000Y02350967D01*
X03530000Y02189032D01*
X03534567Y02178006D01*
X03543006Y02169567D01*
X03604567Y02108006D01*
X03613006Y02099567D01*
X03624032Y02095000D01*
X03653654Y02095000D01*
X03657431Y02091223D01*
X03672075Y02085157D01*
X03687925Y02085157D01*
X03702569Y02091223D01*
X03713777Y02102431D01*
X03717000Y02110213D01*
X03717000Y02083000D01*
X03503000Y02083000D01*
X03503000Y02105570D01*
X03498737Y02115861D01*
X03474842Y02139755D01*
X03474842Y02147925D01*
X03468777Y02162569D01*
X03457569Y02173777D01*
X03442925Y02179842D01*
X03427075Y02179842D01*
X03412431Y02173777D01*
X03401223Y02162569D01*
X03395157Y02147925D01*
X03395157Y02132075D01*
X03401223Y02117431D01*
X03407697Y02110958D01*
X03402431Y02108777D01*
X03391223Y02097569D01*
X03387066Y02087532D01*
X03300861Y02173737D01*
X03295281Y02176048D01*
X03301000Y02189855D01*
X03301000Y02210145D01*
X03293236Y02228889D01*
X03277710Y02243724D02*
X03530000Y02243724D01*
X03530000Y02255722D02*
X03276374Y02255722D01*
X03289846Y02267721D02*
X03530000Y02267721D01*
X03530000Y02279719D02*
X03296801Y02279719D01*
X03301000Y02291718D02*
X03530000Y02291718D01*
X03530000Y02303717D02*
X03301000Y02303717D01*
X03298693Y02315715D02*
X03530000Y02315715D01*
X03530000Y02327714D02*
X03293723Y02327714D01*
X03282413Y02339712D02*
X03530000Y02339712D01*
X03530308Y02351711D02*
X03266688Y02351711D01*
X03285834Y02363709D02*
X03536283Y02363709D01*
X03548281Y02375708D02*
X03295140Y02375708D01*
X03300110Y02387706D02*
X03560280Y02387706D01*
X03565000Y02399705D02*
X03301000Y02399705D01*
X03300354Y02411703D02*
X03565000Y02411703D01*
X03565000Y02423702D02*
X03295384Y02423702D01*
X03286424Y02435700D02*
X03565000Y02435700D01*
X03565000Y02447699D02*
X03268114Y02447699D01*
X03231886Y02447699D02*
X03215125Y02447699D01*
X03213575Y02435700D02*
X03205000Y02435700D01*
X03227124Y02459697D02*
X03565000Y02459697D01*
X03565000Y02471696D02*
X03239122Y02471696D01*
X03251121Y02483694D02*
X03565000Y02483694D01*
X03561881Y02495693D02*
X03263119Y02495693D01*
X03275118Y02507691D02*
X03549882Y02507691D01*
X03537883Y02519690D02*
X03287116Y02519690D01*
X03250258Y02567684D02*
X01828000Y02567684D01*
X01828000Y02555686D02*
X03238259Y02555686D01*
X03226261Y02543687D02*
X01828000Y02543687D01*
X01828000Y02531688D02*
X03214262Y02531688D01*
X03202264Y02519690D02*
X01839908Y02519690D01*
X01851906Y02507691D02*
X03190265Y02507691D01*
X03178266Y02495693D02*
X01863905Y02495693D01*
X01875903Y02483694D02*
X03166268Y02483694D01*
X03154269Y02471696D02*
X01887902Y02471696D01*
X01899900Y02459697D02*
X03146545Y02459697D01*
X03145000Y02447699D02*
X01911899Y02447699D01*
X01923898Y02435700D02*
X03145000Y02435700D01*
X03145000Y02423702D02*
X01935896Y02423702D01*
X01947895Y02411703D02*
X03145000Y02411703D01*
X03145000Y02399705D02*
X01959893Y02399705D01*
X01971892Y02387706D02*
X03145000Y02387706D01*
X03145000Y02375708D02*
X01983890Y02375708D01*
X01991699Y02363709D02*
X03145000Y02363709D01*
X03145000Y02351711D02*
X01993000Y02351711D01*
X01993000Y02339712D02*
X03142286Y02339712D01*
X03130287Y02327714D02*
X01993000Y02327714D01*
X01993000Y02315715D02*
X03118289Y02315715D01*
X03106290Y02303717D02*
X01993000Y02303717D01*
X01993000Y02291718D02*
X03094292Y02291718D01*
X03082293Y02279719D02*
X01993000Y02279719D01*
X01993000Y02267721D02*
X03070295Y02267721D01*
X03058296Y02255722D02*
X01993000Y02255722D01*
X01993000Y02243724D02*
X03046297Y02243724D01*
X03070136Y02159734D02*
X02709951Y02159734D01*
X02714842Y02147736D02*
X03058138Y02147736D01*
X03046139Y02135737D02*
X03020608Y02135737D01*
X02969391Y02135737D02*
X02714842Y02135737D01*
X02732607Y02123739D02*
X02959637Y02123739D01*
X02955157Y02111740D02*
X02741191Y02111740D01*
X02744842Y02099742D02*
X02955157Y02099742D01*
X02959023Y02087743D02*
X02744842Y02087743D01*
X02705000Y02095000D02*
X02700000Y02095000D01*
X02670000Y02065000D01*
X01665000Y02065000D01*
X01635000Y02095000D01*
X01635000Y02825000D01*
X01670000Y02860000D01*
X01670000Y02900000D01*
X01728248Y02843650D02*
X01752000Y02843650D01*
X01752000Y02853047D02*
X01744822Y02860224D01*
X01683000Y02798402D01*
X01683000Y02116598D01*
X01686598Y02113000D01*
X01952402Y02113000D01*
X01929139Y02136263D01*
X01921263Y02144139D01*
X01917000Y02154430D01*
X01917000Y02333402D01*
X01764139Y02486263D01*
X01756263Y02494139D01*
X01752000Y02504430D01*
X01752000Y02853047D01*
X01749398Y02855649D02*
X01740246Y02855649D01*
X01752000Y02831652D02*
X01716249Y02831652D01*
X01704251Y02819653D02*
X01752000Y02819653D01*
X01752000Y02807655D02*
X01692252Y02807655D01*
X01683000Y02795656D02*
X01752000Y02795656D01*
X01752000Y02783657D02*
X01683000Y02783657D01*
X01683000Y02771659D02*
X01752000Y02771659D01*
X01752000Y02759660D02*
X01683000Y02759660D01*
X01683000Y02747662D02*
X01752000Y02747662D01*
X01752000Y02735663D02*
X01683000Y02735663D01*
X01683000Y02723665D02*
X01752000Y02723665D01*
X01752000Y02711666D02*
X01683000Y02711666D01*
X01683000Y02699668D02*
X01752000Y02699668D01*
X01752000Y02687669D02*
X01683000Y02687669D01*
X01683000Y02675671D02*
X01752000Y02675671D01*
X01752000Y02663672D02*
X01683000Y02663672D01*
X01683000Y02651674D02*
X01752000Y02651674D01*
X01752000Y02639675D02*
X01683000Y02639675D01*
X01683000Y02627677D02*
X01752000Y02627677D01*
X01752000Y02615678D02*
X01683000Y02615678D01*
X01683000Y02603680D02*
X01752000Y02603680D01*
X01752000Y02591681D02*
X01683000Y02591681D01*
X01683000Y02579683D02*
X01752000Y02579683D01*
X01752000Y02567684D02*
X01683000Y02567684D01*
X01683000Y02555686D02*
X01752000Y02555686D01*
X01752000Y02543687D02*
X01683000Y02543687D01*
X01683000Y02531688D02*
X01752000Y02531688D01*
X01752000Y02519690D02*
X01683000Y02519690D01*
X01683000Y02507691D02*
X01752000Y02507691D01*
X01755619Y02495693D02*
X01683000Y02495693D01*
X01683000Y02483694D02*
X01766708Y02483694D01*
X01778706Y02471696D02*
X01683000Y02471696D01*
X01683000Y02459697D02*
X01790705Y02459697D01*
X01802703Y02447699D02*
X01683000Y02447699D01*
X01683000Y02435700D02*
X01814702Y02435700D01*
X01826700Y02423702D02*
X01683000Y02423702D01*
X01683000Y02411703D02*
X01838699Y02411703D01*
X01850697Y02399705D02*
X01683000Y02399705D01*
X01683000Y02387706D02*
X01862696Y02387706D01*
X01874694Y02375708D02*
X01683000Y02375708D01*
X01683000Y02363709D02*
X01886693Y02363709D01*
X01898691Y02351711D02*
X01683000Y02351711D01*
X01683000Y02339712D02*
X01910690Y02339712D01*
X01917000Y02327714D02*
X01683000Y02327714D01*
X01683000Y02315715D02*
X01917000Y02315715D01*
X01917000Y02303717D02*
X01683000Y02303717D01*
X01683000Y02291718D02*
X01917000Y02291718D01*
X01917000Y02279719D02*
X01683000Y02279719D01*
X01683000Y02267721D02*
X01917000Y02267721D01*
X01917000Y02255722D02*
X01683000Y02255722D01*
X01683000Y02243724D02*
X01917000Y02243724D01*
X01917000Y02231725D02*
X01683000Y02231725D01*
X01683000Y02219727D02*
X01917000Y02219727D01*
X01917000Y02207728D02*
X01683000Y02207728D01*
X01683000Y02195730D02*
X01917000Y02195730D01*
X01917000Y02183731D02*
X01683000Y02183731D01*
X01683000Y02171733D02*
X01917000Y02171733D01*
X01917000Y02159734D02*
X01683000Y02159734D01*
X01683000Y02147736D02*
X01919773Y02147736D01*
X01929665Y02135737D02*
X01683000Y02135737D01*
X01683000Y02123739D02*
X01941663Y02123739D01*
X02014864Y02159734D02*
X02341025Y02159734D01*
X02326921Y02171733D02*
X02002865Y02171733D01*
X01993000Y02183731D02*
X02321542Y02183731D01*
X02320157Y02195730D02*
X01993000Y02195730D01*
X01993000Y02207728D02*
X02322147Y02207728D01*
X02328381Y02219727D02*
X01993000Y02219727D01*
X01993000Y02231725D02*
X02344550Y02231725D01*
X02375450Y02231725D02*
X02524299Y02231725D01*
X02490136Y02159734D02*
X02378974Y02159734D01*
X02451154Y02015752D02*
X01388000Y02015752D01*
X01388000Y02003753D02*
X02439156Y02003753D01*
X02427157Y01991755D02*
X02083575Y01991755D01*
X02099841Y01979756D02*
X02415159Y01979756D01*
X02403160Y01967758D02*
X02111840Y01967758D01*
X02075000Y01965000D02*
X02110000Y01930000D01*
X02405000Y01930000D01*
X02480000Y02005000D01*
X03020000Y02005000D01*
X03085000Y02070000D01*
X03140000Y02070000D01*
X03160000Y02090000D01*
X03195000Y02075000D02*
X03170000Y02050000D01*
X03095000Y02050000D01*
X03030000Y01985000D01*
X02490000Y01985000D01*
X02415000Y01910000D01*
X02075000Y01910000D01*
X02060000Y01925000D01*
X02045000Y01925000D01*
X02020000Y01965000D02*
X02075000Y01965000D01*
X02020000Y01965000D02*
X01995000Y01940000D01*
X01990000Y01940000D01*
X01953403Y01955759D02*
X01950586Y01955759D01*
X01961412Y01967758D02*
X01388000Y01967758D01*
X01388000Y01979756D02*
X01981867Y01979756D01*
X02011425Y01991755D02*
X01388000Y01991755D01*
X01388000Y02027750D02*
X01632651Y02027750D01*
X01620653Y02039749D02*
X01388000Y02039749D01*
X01388000Y02051748D02*
X01608654Y02051748D01*
X01596656Y02063746D02*
X01388000Y02063746D01*
X01387927Y02075745D02*
X01588527Y02075745D01*
X01587000Y02087743D02*
X01381855Y02087743D01*
X01373000Y02099742D02*
X01587000Y02099742D01*
X01587000Y02111740D02*
X01373000Y02111740D01*
X01373000Y02123739D02*
X01587000Y02123739D01*
X01587000Y02135737D02*
X01373000Y02135737D01*
X01373000Y02147736D02*
X01587000Y02147736D01*
X01587000Y02159734D02*
X01373000Y02159734D01*
X01373000Y02171733D02*
X01587000Y02171733D01*
X01587000Y02183731D02*
X01373000Y02183731D01*
X01373000Y02195730D02*
X01587000Y02195730D01*
X01587000Y02207728D02*
X01373000Y02207728D01*
X01373000Y02219727D02*
X01587000Y02219727D01*
X01587000Y02231725D02*
X01373000Y02231725D01*
X01373000Y02243724D02*
X01587000Y02243724D01*
X01587000Y02255722D02*
X01373000Y02255722D01*
X01373000Y02267721D02*
X01587000Y02267721D01*
X01587000Y02279719D02*
X01373000Y02279719D01*
X01373000Y02291718D02*
X01587000Y02291718D01*
X01587000Y02303717D02*
X01373000Y02303717D01*
X01373000Y02315715D02*
X01587000Y02315715D01*
X01587000Y02327714D02*
X01373000Y02327714D01*
X01373000Y02339712D02*
X01587000Y02339712D01*
X01587000Y02351711D02*
X01373000Y02351711D01*
X01373000Y02363709D02*
X01587000Y02363709D01*
X01587000Y02375708D02*
X01373000Y02375708D01*
X01373000Y02387706D02*
X01587000Y02387706D01*
X01587000Y02399705D02*
X01373000Y02399705D01*
X01373000Y02411703D02*
X01587000Y02411703D01*
X01587000Y02423702D02*
X01373000Y02423702D01*
X01373000Y02435700D02*
X01587000Y02435700D01*
X01587000Y02447699D02*
X01373000Y02447699D01*
X01373000Y02459697D02*
X01587000Y02459697D01*
X01587000Y02471696D02*
X01373000Y02471696D01*
X01373000Y02483694D02*
X01587000Y02483694D01*
X01587000Y02495693D02*
X01373000Y02495693D01*
X01373000Y02507691D02*
X01587000Y02507691D01*
X01587000Y02519690D02*
X01373000Y02519690D01*
X01373000Y02531688D02*
X01587000Y02531688D01*
X01587000Y02543687D02*
X01373000Y02543687D01*
X01373000Y02555686D02*
X01587000Y02555686D01*
X01587000Y02567684D02*
X01373000Y02567684D01*
X01373000Y02579683D02*
X01587000Y02579683D01*
X01587000Y02591681D02*
X01373000Y02591681D01*
X01373000Y02603680D02*
X01587000Y02603680D01*
X01587000Y02615678D02*
X01373000Y02615678D01*
X01373000Y02627677D02*
X01587000Y02627677D01*
X01587000Y02639675D02*
X01373000Y02639675D01*
X01373000Y02651674D02*
X01587000Y02651674D01*
X01587000Y02663672D02*
X01373000Y02663672D01*
X01373000Y02675671D02*
X01587000Y02675671D01*
X01587000Y02687669D02*
X01373000Y02687669D01*
X01373000Y02699668D02*
X01587000Y02699668D01*
X01587000Y02711666D02*
X01373000Y02711666D01*
X01373000Y02723665D02*
X01587000Y02723665D01*
X01587000Y02735663D02*
X01373000Y02735663D01*
X01373000Y02747662D02*
X01587000Y02747662D01*
X01587000Y02759660D02*
X01373000Y02759660D01*
X01373000Y02771659D02*
X01587000Y02771659D01*
X01587000Y02783657D02*
X01373255Y02783657D01*
X01385254Y02795656D02*
X01587000Y02795656D01*
X01587000Y02807655D02*
X01397252Y02807655D01*
X01409251Y02819653D02*
X01587000Y02819653D01*
X01587000Y02831652D02*
X01421250Y02831652D01*
X01433248Y02843650D02*
X01587000Y02843650D01*
X01529398Y02855649D02*
X01480602Y02855649D01*
X01492600Y02867647D02*
X01517399Y02867647D01*
X01507000Y02879646D02*
X01503000Y02879646D01*
X01503000Y02891644D02*
X01507000Y02891644D01*
X01507000Y02903643D02*
X01503000Y02903643D01*
X01503000Y02915641D02*
X01507000Y02915641D01*
X01512687Y02927640D02*
X01497313Y02927640D01*
X01485315Y02939638D02*
X01524685Y02939638D01*
X01531590Y02951637D02*
X01536684Y02951637D01*
X01543589Y02963635D02*
X01576411Y02963635D01*
X01583316Y02951637D02*
X01587000Y02951637D01*
X01564413Y02975634D02*
X01555587Y02975634D01*
X01558000Y02987632D02*
X01562000Y02987632D01*
X01615000Y03000000D02*
X01615000Y02085000D01*
X01655000Y02045000D01*
X02745000Y02045000D01*
X02625000Y02120000D02*
X02590000Y02155000D01*
X02555000Y02155000D01*
X02500000Y01965000D02*
X02425000Y01890000D01*
X01975000Y01890000D01*
X01940000Y01925000D01*
X01925000Y01925000D01*
X01897887Y01895767D02*
X01370365Y01895767D01*
X01368000Y01883768D02*
X01934170Y01883768D01*
X01889014Y01907765D02*
X01382363Y01907765D01*
X01388000Y01919764D02*
X01885157Y01919764D01*
X01885157Y01931762D02*
X01388000Y01931762D01*
X01388000Y01943761D02*
X01889646Y01943761D01*
X01899414Y01955759D02*
X01388000Y01955759D01*
X01360000Y01925000D02*
X01360000Y02070000D01*
X01345000Y02085000D01*
X01345000Y02795000D01*
X01450000Y02900000D01*
X01395000Y02920000D02*
X01395000Y02875000D01*
X01325000Y02805000D01*
X01325000Y02075000D01*
X01340000Y02060000D01*
X01340000Y01935000D01*
X01320000Y01915000D01*
X01320000Y01720000D01*
X01355000Y01685000D01*
X01810000Y01685000D01*
X01965000Y01530000D01*
X02050000Y01530000D01*
X02050000Y01475000D02*
X02040000Y01475000D01*
X02025000Y01460000D01*
X02005000Y01460000D01*
X01800000Y01665000D01*
X01345000Y01665000D01*
X01300000Y01710000D01*
X01300000Y01925000D01*
X01320000Y01945000D01*
X01320000Y02050000D01*
X01305000Y02065000D01*
X01305000Y02865000D01*
X01340000Y02900000D01*
X01316684Y02951637D02*
X01313000Y02951637D01*
X01257000Y02951637D02*
X01253316Y02951637D01*
X01246411Y02963635D02*
X01213589Y02963635D01*
X01225587Y02975634D02*
X01234413Y02975634D01*
X01232000Y02987632D02*
X01228000Y02987632D01*
X01228000Y02999631D02*
X01232000Y02999631D01*
X01232000Y03011629D02*
X01228000Y03011629D01*
X01226325Y03023628D02*
X01233675Y03023628D01*
X01245673Y03035626D02*
X01214327Y03035626D01*
X01202328Y03047625D02*
X01257672Y03047625D01*
X01312328Y03047625D02*
X01477672Y03047625D01*
X01230000Y02900000D02*
X01230000Y02830000D01*
X01245000Y02815000D01*
X01245000Y02020000D01*
X01260000Y02005000D01*
X01340000Y01905000D02*
X01360000Y01925000D01*
X01340000Y01905000D02*
X01340000Y01735000D01*
X01370000Y01705000D01*
X01820000Y01705000D01*
X01950000Y01575000D01*
X02015000Y01575000D01*
X01991456Y01607802D02*
X01956796Y01607802D01*
X01850000Y01496917D02*
X01962745Y01384172D01*
X01960157Y01377925D01*
X01960157Y01368000D01*
X01834430Y01368000D01*
X01824139Y01363737D01*
X01816263Y01355861D01*
X01816263Y01355860D01*
X01783402Y01323000D01*
X01591083Y01323000D01*
X01629259Y01361176D01*
X01638824Y01370741D01*
X01644000Y01383237D01*
X01644000Y01425917D01*
X01689083Y01471000D01*
X01816763Y01471000D01*
X01829259Y01476176D01*
X01850000Y01496917D01*
X01840900Y01487817D02*
X01859100Y01487817D01*
X01871098Y01475818D02*
X01828396Y01475818D01*
X01883097Y01463820D02*
X01681903Y01463820D01*
X01669905Y01451821D02*
X01895095Y01451821D01*
X01907094Y01439823D02*
X01657906Y01439823D01*
X01645907Y01427824D02*
X01919092Y01427824D01*
X01931091Y01415826D02*
X01644000Y01415826D01*
X01644000Y01403827D02*
X01943089Y01403827D01*
X01955088Y01391829D02*
X01644000Y01391829D01*
X01642589Y01379830D02*
X01960947Y01379830D01*
X01834024Y01367832D02*
X01635915Y01367832D01*
X01623916Y01355833D02*
X01816235Y01355833D01*
X01804237Y01343835D02*
X01611918Y01343835D01*
X01599919Y01331836D02*
X01792238Y01331836D01*
X01880000Y01260000D02*
X01915000Y01260000D01*
X01935000Y01240000D01*
X02060000Y01240000D01*
X01919200Y01187854D02*
X02211906Y01187854D01*
X02250000Y01200000D02*
X02800000Y01200000D01*
X02830000Y01230000D01*
X02830000Y01235000D01*
X02869842Y01235848D02*
X03076726Y01235848D01*
X03088724Y01223849D02*
X02868506Y01223849D01*
X02863197Y01211851D02*
X03100723Y01211851D01*
X03112721Y01199852D02*
X02849259Y01199852D01*
X02827452Y01187854D02*
X03120000Y01187854D01*
X03120000Y01175855D02*
X02814877Y01175855D01*
X02790157Y01235848D02*
X02267569Y01235848D01*
X02266856Y01163857D02*
X03120000Y01163857D01*
X03064727Y01247846D02*
X03029417Y01247846D01*
X03000583Y01247846D02*
X02867804Y01247846D01*
X02861501Y01259845D02*
X02983809Y01259845D01*
X03089587Y01307839D02*
X03167000Y01307839D01*
X03136444Y01295841D02*
X03101586Y01295841D01*
X03113584Y01283842D02*
X03127344Y01283842D01*
X03165000Y01265000D02*
X03170000Y01265000D01*
X03195000Y01290000D01*
X03167000Y01367832D02*
X02514177Y01367832D01*
X02490000Y01400000D02*
X02620000Y01400000D01*
X02967407Y01547810D02*
X03167000Y01547810D01*
X03167000Y01559808D02*
X02979406Y01559808D01*
X02991404Y01571807D02*
X03167000Y01571807D01*
X03167000Y01583805D02*
X03003403Y01583805D01*
X03015401Y01595804D02*
X03167000Y01595804D01*
X03167000Y01607802D02*
X03027400Y01607802D01*
X03132331Y01619801D02*
X03167000Y01619801D01*
X03167000Y01631799D02*
X03163145Y01631799D01*
X03250000Y01600000D02*
X03265000Y01600000D01*
X03310000Y01555000D01*
X03310000Y01055000D01*
X03410000Y00955000D01*
X03435000Y00955000D01*
X03471133Y00971880D02*
X03587915Y00971880D01*
X03612085Y00971880D02*
X03731000Y00971880D01*
X03731000Y00959882D02*
X03474842Y00959882D01*
X03474842Y00947883D02*
X03731000Y00947883D01*
X03727802Y00935885D02*
X03470207Y00935885D01*
X03460232Y00923886D02*
X03715803Y00923886D01*
X03703805Y00911888D02*
X03300278Y00911888D01*
X03301000Y00899889D02*
X03691806Y00899889D01*
X03679808Y00887891D02*
X03300186Y00887891D01*
X03295308Y00923886D02*
X03409768Y00923886D01*
X03389517Y00935885D02*
X03286240Y00935885D01*
X03267669Y00947883D02*
X03377519Y00947883D01*
X03386263Y00939139D02*
X03386263Y00939139D01*
X03365520Y00959882D02*
X03282007Y00959882D01*
X03293554Y00971880D02*
X03353522Y00971880D01*
X03341523Y00983879D02*
X03298524Y00983879D01*
X03301000Y00995877D02*
X03329525Y00995877D01*
X03317526Y01007876D02*
X03301000Y01007876D01*
X03296970Y01019875D02*
X03305528Y01019875D01*
X03293529Y01031873D02*
X03290252Y01031873D01*
X03284302Y01043872D02*
X03277354Y01043872D01*
X03276730Y01055870D02*
X03282000Y01055870D01*
X03330000Y01105000D02*
X03345000Y01090000D01*
X03330000Y01105000D02*
X03330000Y01600000D01*
X03405000Y01675000D01*
X03375000Y01700000D02*
X03445000Y01770000D01*
X03635000Y01770000D01*
X03670000Y01735000D01*
X03670000Y01285000D01*
X03690000Y01265000D01*
X03690000Y01235000D01*
X03735000Y01190000D01*
X03735000Y01085000D01*
X03795000Y01025000D01*
X03731000Y00995877D02*
X03707223Y00995877D01*
X03716032Y01007876D02*
X03724041Y01007876D01*
X03731000Y00983879D02*
X03630225Y00983879D01*
X03637275Y00995877D02*
X03652777Y00995877D01*
X03643968Y01007876D02*
X03639842Y01007876D01*
X03605000Y01010000D02*
X03600000Y01010000D01*
X03420000Y01010000D01*
X03380000Y01050000D01*
X03380000Y01110000D01*
X03350000Y01140000D01*
X03350000Y01565000D01*
X03375000Y01590000D01*
X03375000Y01595000D01*
X03414842Y01595804D02*
X03642000Y01595804D01*
X03642000Y01607802D02*
X03412822Y01607802D01*
X03414842Y01602925D02*
X03408777Y01617569D01*
X03397972Y01628374D01*
X03404755Y01635157D01*
X03412925Y01635157D01*
X03427569Y01641223D01*
X03438777Y01652431D01*
X03444842Y01667075D01*
X03444842Y01682925D01*
X03438777Y01697569D01*
X03427569Y01708777D01*
X03424603Y01710005D01*
X03456598Y01742000D01*
X03623402Y01742000D01*
X03642000Y01723402D01*
X03642000Y01374149D01*
X03637569Y01378580D01*
X03622925Y01384646D01*
X03607075Y01384646D01*
X03592431Y01378580D01*
X03581851Y01368000D01*
X03399430Y01368000D01*
X03398000Y01367407D01*
X03398000Y01435188D01*
X03412569Y01441223D01*
X03423777Y01452431D01*
X03429842Y01467075D01*
X03429842Y01482925D01*
X03423777Y01497569D01*
X03412569Y01508777D01*
X03397925Y01514842D01*
X03382075Y01514842D01*
X03378000Y01513154D01*
X03378000Y01553402D01*
X03379755Y01555157D01*
X03382925Y01555157D01*
X03397569Y01561223D01*
X03408777Y01572431D01*
X03414842Y01587075D01*
X03414842Y01602925D01*
X03406545Y01619801D02*
X03642000Y01619801D01*
X03642000Y01631799D02*
X03401397Y01631799D01*
X03430143Y01643798D02*
X03642000Y01643798D01*
X03642000Y01655796D02*
X03440171Y01655796D01*
X03444842Y01667795D02*
X03642000Y01667795D01*
X03642000Y01679793D02*
X03444842Y01679793D01*
X03441170Y01691792D02*
X03642000Y01691792D01*
X03642000Y01703790D02*
X03432555Y01703790D01*
X03430387Y01715789D02*
X03642000Y01715789D01*
X03637615Y01727787D02*
X03442385Y01727787D01*
X03454384Y01739786D02*
X03625616Y01739786D01*
X03655000Y01810000D02*
X03710000Y01755000D01*
X03710000Y01305000D01*
X03730000Y01285000D01*
X03730000Y01255000D01*
X03775000Y01210000D01*
X03775000Y01140000D01*
X03815000Y01100000D01*
X03850000Y01100000D01*
X03707000Y01169012D02*
X03707000Y01178402D01*
X03666263Y01219139D01*
X03662000Y01229430D01*
X03662000Y01253402D01*
X03646263Y01269139D01*
X03642000Y01279430D01*
X03642000Y01315458D01*
X03637569Y01311026D01*
X03622925Y01304961D01*
X03607075Y01304961D01*
X03592431Y01311026D01*
X03591457Y01312000D01*
X03418000Y01312000D01*
X03418000Y01178155D01*
X03422075Y01179842D01*
X03437925Y01179842D01*
X03452569Y01173777D01*
X03463777Y01162569D01*
X03469842Y01147925D01*
X03469842Y01132075D01*
X03463777Y01117431D01*
X03452569Y01106223D01*
X03437925Y01100157D01*
X03428000Y01100157D01*
X03428000Y01071598D01*
X03441598Y01058000D01*
X03558402Y01058000D01*
X03561263Y01060861D01*
X03569139Y01068737D01*
X03579430Y01073000D01*
X03658917Y01073000D01*
X03656176Y01075741D01*
X03651000Y01088237D01*
X03651000Y01112970D01*
X03645157Y01127075D01*
X03645157Y01142925D01*
X03651223Y01157569D01*
X03662431Y01168777D01*
X03677075Y01174842D01*
X03692925Y01174842D01*
X03707000Y01169012D01*
X03707000Y01175855D02*
X03447551Y01175855D01*
X03462489Y01163857D02*
X03657511Y01163857D01*
X03648858Y01151858D02*
X03468213Y01151858D01*
X03469842Y01139860D02*
X03645157Y01139860D01*
X03645157Y01127861D02*
X03468097Y01127861D01*
X03462208Y01115863D02*
X03649802Y01115863D01*
X03651000Y01103864D02*
X03446874Y01103864D01*
X03428000Y01091866D02*
X03651000Y01091866D01*
X03654467Y01079867D02*
X03428000Y01079867D01*
X03431729Y01067869D02*
X03568271Y01067869D01*
X03585000Y01045000D02*
X03570000Y01030000D01*
X03430000Y01030000D01*
X03400000Y01060000D01*
X03400000Y01120000D01*
X03370000Y01150000D01*
X03370000Y01455000D01*
X03390000Y01475000D01*
X03405236Y01511814D02*
X03642000Y01511814D01*
X03642000Y01523813D02*
X03378000Y01523813D01*
X03378000Y01535811D02*
X03642000Y01535811D01*
X03642000Y01547810D02*
X03378000Y01547810D01*
X03394153Y01559808D02*
X03642000Y01559808D01*
X03642000Y01571807D02*
X03408152Y01571807D01*
X03413488Y01583805D02*
X03642000Y01583805D01*
X03642000Y01499815D02*
X03421530Y01499815D01*
X03427816Y01487817D02*
X03642000Y01487817D01*
X03642000Y01475818D02*
X03429842Y01475818D01*
X03428494Y01463820D02*
X03642000Y01463820D01*
X03642000Y01451821D02*
X03423167Y01451821D01*
X03409188Y01439823D02*
X03642000Y01439823D01*
X03642000Y01427824D02*
X03398000Y01427824D01*
X03398000Y01415826D02*
X03642000Y01415826D01*
X03642000Y01403827D02*
X03398000Y01403827D01*
X03398000Y01391829D02*
X03642000Y01391829D01*
X03642000Y01379830D02*
X03634550Y01379830D01*
X03595450Y01379830D02*
X03398000Y01379830D01*
X03398000Y01367832D02*
X03399024Y01367832D01*
X03405000Y01340000D02*
X03390000Y01325000D01*
X03390000Y01160000D01*
X03400197Y01149803D01*
X03435000Y01149803D01*
X03430000Y01140000D01*
X03418000Y01187854D02*
X03697548Y01187854D01*
X03685550Y01199852D02*
X03418000Y01199852D01*
X03418000Y01211851D02*
X03673551Y01211851D01*
X03664312Y01223849D02*
X03418000Y01223849D01*
X03418000Y01235848D02*
X03662000Y01235848D01*
X03662000Y01247846D02*
X03418000Y01247846D01*
X03418000Y01259845D02*
X03655557Y01259845D01*
X03645142Y01271844D02*
X03418000Y01271844D01*
X03418000Y01283842D02*
X03642000Y01283842D01*
X03642000Y01295841D02*
X03418000Y01295841D01*
X03418000Y01307839D02*
X03600125Y01307839D01*
X03629874Y01307839D02*
X03642000Y01307839D01*
X03610197Y01340000D02*
X03615000Y01344803D01*
X03610197Y01340000D02*
X03405000Y01340000D01*
X03167000Y01487817D02*
X03164842Y01487817D01*
X03164059Y01499815D02*
X03167000Y01499815D01*
X03167000Y01511814D02*
X03159089Y01511814D01*
X03167000Y01523813D02*
X03147483Y01523813D01*
X03167000Y01535811D02*
X03115854Y01535811D01*
X03340000Y01700000D02*
X03375000Y01700000D01*
X03350000Y01780000D02*
X03385000Y01810000D01*
X03655000Y01810000D01*
X03745000Y02015000D02*
X03420000Y02015000D01*
X03285000Y02150000D01*
X03220000Y02150000D01*
X03195000Y02125000D01*
X03195000Y02075000D01*
X03195000Y02030000D02*
X03105000Y02030000D01*
X03040000Y01965000D01*
X02500000Y01965000D01*
X02530000Y01905000D02*
X03135000Y01905000D01*
X03145000Y01895000D01*
X03145000Y01840000D01*
X03100000Y01830000D02*
X03145000Y01785000D01*
X03160000Y01785000D01*
X03100000Y01830000D02*
X03100000Y01875000D01*
X03090000Y01885000D01*
X02540000Y01885000D01*
X02465000Y01810000D01*
X02135000Y01810000D01*
X02120000Y01795000D01*
X02065000Y01795000D01*
X02050000Y01760000D02*
X02115000Y01760000D01*
X02145000Y01790000D01*
X02475000Y01790000D01*
X02455000Y01830000D02*
X02530000Y01905000D01*
X02455000Y01830000D02*
X01985000Y01830000D01*
X01970000Y01815000D01*
X01735000Y01815000D01*
X01685000Y01765000D01*
X01685000Y01760000D01*
X01724842Y01763783D02*
X01979871Y01763783D01*
X01969835Y01775781D02*
X01735379Y01775781D01*
X01724722Y01751784D02*
X02018617Y01751784D01*
X02030616Y01739786D02*
X01719752Y01739786D01*
X01592799Y01546000D02*
X01311763Y01546000D01*
X01298237Y01546000D01*
X01285741Y01551176D01*
X01214000Y01622917D01*
X01214000Y01564083D01*
X01264083Y01514000D01*
X01540917Y01514000D01*
X01565741Y01538824D01*
X01578237Y01544000D01*
X01587970Y01544000D01*
X01592799Y01546000D01*
X01562728Y01535811D02*
X01242272Y01535811D01*
X01254271Y01523813D02*
X01550729Y01523813D01*
X01467086Y01379830D02*
X01416515Y01379830D01*
X01425739Y01367832D02*
X01479085Y01367832D01*
X01293868Y01547810D02*
X01230273Y01547810D01*
X01218275Y01559808D02*
X01277109Y01559808D01*
X01265110Y01571807D02*
X01214000Y01571807D01*
X01214000Y01583805D02*
X01253112Y01583805D01*
X01241113Y01595804D02*
X01214000Y01595804D01*
X01214000Y01607802D02*
X01229115Y01607802D01*
X01217116Y01619801D02*
X01214000Y01619801D01*
X01095000Y01465000D02*
X01095000Y01175000D01*
X01134842Y01175855D02*
X01186257Y01175855D01*
X01174259Y01163857D02*
X01133509Y01163857D01*
X01132801Y01187854D02*
X01198256Y01187854D01*
X01210254Y01199852D02*
X01126493Y01199852D01*
X01123000Y01211851D02*
X01222253Y01211851D01*
X01234251Y01223849D02*
X01123000Y01223849D01*
X01123000Y01235848D02*
X01246250Y01235848D01*
X01258249Y01247846D02*
X01123000Y01247846D01*
X01235461Y01115863D02*
X01241374Y01115863D01*
X01240157Y01103864D02*
X01223462Y01103864D01*
X01211463Y01091866D02*
X01242315Y01091866D01*
X01248787Y01079867D02*
X01214842Y01079867D01*
X01216729Y01067869D02*
X01265530Y01067869D01*
X01294470Y01067869D02*
X01636523Y01067869D01*
X01625520Y01055870D02*
X01228728Y01055870D01*
X01240726Y01043872D02*
X01547660Y01043872D01*
X01535935Y01031873D02*
X01252725Y01031873D01*
X01250000Y00995000D02*
X01550000Y00995000D01*
X01565000Y01010000D01*
X01570000Y01010000D01*
X01604065Y01031873D02*
X01608790Y01031873D01*
X01620550Y01043872D02*
X01592340Y01043872D01*
X01656962Y00983879D02*
X02110157Y00983879D01*
X02111380Y00995877D02*
X01669663Y00995877D01*
X01689222Y01007876D02*
X02116530Y01007876D01*
X02130081Y01019875D02*
X01696860Y01019875D01*
X01699842Y01031873D02*
X03120000Y01031873D01*
X03112448Y01019875D02*
X02169919Y01019875D01*
X02112309Y00971880D02*
X01644964Y00971880D01*
X01632965Y00959882D02*
X02118772Y00959882D01*
X02135494Y00947883D02*
X01620967Y00947883D01*
X01608556Y00935885D02*
X02807721Y00935885D01*
X02801861Y00947883D02*
X02164506Y00947883D01*
X02082619Y00827898D02*
X02960000Y00827898D01*
X02960000Y00815900D02*
X02100446Y00815900D01*
X02107367Y00803901D02*
X02960000Y00803901D01*
X02960000Y00791903D02*
X02109842Y00791903D01*
X02108943Y00779904D02*
X02223558Y00779904D01*
X02227431Y00783777D02*
X02216223Y00772569D01*
X02210157Y00757925D01*
X02210157Y00742075D01*
X02216223Y00727431D01*
X02227431Y00716223D01*
X02242075Y00710157D01*
X02257925Y00710157D01*
X02272569Y00716223D01*
X02278346Y00722000D01*
X02778402Y00722000D01*
X02780157Y00720244D01*
X02780157Y00712075D01*
X02786223Y00697431D01*
X02797431Y00686223D01*
X02812075Y00680157D01*
X02827925Y00680157D01*
X02842569Y00686223D01*
X02853777Y00697431D01*
X02859842Y00712075D01*
X02859842Y00727925D01*
X02853777Y00742569D01*
X02842569Y00753777D01*
X02827925Y00759842D01*
X02819755Y00759842D01*
X02805861Y00773737D01*
X02795570Y00778000D01*
X02278346Y00778000D01*
X02272569Y00783777D01*
X02257925Y00789842D01*
X02242075Y00789842D01*
X02227431Y00783777D01*
X02214292Y00767906D02*
X02103973Y00767906D01*
X02091805Y00755907D02*
X02210157Y00755907D01*
X02210157Y00743908D02*
X01609000Y00743908D01*
X01609000Y00731910D02*
X02214368Y00731910D01*
X02223743Y00719911D02*
X01609000Y00719911D01*
X01609000Y00707913D02*
X02781881Y00707913D01*
X02780157Y00719911D02*
X02276257Y00719911D01*
X02250000Y00750000D02*
X02790000Y00750000D01*
X02820000Y00720000D01*
X02859842Y00719911D02*
X02960000Y00719911D01*
X02960000Y00707913D02*
X02858118Y00707913D01*
X02852260Y00695914D02*
X02959569Y00695914D01*
X02952639Y00683916D02*
X02836999Y00683916D01*
X02803001Y00683916D02*
X01902430Y00683916D01*
X01908189Y00671917D02*
X02950157Y00671917D01*
X02951050Y00659919D02*
X01909842Y00659919D01*
X01905000Y00625000D02*
X03015000Y00625000D01*
X03029399Y00678996D02*
X03023777Y00692569D01*
X03020000Y00696346D01*
X03020000Y00920000D01*
X03090967Y00920000D01*
X03101994Y00924567D01*
X03110426Y00933000D01*
X03118354Y00933000D01*
X03133791Y00939394D01*
X03145606Y00951209D01*
X03152000Y00966646D01*
X03152000Y00974573D01*
X03152000Y00974574D01*
X03152000Y00821598D01*
X03143402Y00813000D01*
X03089430Y00813000D01*
X03079139Y00808737D01*
X03071263Y00800861D01*
X03041263Y00770861D01*
X03037000Y00760570D01*
X03037000Y00686598D01*
X03029399Y00678996D01*
X03027361Y00683916D02*
X03034318Y00683916D01*
X03037000Y00695914D02*
X03020431Y00695914D01*
X03020000Y00707913D02*
X03037000Y00707913D01*
X03037000Y00719911D02*
X03020000Y00719911D01*
X03020000Y00731910D02*
X03037000Y00731910D01*
X03037000Y00743908D02*
X03020000Y00743908D01*
X03020000Y00755907D02*
X03037000Y00755907D01*
X03040039Y00767906D02*
X03020000Y00767906D01*
X03020000Y00779904D02*
X03050306Y00779904D01*
X03062305Y00791903D02*
X03020000Y00791903D01*
X03020000Y00803901D02*
X03074303Y00803901D01*
X03020000Y00815900D02*
X03146302Y00815900D01*
X03152000Y00827898D02*
X03020000Y00827898D01*
X03020000Y00839897D02*
X03152000Y00839897D01*
X03152000Y00851895D02*
X03020000Y00851895D01*
X03020000Y00863894D02*
X03152000Y00863894D01*
X03152000Y00875892D02*
X03020000Y00875892D01*
X03020000Y00887891D02*
X03152000Y00887891D01*
X03152000Y00899889D02*
X03020000Y00899889D01*
X03020000Y00911888D02*
X03152000Y00911888D01*
X03152000Y00923886D02*
X03100350Y00923886D01*
X03125319Y00935885D02*
X03152000Y00935885D01*
X03152000Y00947883D02*
X03142280Y00947883D01*
X03149198Y00959882D02*
X03152000Y00959882D01*
X03152000Y00971880D02*
X03152000Y00971880D01*
X03083479Y01007876D02*
X02824550Y01007876D01*
X02838126Y00995877D02*
X03073187Y00995877D01*
X03068217Y00983879D02*
X02867322Y00983879D01*
X02857102Y00911888D02*
X02960000Y00911888D01*
X02960000Y00899889D02*
X01188788Y00899889D01*
X01188992Y00911888D02*
X02832897Y00911888D01*
X02814768Y00923886D02*
X01188992Y00923886D01*
X01185573Y00887891D02*
X02960000Y00887891D01*
X02960000Y00875892D02*
X01182358Y00875892D01*
X01176347Y00863894D02*
X02960000Y00863894D01*
X02960000Y00851895D02*
X01169420Y00851895D01*
X01159035Y00839897D02*
X02960000Y00839897D01*
X02960000Y00779904D02*
X02276442Y00779904D01*
X02057381Y00827898D02*
X01587619Y00827898D01*
X01562381Y00827898D02*
X01147036Y00827898D01*
X01126337Y00815900D02*
X01544554Y00815900D01*
X01537633Y00803901D02*
X00902000Y00803901D01*
X00902000Y00791903D02*
X01535157Y00791903D01*
X01536057Y00779904D02*
X00902000Y00779904D01*
X00902000Y00767906D02*
X01541000Y00767906D01*
X01541000Y00755907D02*
X00902000Y00755907D01*
X00902000Y00743908D02*
X01541000Y00743908D01*
X01541000Y00731910D02*
X00902000Y00731910D01*
X00902000Y00719911D02*
X01541000Y00719911D01*
X01541000Y00707913D02*
X00902000Y00707913D01*
X00902000Y00695914D02*
X01541000Y00695914D01*
X01541000Y00683916D02*
X00902000Y00683916D01*
X00902000Y00671917D02*
X01541000Y00671917D01*
X01541000Y00659919D02*
X00902000Y00659919D01*
X00902000Y00647920D02*
X01541000Y00647920D01*
X01541000Y00635922D02*
X00902000Y00635922D01*
X00902000Y00623923D02*
X01541000Y00623923D01*
X01541000Y00611925D02*
X00902000Y00611925D01*
X00902000Y00599926D02*
X01541000Y00599926D01*
X01541000Y00587928D02*
X00902000Y00587928D01*
X00902000Y00575929D02*
X01541000Y00575929D01*
X01541000Y00563931D02*
X00902000Y00563931D01*
X00902000Y00551932D02*
X01541000Y00551932D01*
X01541000Y00539934D02*
X00902000Y00539934D01*
X00902000Y00527935D02*
X01541000Y00527935D01*
X01541000Y00515937D02*
X00902000Y00515937D01*
X00902000Y00503938D02*
X01541000Y00503938D01*
X01541000Y00491939D02*
X00902000Y00491939D01*
X00902000Y00479941D02*
X01541000Y00479941D01*
X01541000Y00467942D02*
X00902000Y00467942D01*
X00902000Y00455944D02*
X01541000Y00455944D01*
X01541000Y00443945D02*
X00902000Y00443945D01*
X00902000Y00431947D02*
X01541000Y00431947D01*
X01541000Y00419948D02*
X00902000Y00419948D01*
X00902000Y00407950D02*
X01541000Y00407950D01*
X01541000Y00395951D02*
X00902000Y00395951D01*
X00902000Y00383953D02*
X01541000Y00383953D01*
X01541000Y00371954D02*
X00898067Y00371954D01*
X00586598Y00118000D02*
X00519842Y00184755D01*
X00519842Y00192925D01*
X00513777Y00207569D01*
X00502569Y00218777D01*
X00487925Y00224842D01*
X00472075Y00224842D01*
X00457431Y00218777D01*
X00446223Y00207569D01*
X00440157Y00192925D01*
X00440157Y00177075D01*
X00446223Y00162431D01*
X00457431Y00151223D01*
X00472075Y00145157D01*
X00480244Y00145157D01*
X00559139Y00066263D01*
X00569430Y00062000D01*
X01476654Y00062000D01*
X01482431Y00056223D01*
X01497075Y00050157D01*
X01512925Y00050157D01*
X01527569Y00056223D01*
X01538777Y00067431D01*
X01544842Y00082075D01*
X01544842Y00097925D01*
X01538777Y00112569D01*
X01527569Y00123777D01*
X01512925Y00129842D01*
X01497075Y00129842D01*
X01482431Y00123777D01*
X01476654Y00118000D01*
X00586598Y00118000D01*
X00584613Y00119985D02*
X01478640Y00119985D01*
X01505000Y00090000D02*
X00575000Y00090000D01*
X00480000Y00185000D01*
X00452673Y00155981D02*
X00046000Y00155981D01*
X00046000Y00167979D02*
X00443925Y00167979D01*
X00440157Y00179978D02*
X00046000Y00179978D01*
X00046000Y00191976D02*
X00440157Y00191976D01*
X00444734Y00203975D02*
X00046000Y00203975D01*
X00046000Y00215973D02*
X00454628Y00215973D01*
X00505372Y00215973D02*
X01541000Y00215973D01*
X01541000Y00203975D02*
X00515266Y00203975D01*
X00519842Y00191976D02*
X01541000Y00191976D01*
X01541000Y00179978D02*
X00524620Y00179978D01*
X00536618Y00167979D02*
X01541000Y00167979D01*
X01541000Y00155981D02*
X00548617Y00155981D01*
X00560616Y00143982D02*
X01541000Y00143982D01*
X01541000Y00131984D02*
X00572614Y00131984D01*
X00529414Y00095988D02*
X00046000Y00095988D01*
X00046000Y00083990D02*
X00541412Y00083990D01*
X00553411Y00071991D02*
X00046000Y00071991D01*
X00046000Y00059993D02*
X01478662Y00059993D01*
X01531338Y00059993D02*
X01581924Y00059993D01*
X01569926Y00071991D02*
X01540666Y00071991D01*
X01544842Y00083990D02*
X01557927Y00083990D01*
X01546074Y00095988D02*
X01544842Y00095988D01*
X01541104Y00107987D02*
X01540675Y00107987D01*
X01541000Y00119985D02*
X01531360Y00119985D01*
X01609000Y00131984D02*
X02158910Y00131984D01*
X02161000Y00143982D02*
X01609000Y00143982D01*
X01609000Y00155981D02*
X02161000Y00155981D01*
X02161000Y00167979D02*
X01609000Y00167979D01*
X01609000Y00179978D02*
X02161000Y00179978D01*
X02161000Y00191976D02*
X01609000Y00191976D01*
X01609000Y00203975D02*
X02161000Y00203975D01*
X02161000Y00215973D02*
X01609000Y00215973D01*
X01609000Y00227972D02*
X02161000Y00227972D01*
X02161000Y00239970D02*
X01609000Y00239970D01*
X01609000Y00251969D02*
X02161000Y00251969D01*
X02161000Y00263968D02*
X01609000Y00263968D01*
X01609000Y00275966D02*
X02161000Y00275966D01*
X02161000Y00287965D02*
X01609000Y00287965D01*
X01609000Y00299963D02*
X02161000Y00299963D01*
X02149955Y00311962D02*
X01609000Y00311962D01*
X01609000Y00323960D02*
X02137957Y00323960D01*
X02125958Y00335959D02*
X01609000Y00335959D01*
X01609000Y00347957D02*
X02113960Y00347957D01*
X02101961Y00359956D02*
X01609000Y00359956D01*
X01609000Y00371954D02*
X02089962Y00371954D01*
X02077964Y00383953D02*
X01609000Y00383953D01*
X01609000Y00395951D02*
X02065965Y00395951D01*
X02053967Y00407950D02*
X01609000Y00407950D01*
X01609000Y00419948D02*
X02041968Y00419948D01*
X02029970Y00431947D02*
X01609000Y00431947D01*
X01609000Y00443945D02*
X02017971Y00443945D01*
X02005973Y00455944D02*
X01609000Y00455944D01*
X01609000Y00467942D02*
X01993974Y00467942D01*
X01981976Y00479941D02*
X01609000Y00479941D01*
X01609000Y00491939D02*
X01969977Y00491939D01*
X01957979Y00503938D02*
X01609000Y00503938D01*
X01609000Y00515937D02*
X01945980Y00515937D01*
X01933982Y00527935D02*
X01609000Y00527935D01*
X01609000Y00539934D02*
X01915544Y00539934D01*
X01901722Y00551932D02*
X01609000Y00551932D01*
X01609000Y00563931D02*
X01896460Y00563931D01*
X01895157Y00575929D02*
X01609000Y00575929D01*
X01609000Y00587928D02*
X01897230Y00587928D01*
X01892366Y00599926D02*
X01609000Y00599926D01*
X01609000Y00611925D02*
X01878477Y00611925D01*
X01852983Y00623923D02*
X01609000Y00623923D01*
X01609000Y00635922D02*
X01837732Y00635922D01*
X01831878Y00647920D02*
X01609000Y00647920D01*
X01609000Y00659919D02*
X01830157Y00659919D01*
X01831811Y00671917D02*
X01609000Y00671917D01*
X01609000Y00683916D02*
X01837570Y00683916D01*
X01852592Y00695914D02*
X01609000Y00695914D01*
X01609000Y00755907D02*
X02048194Y00755907D01*
X01887408Y00695914D02*
X02787740Y00695914D01*
X02858192Y00731910D02*
X02960000Y00731910D01*
X02960000Y00743908D02*
X02852437Y00743908D01*
X02837426Y00755907D02*
X02960000Y00755907D01*
X02960000Y00767906D02*
X02811692Y00767906D01*
X02990000Y00945000D02*
X02995000Y00950000D01*
X03122000Y00587928D02*
X01972770Y00587928D01*
X01982154Y00575929D02*
X03122000Y00575929D01*
X03122000Y00563931D02*
X01994152Y00563931D01*
X02006151Y00551932D02*
X03122000Y00551932D01*
X03122000Y00539934D02*
X02018149Y00539934D01*
X02030148Y00527935D02*
X03122000Y00527935D01*
X03122000Y00515937D02*
X02042147Y00515937D01*
X02054145Y00503938D02*
X03122000Y00503938D01*
X03122000Y00491939D02*
X02066144Y00491939D01*
X02078142Y00479941D02*
X03122000Y00479941D01*
X03122000Y00467942D02*
X02090141Y00467942D01*
X02102139Y00455944D02*
X03122000Y00455944D01*
X03122000Y00443945D02*
X02114138Y00443945D01*
X02126136Y00431947D02*
X03122000Y00431947D01*
X03123856Y00419948D02*
X02138135Y00419948D01*
X02150133Y00407950D02*
X03132452Y00407950D01*
X03144451Y00395951D02*
X02162132Y00395951D01*
X02174130Y00383953D02*
X03156449Y00383953D01*
X03206415Y00371954D02*
X02186129Y00371954D01*
X02198127Y00359956D02*
X03217919Y00359956D01*
X03232510Y00347957D02*
X02638114Y00347957D01*
X02601886Y00347957D02*
X02463388Y00347957D01*
X02474444Y00335959D02*
X02586562Y00335959D01*
X02580322Y00323960D02*
X02479414Y00323960D01*
X02482636Y00311962D02*
X02578000Y00311962D01*
X02578697Y00299963D02*
X02494635Y00299963D01*
X02504937Y00287965D02*
X02583667Y00287965D01*
X02594637Y00275966D02*
X02508000Y00275966D01*
X02508000Y00263968D02*
X02756434Y00263968D01*
X02744436Y00275966D02*
X02645363Y00275966D01*
X02620000Y00310000D02*
X02750000Y00310000D01*
X02875000Y00185000D01*
X02847673Y00155981D02*
X02666520Y00155981D01*
X02666811Y00167979D02*
X02838925Y00167979D01*
X02835157Y00179978D02*
X02664052Y00179978D01*
X02657153Y00191976D02*
X02828426Y00191976D01*
X02816427Y00203975D02*
X02640164Y00203975D01*
X02609836Y00203975D02*
X02515623Y00203975D01*
X02508000Y00215973D02*
X02804429Y00215973D01*
X02792430Y00227972D02*
X02508000Y00227972D01*
X02508000Y00239970D02*
X02780431Y00239970D01*
X02768433Y00251969D02*
X02508000Y00251969D01*
X02480000Y00275000D02*
X02480000Y00200000D01*
X02515000Y00165000D01*
X02625000Y00165000D01*
X02484421Y00155981D02*
X02229000Y00155981D01*
X02229000Y00167979D02*
X02472423Y00167979D01*
X02460424Y00179978D02*
X02229000Y00179978D01*
X02229000Y00191976D02*
X02453016Y00191976D01*
X02452000Y00203975D02*
X02229000Y00203975D01*
X02229000Y00215973D02*
X02452000Y00215973D01*
X02452000Y00227972D02*
X02229000Y00227972D01*
X02229000Y00239970D02*
X02452000Y00239970D01*
X02452000Y00251969D02*
X02229000Y00251969D01*
X02229000Y00263968D02*
X02451434Y00263968D01*
X02430123Y00275966D02*
X02229000Y00275966D01*
X02229000Y00287965D02*
X02410690Y00287965D01*
X02403103Y00299963D02*
X02229000Y00299963D01*
X02229000Y00311962D02*
X02400157Y00311962D01*
X02400586Y00323960D02*
X02228090Y00323960D01*
X02222124Y00335959D02*
X02405556Y00335959D01*
X02416611Y00347957D02*
X02210126Y00347957D01*
X02440000Y00315000D02*
X02480000Y00275000D01*
X02760498Y00335959D02*
X03213834Y00335959D01*
X03211875Y00266000D02*
X03221111Y00256764D01*
X03237441Y00250000D01*
X03221111Y00243236D01*
X03206764Y00228889D01*
X03199000Y00210145D01*
X03199000Y00189855D01*
X03206764Y00171111D01*
X03221111Y00156764D01*
X03237441Y00150000D01*
X03221111Y00143236D01*
X03211875Y00134000D01*
X02972083Y00134000D01*
X03014259Y00176176D01*
X03014259Y00176176D01*
X03023824Y00185741D01*
X03104083Y00266000D01*
X03211875Y00266000D01*
X03213907Y00263968D02*
X03102051Y00263968D01*
X03090052Y00251969D02*
X03232688Y00251969D01*
X03217846Y00239970D02*
X03078054Y00239970D01*
X03066055Y00227972D02*
X03206384Y00227972D01*
X03201414Y00215973D02*
X03054056Y00215973D01*
X03042058Y00203975D02*
X03199000Y00203975D01*
X03199000Y00191976D02*
X03030059Y00191976D01*
X03023824Y00185741D02*
X03023824Y00185741D01*
X03018061Y00179978D02*
X03203091Y00179978D01*
X03209896Y00167979D02*
X03006062Y00167979D01*
X02994064Y00155981D02*
X03223002Y00155981D01*
X03222913Y00143982D02*
X02982065Y00143982D01*
X02963076Y00059993D02*
X03217882Y00059993D01*
X03282117Y00059993D02*
X03490869Y00059993D01*
X03478871Y00071991D02*
X03293600Y00071991D01*
X03298570Y00083990D02*
X03469371Y00083990D01*
X03462444Y00095988D02*
X03301000Y00095988D01*
X03301000Y00107987D02*
X03457081Y00107987D01*
X03453866Y00119985D02*
X03296924Y00119985D01*
X03290141Y00131984D02*
X03451008Y00131984D01*
X03451008Y00143982D02*
X03277087Y00143982D01*
X03276998Y00155981D02*
X03323002Y00155981D01*
X03309896Y00167979D02*
X03290104Y00167979D01*
X03296908Y00179978D02*
X03303091Y00179978D01*
X03301415Y00215973D02*
X03298586Y00215973D01*
X03293616Y00227972D02*
X03306384Y00227972D01*
X03317846Y00239970D02*
X03282154Y00239970D01*
X03267312Y00251969D02*
X03538101Y00251969D01*
X03506510Y00239970D02*
X03382154Y00239970D01*
X03393616Y00227972D02*
X03488834Y00227972D01*
X03476835Y00215973D02*
X03398586Y00215973D01*
X03401000Y00203975D02*
X03468196Y00203975D01*
X03461269Y00191976D02*
X03401000Y00191976D01*
X03396908Y00179978D02*
X03456535Y00179978D01*
X03453320Y00167979D02*
X03390104Y00167979D01*
X03376998Y00155981D02*
X03451008Y00155981D01*
X03510035Y00047994D02*
X02951077Y00047994D01*
X02984116Y00263968D02*
X03005884Y00263968D01*
X03017883Y00275966D02*
X02972117Y00275966D01*
X02960118Y00287965D02*
X03029882Y00287965D01*
X03041880Y00299963D02*
X02799635Y00299963D01*
X02811633Y00287965D02*
X02831619Y00287965D01*
X02787636Y00311962D02*
X03053879Y00311962D01*
X03065877Y00323960D02*
X02775638Y00323960D01*
X03286092Y00263968D02*
X03813907Y00263968D01*
X03804753Y00275966D02*
X03413752Y00275966D01*
X03581899Y00251969D02*
X03832687Y00251969D01*
X03817846Y00239970D02*
X03613490Y00239970D01*
X03631166Y00227972D02*
X03806384Y00227972D01*
X03801414Y00215973D02*
X03643164Y00215973D01*
X03651804Y00203975D02*
X03799000Y00203975D01*
X03799000Y00191976D02*
X03658731Y00191976D01*
X03663465Y00179978D02*
X03803091Y00179978D01*
X03809896Y00167979D02*
X03666680Y00167979D01*
X03668992Y00155981D02*
X03823002Y00155981D01*
X03832726Y00141703D02*
X03826415Y00138487D01*
X03820684Y00134324D01*
X03815676Y00129315D01*
X03811513Y00123585D01*
X03808297Y00117274D01*
X03806108Y00110538D01*
X03805000Y00103542D01*
X03805000Y00103500D01*
X03846499Y00103500D01*
X03846499Y00096500D01*
X03805000Y00096500D01*
X03805000Y00096458D01*
X03806108Y00089462D01*
X03808297Y00082726D01*
X03811513Y00076415D01*
X03815676Y00070684D01*
X03820684Y00065676D01*
X03826415Y00061513D01*
X03832726Y00058297D01*
X03839462Y00056108D01*
X03846458Y00055000D01*
X03846500Y00055000D01*
X03846500Y00096499D01*
X03853500Y00096499D01*
X03853500Y00055000D01*
X03853542Y00055000D01*
X03860538Y00056108D01*
X03867274Y00058297D01*
X03873585Y00061513D01*
X03879315Y00065676D01*
X03884324Y00070684D01*
X03888487Y00076415D01*
X03891703Y00082726D01*
X03893892Y00089462D01*
X03895000Y00096458D01*
X03895000Y00096500D01*
X03853501Y00096500D01*
X03853501Y00103500D01*
X03895000Y00103500D01*
X03895000Y00103542D01*
X03893892Y00110538D01*
X03891703Y00117274D01*
X03888487Y00123585D01*
X03884324Y00129315D01*
X03879315Y00134324D01*
X03873585Y00138487D01*
X03867274Y00141703D01*
X03860538Y00143892D01*
X03853542Y00145000D01*
X03853500Y00145000D01*
X03853500Y00103501D01*
X03846500Y00103501D01*
X03846500Y00145000D01*
X03846458Y00145000D01*
X03839462Y00143892D01*
X03832726Y00141703D01*
X03840033Y00143982D02*
X03668992Y00143982D01*
X03668992Y00131984D02*
X03818344Y00131984D01*
X03809678Y00119985D02*
X03666134Y00119985D01*
X03662919Y00107987D02*
X03805704Y00107987D01*
X03805074Y00095988D02*
X03657556Y00095988D01*
X03650629Y00083990D02*
X03807886Y00083990D01*
X03814727Y00071991D02*
X03641129Y00071991D01*
X03629131Y00059993D02*
X03829398Y00059993D01*
X03846500Y00059993D02*
X03853500Y00059993D01*
X03853500Y00071991D02*
X03846500Y00071991D01*
X03846500Y00083990D02*
X03853500Y00083990D01*
X03853500Y00095988D02*
X03846500Y00095988D01*
X03846500Y00107987D02*
X03853500Y00107987D01*
X03853500Y00119985D02*
X03846500Y00119985D01*
X03846500Y00131984D02*
X03853500Y00131984D01*
X03853500Y00143982D02*
X03846500Y00143982D01*
X03859967Y00143982D02*
X03991008Y00143982D01*
X03991008Y00131984D02*
X03881656Y00131984D01*
X03890322Y00119985D02*
X03991008Y00119985D01*
X03991008Y00107987D02*
X03894296Y00107987D01*
X03894925Y00095988D02*
X03991008Y00095988D01*
X03991008Y00083990D02*
X03892114Y00083990D01*
X03885273Y00071991D02*
X03991008Y00071991D01*
X03991008Y00059993D02*
X03870602Y00059993D01*
X03876998Y00155981D02*
X03991008Y00155981D01*
X03991008Y00167979D02*
X03890104Y00167979D01*
X03896908Y00179978D02*
X03991008Y00179978D01*
X03991008Y00191976D02*
X03901000Y00191976D01*
X03901000Y00203975D02*
X03991008Y00203975D01*
X03991008Y00215973D02*
X03898586Y00215973D01*
X03893616Y00227972D02*
X03991008Y00227972D01*
X03991008Y00239970D02*
X03882154Y00239970D01*
X03867312Y00251969D02*
X03991008Y00251969D01*
X03991008Y00263968D02*
X03886092Y00263968D01*
X03895247Y00275966D02*
X03991008Y00275966D01*
X03991008Y00287965D02*
X03900217Y00287965D01*
X03901000Y00299963D02*
X03991008Y00299963D01*
X03991008Y00311962D02*
X03900247Y00311962D01*
X03895277Y00323960D02*
X03991008Y00323960D01*
X03991008Y00335959D02*
X03886166Y00335959D01*
X03867490Y00347957D02*
X03991008Y00347957D01*
X03991008Y00359956D02*
X03882081Y00359956D01*
X03893585Y00371954D02*
X03991008Y00371954D01*
X03991008Y00047994D02*
X03609965Y00047994D01*
X03680000Y01025000D02*
X03660000Y01045000D01*
X03585000Y01045000D01*
X03350000Y01780000D02*
X03345000Y01780000D01*
X03435000Y02035000D02*
X03420000Y02050000D01*
X03420000Y02070000D01*
X03425000Y02075000D01*
X03387153Y02087743D02*
X03386855Y02087743D01*
X03393396Y02099742D02*
X03374856Y02099742D01*
X03362858Y02111740D02*
X03406914Y02111740D01*
X03398610Y02123739D02*
X03350859Y02123739D01*
X03338861Y02135737D02*
X03395157Y02135737D01*
X03395157Y02147736D02*
X03326862Y02147736D01*
X03314864Y02159734D02*
X03400049Y02159734D01*
X03410387Y02171733D02*
X03302865Y02171733D01*
X03298463Y02183731D02*
X03532196Y02183731D01*
X03530000Y02195730D02*
X03301000Y02195730D01*
X03301000Y02207728D02*
X03530000Y02207728D01*
X03540841Y02171733D02*
X03459613Y02171733D01*
X03469951Y02159734D02*
X03552839Y02159734D01*
X03564838Y02147736D02*
X03474842Y02147736D01*
X03478861Y02135737D02*
X03576836Y02135737D01*
X03588835Y02123739D02*
X03490859Y02123739D01*
X03500444Y02111740D02*
X03600833Y02111740D01*
X03604567Y02108006D02*
X03604567Y02108006D01*
X03612832Y02099742D02*
X03503000Y02099742D01*
X03503000Y02087743D02*
X03665832Y02087743D01*
X03694167Y02087743D02*
X03717000Y02087743D01*
X03717000Y02099742D02*
X03711087Y02099742D01*
X03745000Y02070000D02*
X03730000Y02055000D01*
X03485000Y02055000D01*
X03475000Y02065000D01*
X03475000Y02100000D01*
X03435000Y02140000D01*
X03435000Y02035000D02*
X03740000Y02035000D01*
X03765000Y02060000D01*
X03765000Y02305000D01*
X03700000Y02370000D01*
X03700000Y02580000D01*
X03680000Y02550000D02*
X03680000Y02360000D01*
X03745000Y02295000D01*
X03745000Y02070000D01*
X03620000Y02345000D02*
X03620000Y02515000D01*
X03435000Y02700000D01*
X02080000Y02700000D01*
X02000000Y02780000D01*
X02000000Y02900000D01*
X02035315Y02939638D02*
X02074685Y02939638D01*
X02074468Y02953000D02*
X02102000Y02980532D01*
X02102000Y02996000D01*
X02059001Y02996000D01*
X02059001Y03004000D01*
X02102000Y03004000D01*
X02102000Y03019468D01*
X02074468Y03047000D01*
X02059000Y03047000D01*
X02059000Y03004001D01*
X02051000Y03004001D01*
X02051000Y03047000D01*
X02035532Y03047000D01*
X02008000Y03019468D01*
X02008000Y03004000D01*
X02050999Y03004000D01*
X02050999Y02996000D01*
X02008000Y02996000D01*
X02008000Y02980532D01*
X02035532Y02953000D01*
X02051000Y02953000D01*
X02051000Y02995999D01*
X02059000Y02995999D01*
X02059000Y02953000D01*
X02074468Y02953000D01*
X02086684Y02951637D02*
X02023316Y02951637D01*
X02024897Y02963635D02*
X01983589Y02963635D01*
X01976684Y02951637D02*
X01975000Y02951637D01*
X01995587Y02975634D02*
X02012898Y02975634D01*
X02008000Y02987632D02*
X01998000Y02987632D01*
X01998000Y02999631D02*
X02050999Y02999631D01*
X02059001Y02999631D02*
X02160999Y02999631D01*
X02160999Y02996000D02*
X02118000Y02996000D01*
X02118000Y02980532D01*
X02145532Y02953000D01*
X02161000Y02953000D01*
X02161000Y02995999D01*
X02169000Y02995999D01*
X02169000Y02953000D01*
X02184468Y02953000D01*
X02212000Y02980532D01*
X02212000Y02996000D01*
X02169001Y02996000D01*
X02169001Y03004000D01*
X02212000Y03004000D01*
X02212000Y03019468D01*
X02184468Y03047000D01*
X02169000Y03047000D01*
X02169000Y03004001D01*
X02161000Y03004001D01*
X02161000Y03047000D01*
X02145532Y03047000D01*
X02118000Y03019468D01*
X02118000Y03004000D01*
X02160999Y03004000D01*
X02160999Y02996000D01*
X02161000Y02987632D02*
X02169000Y02987632D01*
X02169000Y02975634D02*
X02161000Y02975634D01*
X02161000Y02963635D02*
X02169000Y02963635D01*
X02195103Y02963635D02*
X02236411Y02963635D01*
X02241953Y02953000D02*
X02198047Y02953000D01*
X02167000Y02921953D01*
X02167000Y02878047D01*
X02198047Y02847000D01*
X02241953Y02847000D01*
X02273000Y02878047D01*
X02273000Y02921953D01*
X02241953Y02953000D01*
X02243316Y02951637D02*
X02248410Y02951637D01*
X02253047Y02947000D02*
X02296953Y02947000D01*
X02328000Y02978047D01*
X02328000Y03021953D01*
X02296953Y03053000D01*
X02253047Y03053000D01*
X02222000Y03021953D01*
X02222000Y02978047D01*
X02253047Y02947000D01*
X02255315Y02939638D02*
X02294685Y02939638D01*
X02301590Y02951637D02*
X02306684Y02951637D01*
X02308047Y02953000D02*
X02277000Y02921953D01*
X02277000Y02878047D01*
X02308047Y02847000D01*
X02351953Y02847000D01*
X02383000Y02878047D01*
X02383000Y02921953D01*
X02351953Y02953000D01*
X02308047Y02953000D01*
X02313589Y02963635D02*
X02346411Y02963635D01*
X02353316Y02951637D02*
X02358410Y02951637D01*
X02363047Y02947000D02*
X02406953Y02947000D01*
X02438000Y02978047D01*
X02438000Y03021953D01*
X02406953Y03053000D01*
X02363047Y03053000D01*
X02332000Y03021953D01*
X02332000Y02978047D01*
X02363047Y02947000D01*
X02365315Y02939638D02*
X02404685Y02939638D01*
X02411590Y02951637D02*
X02416684Y02951637D01*
X02418047Y02953000D02*
X02387000Y02921953D01*
X02387000Y02878047D01*
X02418047Y02847000D01*
X02461953Y02847000D01*
X02493000Y02878047D01*
X02493000Y02921953D01*
X02461953Y02953000D01*
X02418047Y02953000D01*
X02423589Y02963635D02*
X02601000Y02963635D01*
X02601000Y02964350D02*
X02601000Y02935650D01*
X02608428Y02907928D01*
X02622778Y02883072D01*
X02643072Y02862778D01*
X02667928Y02848428D01*
X02695650Y02841000D01*
X02724350Y02841000D01*
X02752072Y02848428D01*
X02776928Y02862778D01*
X02797222Y02883072D01*
X02811572Y02907928D01*
X02819000Y02935650D01*
X02819000Y02964350D01*
X02811572Y02992072D01*
X02797222Y03016928D01*
X02776928Y03037222D01*
X02752072Y03051572D01*
X02724350Y03059000D01*
X02695650Y03059000D01*
X02667928Y03051572D01*
X02643072Y03037222D01*
X02622778Y03016928D01*
X02608428Y02992072D01*
X02601000Y02964350D01*
X02604023Y02975634D02*
X02435587Y02975634D01*
X02438000Y02987632D02*
X02607239Y02987632D01*
X02612792Y02999631D02*
X02438000Y02999631D01*
X02438000Y03011629D02*
X02619719Y03011629D01*
X02629479Y03023628D02*
X02436325Y03023628D01*
X02424327Y03035626D02*
X02641477Y03035626D01*
X02661092Y03047625D02*
X02412328Y03047625D01*
X02357672Y03047625D02*
X02302328Y03047625D01*
X02314327Y03035626D02*
X02345673Y03035626D01*
X02333675Y03023628D02*
X02326325Y03023628D01*
X02328000Y03011629D02*
X02332000Y03011629D01*
X02332000Y02999631D02*
X02328000Y02999631D01*
X02328000Y02987632D02*
X02332000Y02987632D01*
X02334413Y02975634D02*
X02325587Y02975634D01*
X02282687Y02927640D02*
X02267313Y02927640D01*
X02273000Y02915641D02*
X02277000Y02915641D01*
X02277000Y02903643D02*
X02273000Y02903643D01*
X02273000Y02891644D02*
X02277000Y02891644D01*
X02277000Y02879646D02*
X02273000Y02879646D01*
X02262600Y02867647D02*
X02287399Y02867647D01*
X02299398Y02855649D02*
X02250602Y02855649D01*
X02189398Y02855649D02*
X02140602Y02855649D01*
X02131953Y02847000D02*
X02163000Y02878047D01*
X02163000Y02921953D01*
X02131953Y02953000D01*
X02088047Y02953000D01*
X02057000Y02921953D01*
X02057000Y02878047D01*
X02088047Y02847000D01*
X02131953Y02847000D01*
X02152600Y02867647D02*
X02177399Y02867647D01*
X02167000Y02879646D02*
X02163000Y02879646D01*
X02163000Y02891644D02*
X02167000Y02891644D01*
X02167000Y02903643D02*
X02163000Y02903643D01*
X02163000Y02915641D02*
X02167000Y02915641D01*
X02172687Y02927640D02*
X02157313Y02927640D01*
X02145315Y02939638D02*
X02184685Y02939638D01*
X02196684Y02951637D02*
X02133316Y02951637D01*
X02134897Y02963635D02*
X02085103Y02963635D01*
X02097102Y02975634D02*
X02122898Y02975634D01*
X02118000Y02987632D02*
X02102000Y02987632D01*
X02102000Y03011629D02*
X02118000Y03011629D01*
X02122160Y03023628D02*
X02097840Y03023628D01*
X02085841Y03035626D02*
X02134159Y03035626D01*
X02161000Y03035626D02*
X02169000Y03035626D01*
X02169000Y03023628D02*
X02161000Y03023628D01*
X02161000Y03011629D02*
X02169000Y03011629D01*
X02169001Y02999631D02*
X02222000Y02999631D01*
X02222000Y03011629D02*
X02212000Y03011629D01*
X02207840Y03023628D02*
X02223675Y03023628D01*
X02235673Y03035626D02*
X02195841Y03035626D01*
X02212000Y02987632D02*
X02222000Y02987632D01*
X02224413Y02975634D02*
X02207102Y02975634D01*
X02247672Y03047625D02*
X01972328Y03047625D01*
X01984327Y03035626D02*
X02024159Y03035626D01*
X02012160Y03023628D02*
X01996325Y03023628D01*
X01998000Y03011629D02*
X02008000Y03011629D01*
X02051000Y03011629D02*
X02059000Y03011629D01*
X02059000Y03023628D02*
X02051000Y03023628D01*
X02051000Y03035626D02*
X02059000Y03035626D01*
X02059000Y02987632D02*
X02051000Y02987632D01*
X02051000Y02975634D02*
X02059000Y02975634D01*
X02059000Y02963635D02*
X02051000Y02963635D01*
X02047313Y02927640D02*
X02062687Y02927640D01*
X02057000Y02915641D02*
X02053000Y02915641D01*
X02053000Y02903643D02*
X02057000Y02903643D01*
X02057000Y02891644D02*
X02053000Y02891644D01*
X02053000Y02879646D02*
X02057000Y02879646D01*
X02067399Y02867647D02*
X02042600Y02867647D01*
X02030602Y02855649D02*
X02079398Y02855649D01*
X02028000Y02843650D02*
X02685759Y02843650D01*
X02655421Y02855649D02*
X02470602Y02855649D01*
X02482600Y02867647D02*
X02638203Y02867647D01*
X02626205Y02879646D02*
X02493000Y02879646D01*
X02493000Y02891644D02*
X02617829Y02891644D01*
X02610902Y02903643D02*
X02493000Y02903643D01*
X02493000Y02915641D02*
X02606361Y02915641D01*
X02603146Y02927640D02*
X02487313Y02927640D01*
X02475315Y02939638D02*
X02601000Y02939638D01*
X02601000Y02951637D02*
X02463316Y02951637D01*
X02392687Y02927640D02*
X02377313Y02927640D01*
X02383000Y02915641D02*
X02387000Y02915641D01*
X02387000Y02903643D02*
X02383000Y02903643D01*
X02383000Y02891644D02*
X02387000Y02891644D01*
X02387000Y02879646D02*
X02383000Y02879646D01*
X02372600Y02867647D02*
X02397399Y02867647D01*
X02409398Y02855649D02*
X02360602Y02855649D01*
X02083934Y02735663D02*
X03215742Y02735663D01*
X03215157Y02747662D02*
X02071936Y02747662D01*
X02059937Y02759660D02*
X03217947Y02759660D01*
X03225313Y02771659D02*
X02047939Y02771659D01*
X02035940Y02783657D02*
X03244214Y02783657D01*
X03265786Y02783657D02*
X03449060Y02783657D01*
X03461058Y02795656D02*
X02028000Y02795656D01*
X02028000Y02807655D02*
X03473057Y02807655D01*
X03485055Y02819653D02*
X02028000Y02819653D01*
X02028000Y02831652D02*
X03497054Y02831652D01*
X03502000Y02843650D02*
X02734240Y02843650D01*
X02764578Y02855649D02*
X03502000Y02855649D01*
X03502000Y02867647D02*
X02781796Y02867647D01*
X02793795Y02879646D02*
X03502000Y02879646D01*
X03494478Y02891644D02*
X02802171Y02891644D01*
X02809098Y02903643D02*
X03490157Y02903643D01*
X03490157Y02915641D02*
X02813639Y02915641D01*
X02816854Y02927640D02*
X03494181Y02927640D01*
X03503293Y02939638D02*
X02819000Y02939638D01*
X02819000Y02951637D02*
X03791008Y02951637D01*
X03791008Y02963635D02*
X02819000Y02963635D01*
X02815977Y02975634D02*
X03794032Y02975634D01*
X03797247Y02987632D02*
X02812761Y02987632D01*
X02807208Y02999631D02*
X03802801Y02999631D01*
X03809729Y03011629D02*
X02800281Y03011629D01*
X02790521Y03023628D02*
X03819490Y03023628D01*
X03831488Y03035626D02*
X02778523Y03035626D01*
X02758908Y03047625D02*
X03851107Y03047625D01*
X03948893Y03047625D02*
X03991008Y03047625D01*
X03991008Y03059624D02*
X00527843Y03059624D01*
X00502157Y03059624D02*
X00046000Y03059624D01*
X00046000Y03071622D02*
X03991008Y03071622D01*
X03991008Y03083621D02*
X00046000Y03083621D01*
X00046000Y03095619D02*
X03991008Y03095619D01*
X03991008Y03035626D02*
X03968511Y03035626D01*
X03980510Y03023628D02*
X03991008Y03023628D01*
X03991008Y03011629D02*
X03990271Y03011629D01*
X03991008Y02879646D02*
X03983784Y02879646D01*
X03991008Y02867647D02*
X03971785Y02867647D01*
X03954563Y02855649D02*
X03991008Y02855649D01*
X03991008Y02843650D02*
X03924210Y02843650D01*
X03875790Y02843650D02*
X03807471Y02843650D01*
X03809842Y02831652D02*
X03991008Y02831652D01*
X03991008Y02819653D02*
X03808839Y02819653D01*
X03803869Y02807655D02*
X03991008Y02807655D01*
X03991008Y02795656D02*
X03791200Y02795656D01*
X03770000Y02830000D02*
X03725000Y02830000D01*
X03660000Y02765000D01*
X03660000Y02570000D01*
X03680000Y02550000D01*
X03652000Y02531688D02*
X03642909Y02531688D01*
X03646715Y02543687D02*
X03630911Y02543687D01*
X03635622Y02555686D02*
X03618912Y02555686D01*
X03606914Y02567684D02*
X03632000Y02567684D01*
X03632000Y02579683D02*
X03594915Y02579683D01*
X03582917Y02591681D02*
X03632000Y02591681D01*
X03632000Y02603680D02*
X03570918Y02603680D01*
X03558920Y02615678D02*
X03632000Y02615678D01*
X03632000Y02627677D02*
X03546921Y02627677D01*
X03534923Y02639675D02*
X03632000Y02639675D01*
X03632000Y02651674D02*
X03522924Y02651674D01*
X03510926Y02663672D02*
X03632000Y02663672D01*
X03632000Y02675671D02*
X03498927Y02675671D01*
X03486929Y02687669D02*
X03632000Y02687669D01*
X03632000Y02699668D02*
X03474930Y02699668D01*
X03462931Y02711666D02*
X03632000Y02711666D01*
X03632000Y02723665D02*
X03468263Y02723665D01*
X03480261Y02735663D02*
X03632000Y02735663D01*
X03632000Y02747662D02*
X03492260Y02747662D01*
X03504258Y02759660D02*
X03632000Y02759660D01*
X03632451Y02771659D02*
X03516257Y02771659D01*
X03528255Y02783657D02*
X03639060Y02783657D01*
X03651058Y02795656D02*
X03540254Y02795656D01*
X03552252Y02807655D02*
X03663057Y02807655D01*
X03675055Y02819653D02*
X03558000Y02819653D01*
X03558000Y02831652D02*
X03687054Y02831652D01*
X03699052Y02843650D02*
X03558000Y02843650D01*
X03558000Y02855649D02*
X03713754Y02855649D01*
X03756775Y02867647D02*
X03558000Y02867647D01*
X03558000Y02879646D02*
X03816216Y02879646D01*
X03807838Y02891644D02*
X03565522Y02891644D01*
X03569842Y02903643D02*
X03800911Y02903643D01*
X03796369Y02915641D02*
X03569842Y02915641D01*
X03565819Y02927640D02*
X03793154Y02927640D01*
X03791008Y02939638D02*
X03556707Y02939638D01*
X03530000Y02910000D02*
X03530000Y02825000D01*
X03430000Y02725000D01*
X03275000Y02725000D01*
X03255000Y02745000D01*
X03292053Y02759660D02*
X03425063Y02759660D01*
X03437061Y02771659D02*
X03284687Y02771659D01*
X03417898Y02639675D02*
X01828000Y02639675D01*
X01828000Y02627677D02*
X03429897Y02627677D01*
X03441895Y02615678D02*
X01828000Y02615678D01*
X01828000Y02603680D02*
X03453894Y02603680D01*
X03465892Y02591681D02*
X03384664Y02591681D01*
X03394972Y02579683D02*
X03477891Y02579683D01*
X03489889Y02567684D02*
X03399842Y02567684D01*
X03399842Y02555686D02*
X03501888Y02555686D01*
X03513886Y02543687D02*
X03396368Y02543687D01*
X03388034Y02531688D02*
X03525885Y02531688D01*
X03648000Y02519690D02*
X03652000Y02519690D01*
X03652000Y02507691D02*
X03648000Y02507691D01*
X03648000Y02495693D02*
X03652000Y02495693D01*
X03652000Y02483694D02*
X03648000Y02483694D01*
X03648000Y02471696D02*
X03652000Y02471696D01*
X03652000Y02459697D02*
X03648000Y02459697D01*
X03648000Y02447699D02*
X03652000Y02447699D01*
X03652000Y02435700D02*
X03648000Y02435700D01*
X03648000Y02423702D02*
X03652000Y02423702D01*
X03652000Y02411703D02*
X03648000Y02411703D01*
X03648000Y02399705D02*
X03652000Y02399705D01*
X03652000Y02387706D02*
X03648000Y02387706D01*
X03648000Y02375708D02*
X03652000Y02375708D01*
X03620000Y02345000D02*
X03615000Y02350000D01*
X03728000Y02471696D02*
X03991008Y02471696D01*
X03991008Y02483694D02*
X03728000Y02483694D01*
X03728000Y02495693D02*
X03991008Y02495693D01*
X03991008Y02507691D02*
X03728000Y02507691D01*
X03728000Y02519690D02*
X03991008Y02519690D01*
X03991008Y02531688D02*
X03728000Y02531688D01*
X03728000Y02543687D02*
X03991008Y02543687D01*
X03991008Y02555686D02*
X03732031Y02555686D01*
X03738024Y02567684D02*
X03991008Y02567684D01*
X03991008Y02579683D02*
X03739842Y02579683D01*
X03738287Y02591681D02*
X03991008Y02591681D01*
X03991008Y02603680D02*
X03732666Y02603680D01*
X03717978Y02615678D02*
X03991008Y02615678D01*
X03991008Y02627677D02*
X03688000Y02627677D01*
X03688000Y02639675D02*
X03991008Y02639675D01*
X03991008Y02651674D02*
X03688000Y02651674D01*
X03688000Y02663672D02*
X03991008Y02663672D01*
X03991008Y02675671D02*
X03688000Y02675671D01*
X03688000Y02687669D02*
X03991008Y02687669D01*
X03991008Y02699668D02*
X03688000Y02699668D01*
X03688000Y02711666D02*
X03991008Y02711666D01*
X03991008Y02723665D02*
X03688000Y02723665D01*
X03688000Y02735663D02*
X03991008Y02735663D01*
X03991008Y02747662D02*
X03688000Y02747662D01*
X03694258Y02759660D02*
X03991008Y02759660D01*
X03991008Y02771659D02*
X03706257Y02771659D01*
X03718255Y02783657D02*
X03991008Y02783657D01*
X03845437Y02855649D02*
X03800697Y02855649D01*
X03783225Y02867647D02*
X03828215Y02867647D01*
X03748800Y02795656D02*
X03730254Y02795656D01*
X03335335Y02591681D02*
X01828000Y02591681D01*
X01828000Y02579683D02*
X03262256Y02579683D01*
X02050900Y02651674D02*
X01828000Y02651674D01*
X01828000Y02663672D02*
X02038901Y02663672D01*
X02026903Y02675671D02*
X01828000Y02675671D01*
X01828000Y02687669D02*
X02014904Y02687669D01*
X02002906Y02699668D02*
X01828000Y02699668D01*
X01828000Y02711666D02*
X01990907Y02711666D01*
X01978909Y02723665D02*
X01828000Y02723665D01*
X01828000Y02735663D02*
X01966910Y02735663D01*
X01954912Y02747662D02*
X01828000Y02747662D01*
X01828000Y02759660D02*
X01942913Y02759660D01*
X01930914Y02771659D02*
X01828000Y02771659D01*
X01828000Y02783657D02*
X01919297Y02783657D01*
X01915000Y02795656D02*
X01828000Y02795656D01*
X01828000Y02807655D02*
X01915000Y02807655D01*
X01915000Y02819653D02*
X01828000Y02819653D01*
X01831250Y02831652D02*
X01915000Y02831652D01*
X01915000Y02843650D02*
X01843248Y02843650D01*
X01855247Y02855649D02*
X01859398Y02855649D01*
X01863000Y02951637D02*
X01866684Y02951637D01*
X01873588Y02963635D02*
X01906411Y02963635D01*
X01913316Y02951637D02*
X01915000Y02951637D01*
X01894413Y02975634D02*
X01885587Y02975634D01*
X01888000Y02987632D02*
X01892000Y02987632D01*
X01892000Y02999631D02*
X01888000Y02999631D01*
X01888000Y03011629D02*
X01892000Y03011629D01*
X01893675Y03023628D02*
X01886325Y03023628D01*
X01874327Y03035626D02*
X01905673Y03035626D01*
X01917672Y03047625D02*
X01862328Y03047625D01*
X01147672Y03047625D02*
X01092328Y03047625D01*
X01104327Y03035626D02*
X01135673Y03035626D01*
X01123675Y03023628D02*
X01116325Y03023628D01*
X01118000Y03011629D02*
X01122000Y03011629D01*
X01122000Y02999631D02*
X01118000Y02999631D01*
X01118000Y02987632D02*
X01122000Y02987632D01*
X01124413Y02975634D02*
X01115587Y02975634D01*
X01103589Y02963635D02*
X01136411Y02963635D01*
X01026411Y02963635D02*
X00993589Y02963635D01*
X01005587Y02975634D02*
X01014413Y02975634D01*
X01012000Y02987632D02*
X01008000Y02987632D01*
X01008000Y02999631D02*
X01012000Y02999631D01*
X01012000Y03011629D02*
X01008000Y03011629D01*
X01006325Y03023628D02*
X01013675Y03023628D01*
X01025673Y03035626D02*
X00994327Y03035626D01*
X00982328Y03047625D02*
X01037672Y03047625D01*
X00927672Y03047625D02*
X00872328Y03047625D01*
X00884327Y03035626D02*
X00915673Y03035626D01*
X00903675Y03023628D02*
X00896325Y03023628D01*
X00898000Y03011629D02*
X00902000Y03011629D01*
X00902000Y02999631D02*
X00898000Y02999631D01*
X00898000Y02987632D02*
X00902000Y02987632D01*
X00904413Y02975634D02*
X00895587Y02975634D01*
X00883589Y02963635D02*
X00916411Y02963635D01*
X00806411Y02963635D02*
X00773589Y02963635D01*
X00785587Y02975634D02*
X00794413Y02975634D01*
X00792000Y02987632D02*
X00788000Y02987632D01*
X00788000Y02999631D02*
X00792000Y02999631D01*
X00792000Y03011629D02*
X00788000Y03011629D01*
X00786325Y03023628D02*
X00793675Y03023628D01*
X00805673Y03035626D02*
X00774327Y03035626D01*
X00762328Y03047625D02*
X00817672Y03047625D01*
X00707672Y03047625D02*
X00652328Y03047625D01*
X00664327Y03035626D02*
X00695673Y03035626D01*
X00683675Y03023628D02*
X00676325Y03023628D01*
X00678000Y03011629D02*
X00682000Y03011629D01*
X00682000Y02999631D02*
X00678000Y02999631D01*
X00678000Y02987632D02*
X00682000Y02987632D01*
X00684413Y02975634D02*
X00675587Y02975634D01*
X00663588Y02963635D02*
X00696411Y02963635D01*
X00597672Y03047625D02*
X00552228Y03047625D01*
X00564226Y03035626D02*
X00585673Y03035626D01*
X00573675Y03023628D02*
X00570156Y03023628D01*
X00477772Y03047625D02*
X00238908Y03047625D01*
X00232072Y03051572D02*
X00204350Y03059000D01*
X00175650Y03059000D01*
X00147928Y03051572D01*
X00123072Y03037222D01*
X00102778Y03016928D01*
X00088428Y02992072D01*
X00081000Y02964350D01*
X00081000Y02935650D01*
X00088428Y02907928D01*
X00102778Y02883072D01*
X00123072Y02862778D01*
X00147928Y02848428D01*
X00175650Y02841000D01*
X00204350Y02841000D01*
X00232072Y02848428D01*
X00256928Y02862778D01*
X00277222Y02883072D01*
X00291572Y02907928D01*
X00299000Y02935650D01*
X00299000Y02964350D01*
X00291572Y02992072D01*
X00277222Y03016928D01*
X00256928Y03037222D01*
X00232072Y03051572D01*
X00258523Y03035626D02*
X00465774Y03035626D01*
X00453775Y03023628D02*
X00270521Y03023628D01*
X00280281Y03011629D02*
X00441777Y03011629D01*
X00429778Y02999631D02*
X00287208Y02999631D01*
X00292761Y02987632D02*
X00417780Y02987632D01*
X00407746Y02975634D02*
X00295977Y02975634D01*
X00299000Y02963635D02*
X00402776Y02963635D01*
X00400000Y02951637D02*
X00299000Y02951637D01*
X00299000Y02939638D02*
X00400000Y02939638D01*
X00390716Y02927640D02*
X00296854Y02927640D01*
X00293639Y02915641D02*
X00378718Y02915641D01*
X00366719Y02903643D02*
X00289098Y02903643D01*
X00282171Y02891644D02*
X00354720Y02891644D01*
X00342722Y02879646D02*
X00273795Y02879646D01*
X00261796Y02867647D02*
X00330723Y02867647D01*
X00318725Y02855649D02*
X00244578Y02855649D01*
X00214240Y02843650D02*
X00306726Y02843650D01*
X00294728Y02831652D02*
X00046000Y02831652D01*
X00046000Y02843650D02*
X00165759Y02843650D01*
X00135421Y02855649D02*
X00046000Y02855649D01*
X00046000Y02867647D02*
X00118203Y02867647D01*
X00106205Y02879646D02*
X00046000Y02879646D01*
X00046000Y02891644D02*
X00097829Y02891644D01*
X00090902Y02903643D02*
X00046000Y02903643D01*
X00046000Y02915641D02*
X00086361Y02915641D01*
X00083146Y02927640D02*
X00046000Y02927640D01*
X00046000Y02939638D02*
X00081000Y02939638D01*
X00081000Y02951637D02*
X00046000Y02951637D01*
X00046000Y02963635D02*
X00081000Y02963635D01*
X00084023Y02975634D02*
X00046000Y02975634D01*
X00046000Y02987632D02*
X00087239Y02987632D01*
X00092792Y02999631D02*
X00046000Y02999631D01*
X00046000Y03011629D02*
X00099719Y03011629D01*
X00109479Y03023628D02*
X00046000Y03023628D01*
X00046000Y03035626D02*
X00121477Y03035626D01*
X00141092Y03047625D02*
X00046000Y03047625D01*
X00046000Y02819653D02*
X00282729Y02819653D01*
X00270731Y02807655D02*
X00046000Y02807655D01*
X00046000Y02795656D02*
X00258732Y02795656D01*
X00246734Y02783657D02*
X00046000Y02783657D01*
X00046000Y02771659D02*
X00234735Y02771659D01*
X00222737Y02759660D02*
X00046000Y02759660D01*
X00046000Y02747662D02*
X00210738Y02747662D01*
X00198740Y02735663D02*
X00046000Y02735663D01*
X00046000Y02723665D02*
X00186741Y02723665D01*
X00174743Y02711666D02*
X00046000Y02711666D01*
X00046000Y02699668D02*
X00162744Y02699668D01*
X00150746Y02687669D02*
X00046000Y02687669D01*
X00046000Y02675671D02*
X00138747Y02675671D01*
X00126749Y02663672D02*
X00046000Y02663672D01*
X00046000Y02651674D02*
X00114750Y02651674D01*
X00102751Y02639675D02*
X00046000Y02639675D01*
X00046000Y02627677D02*
X00090753Y02627677D01*
X00078754Y02615678D02*
X00046000Y02615678D01*
X00046000Y02603680D02*
X00066756Y02603680D01*
X00054757Y02591681D02*
X00046000Y02591681D01*
X00142617Y02495693D02*
X00361000Y02495693D01*
X00361000Y02507691D02*
X00154615Y02507691D01*
X00166614Y02519690D02*
X00361000Y02519690D01*
X00361000Y02531688D02*
X00178612Y02531688D01*
X00190611Y02543687D02*
X00361000Y02543687D01*
X00361000Y02555686D02*
X00202609Y02555686D01*
X00214608Y02567684D02*
X00361000Y02567684D01*
X00361000Y02579683D02*
X00226606Y02579683D01*
X00238605Y02591681D02*
X00361000Y02591681D01*
X00361000Y02603680D02*
X00250603Y02603680D01*
X00262602Y02615678D02*
X00361000Y02615678D01*
X00361000Y02627677D02*
X00274601Y02627677D01*
X00286599Y02639675D02*
X00361000Y02639675D01*
X00361000Y02651674D02*
X00298598Y02651674D01*
X00310596Y02663672D02*
X00361000Y02663672D01*
X00364690Y02675671D02*
X00322595Y02675671D01*
X00334593Y02687669D02*
X00374586Y02687669D01*
X00386585Y02699668D02*
X00346592Y02699668D01*
X00358590Y02711666D02*
X00398583Y02711666D01*
X00410582Y02723665D02*
X00370589Y02723665D01*
X00382587Y02735663D02*
X00422580Y02735663D01*
X00434579Y02747662D02*
X00394586Y02747662D01*
X00406584Y02759660D02*
X00446577Y02759660D01*
X00458576Y02771659D02*
X00418583Y02771659D01*
X00430581Y02783657D02*
X00470574Y02783657D01*
X00482573Y02795656D02*
X00442580Y02795656D01*
X00454578Y02807655D02*
X00494571Y02807655D01*
X00506570Y02819653D02*
X00466577Y02819653D01*
X00478575Y02831652D02*
X00518568Y02831652D01*
X00530567Y02843650D02*
X00493812Y02843650D01*
X00507572Y02855649D02*
X00539398Y02855649D01*
X00527399Y02867647D02*
X00516954Y02867647D01*
X00745752Y02687669D02*
X01071000Y02687669D01*
X01071000Y02675671D02*
X00618754Y02675671D01*
X00606755Y02663672D02*
X01071000Y02663672D01*
X01071000Y02651674D02*
X00594757Y02651674D01*
X00582758Y02639675D02*
X01071000Y02639675D01*
X01071000Y02627677D02*
X00570760Y02627677D01*
X00558761Y02615678D02*
X01071000Y02615678D01*
X01071000Y02603680D02*
X00549000Y02603680D01*
X00549000Y02591681D02*
X01071000Y02591681D01*
X01071000Y02579683D02*
X00549000Y02579683D01*
X00549000Y02567684D02*
X01071000Y02567684D01*
X01071000Y02555686D02*
X00549000Y02555686D01*
X00549000Y02543687D02*
X01071000Y02543687D01*
X01071000Y02531688D02*
X00549000Y02531688D01*
X00549000Y02519690D02*
X01071000Y02519690D01*
X01071000Y02507691D02*
X00549000Y02507691D01*
X00549000Y02495693D02*
X01071000Y02495693D01*
X01071000Y02483694D02*
X00549000Y02483694D01*
X00549000Y02471696D02*
X01071000Y02471696D01*
X01071000Y02459697D02*
X00549000Y02459697D01*
X00549000Y02447699D02*
X01071000Y02447699D01*
X01071000Y02435700D02*
X00549000Y02435700D01*
X00549000Y02423702D02*
X01071000Y02423702D01*
X01071000Y02411703D02*
X00549000Y02411703D01*
X00549000Y02399705D02*
X01071000Y02399705D01*
X01071000Y02387706D02*
X00549000Y02387706D01*
X00549000Y02375708D02*
X01071000Y02375708D01*
X01071000Y02363709D02*
X00549000Y02363709D01*
X00549000Y02351711D02*
X01071000Y02351711D01*
X01071000Y02339712D02*
X00549000Y02339712D01*
X00549000Y02327714D02*
X01071000Y02327714D01*
X01071000Y02315715D02*
X00549000Y02315715D01*
X00549000Y02303717D02*
X01071000Y02303717D01*
X01071000Y02291718D02*
X00549000Y02291718D01*
X00549000Y02279719D02*
X01071000Y02279719D01*
X01071000Y02267721D02*
X00549000Y02267721D01*
X00549000Y02255722D02*
X01071000Y02255722D01*
X01071000Y02243724D02*
X00549000Y02243724D01*
X00549000Y02231725D02*
X01071000Y02231725D01*
X01071000Y02219727D02*
X00549000Y02219727D01*
X00549000Y02207728D02*
X01071000Y02207728D01*
X01071000Y02195730D02*
X00549000Y02195730D01*
X00549000Y02183731D02*
X01071000Y02183731D01*
X01071000Y02171733D02*
X00549000Y02171733D01*
X00549000Y02159734D02*
X01071000Y02159734D01*
X01071000Y02147736D02*
X00549000Y02147736D01*
X00549000Y02135737D02*
X01071000Y02135737D01*
X01071000Y02123739D02*
X00549000Y02123739D01*
X00549000Y02111740D02*
X01071000Y02111740D01*
X01071000Y02099742D02*
X00549000Y02099742D01*
X00549000Y02087743D02*
X01071000Y02087743D01*
X01071000Y02075745D02*
X00549000Y02075745D01*
X00549000Y02063746D02*
X01071000Y02063746D01*
X01071000Y02051748D02*
X00549000Y02051748D01*
X00549000Y02039749D02*
X01071000Y02039749D01*
X01071000Y02027750D02*
X00549000Y02027750D01*
X00549000Y02015752D02*
X01047200Y02015752D01*
X01032408Y02003753D02*
X00549000Y02003753D01*
X00549000Y01991755D02*
X01026744Y01991755D01*
X00447109Y01559808D02*
X00429000Y01559808D01*
X00429000Y01571807D02*
X00435110Y01571807D01*
X00361000Y01571807D02*
X00308576Y01571807D01*
X00328466Y01559808D02*
X00361000Y01559808D01*
X00352456Y01547810D02*
X00337544Y01547810D01*
X00342514Y01535811D02*
X00347486Y01535811D01*
X00347252Y01523813D02*
X00342748Y01523813D01*
X00342748Y01511814D02*
X00347252Y01511814D01*
X00347252Y01499815D02*
X00342748Y01499815D01*
X00342748Y01487817D02*
X00347252Y01487817D01*
X00347252Y01475818D02*
X00342748Y01475818D01*
X00342361Y01463820D02*
X00347639Y01463820D01*
X00352609Y01451821D02*
X00337391Y01451821D01*
X00328097Y01439823D02*
X00361903Y01439823D01*
X00261903Y01439823D02*
X00218638Y01439823D01*
X00216881Y01438546D02*
X00222197Y01442408D01*
X00226844Y01447055D01*
X00230706Y01452371D01*
X00233689Y01458226D01*
X00235720Y01464476D01*
X00236748Y01470966D01*
X00236748Y01498126D01*
X00196875Y01498126D01*
X00196875Y01501874D01*
X00236748Y01501874D01*
X00236748Y01529034D01*
X00235720Y01535524D01*
X00233689Y01541774D01*
X00230706Y01547629D01*
X00226844Y01552945D01*
X00222197Y01557592D01*
X00216881Y01561454D01*
X00211026Y01564437D01*
X00204776Y01566468D01*
X00198286Y01567496D01*
X00196874Y01567496D01*
X00196874Y01501875D01*
X00193126Y01501875D01*
X00193126Y01567496D01*
X00191714Y01567496D01*
X00185224Y01566468D01*
X00178974Y01564437D01*
X00173119Y01561454D01*
X00167803Y01557592D01*
X00163156Y01552945D01*
X00159294Y01547629D01*
X00156311Y01541774D01*
X00154280Y01535524D01*
X00153252Y01529034D01*
X00153252Y01501874D01*
X00193125Y01501874D01*
X00193125Y01498126D01*
X00153252Y01498126D01*
X00153252Y01470966D01*
X00154280Y01464476D01*
X00156311Y01458226D01*
X00159294Y01452371D01*
X00163156Y01447055D01*
X00167803Y01442408D01*
X00173119Y01438546D01*
X00178974Y01435563D01*
X00185224Y01433532D01*
X00191714Y01432504D01*
X00193126Y01432504D01*
X00193126Y01498125D01*
X00196874Y01498125D01*
X00196874Y01432504D01*
X00198286Y01432504D01*
X00204776Y01433532D01*
X00211026Y01435563D01*
X00216881Y01438546D01*
X00230306Y01451821D02*
X00252609Y01451821D01*
X00247639Y01463820D02*
X00235507Y01463820D01*
X00236748Y01475818D02*
X00247252Y01475818D01*
X00247252Y01487817D02*
X00236748Y01487817D01*
X00247252Y01499815D02*
X00196875Y01499815D01*
X00193125Y01499815D02*
X00140000Y01499815D01*
X00140000Y01487817D02*
X00153252Y01487817D01*
X00153252Y01475818D02*
X00140000Y01475818D01*
X00140000Y01463820D02*
X00154493Y01463820D01*
X00159693Y01451821D02*
X00140000Y01451821D01*
X00140000Y01439823D02*
X00171362Y01439823D01*
X00193126Y01439823D02*
X00196874Y01439823D01*
X00196874Y01451821D02*
X00193126Y01451821D01*
X00193126Y01463820D02*
X00196874Y01463820D01*
X00196874Y01475818D02*
X00193126Y01475818D01*
X00193126Y01487817D02*
X00196874Y01487817D01*
X00196874Y01511814D02*
X00193126Y01511814D01*
X00193126Y01523813D02*
X00196874Y01523813D01*
X00196874Y01535811D02*
X00193126Y01535811D01*
X00193126Y01547810D02*
X00196874Y01547810D01*
X00196874Y01559808D02*
X00193126Y01559808D01*
X00170854Y01559808D02*
X00140000Y01559808D01*
X00140000Y01547810D02*
X00159425Y01547810D01*
X00154373Y01535811D02*
X00140000Y01535811D01*
X00140000Y01523813D02*
X00153252Y01523813D01*
X00153252Y01511814D02*
X00140000Y01511814D01*
X00140000Y01571807D02*
X00281424Y01571807D01*
X00261534Y01559808D02*
X00219146Y01559808D01*
X00230575Y01547810D02*
X00252456Y01547810D01*
X00247486Y01535811D02*
X00235627Y01535811D01*
X00236748Y01523813D02*
X00247252Y01523813D01*
X00247252Y01511814D02*
X00236748Y01511814D01*
X00140000Y01583805D02*
X00361000Y01583805D01*
X00361000Y01595804D02*
X00140000Y01595804D01*
X00140000Y01607802D02*
X00361000Y01607802D01*
X00361000Y01619801D02*
X00140000Y01619801D01*
X00140000Y01631799D02*
X00361000Y01631799D01*
X00361000Y01643798D02*
X00140000Y01643798D01*
X00140000Y01655796D02*
X00361000Y01655796D01*
X00361000Y01667795D02*
X00140000Y01667795D01*
X00140000Y01679793D02*
X00361000Y01679793D01*
X00361000Y01691792D02*
X00140000Y01691792D01*
X00140000Y01703790D02*
X00361000Y01703790D01*
X00361000Y01715789D02*
X00140000Y01715789D01*
X00140000Y01727787D02*
X00361000Y01727787D01*
X00361000Y01739786D02*
X00140000Y01739786D01*
X00140000Y01751784D02*
X00361000Y01751784D01*
X00361000Y01763783D02*
X00140000Y01763783D01*
X00140000Y01775781D02*
X00361000Y01775781D01*
X00361000Y01787780D02*
X00140000Y01787780D01*
X00140000Y01799779D02*
X00361000Y01799779D01*
X00361000Y01811777D02*
X00140000Y01811777D01*
X00140000Y01823776D02*
X00361000Y01823776D01*
X00361000Y01835774D02*
X00140000Y01835774D01*
X00140000Y01847773D02*
X00361000Y01847773D01*
X00361000Y01859771D02*
X00140000Y01859771D01*
X00140000Y01871770D02*
X00361000Y01871770D01*
X00361000Y01883768D02*
X00140000Y01883768D01*
X00140000Y01895767D02*
X00361000Y01895767D01*
X00361000Y01907765D02*
X00140000Y01907765D01*
X00140000Y01919764D02*
X00361000Y01919764D01*
X00361000Y01931762D02*
X00140000Y01931762D01*
X00140000Y01943761D02*
X00361000Y01943761D01*
X00361000Y01955759D02*
X00140000Y01955759D01*
X00140000Y01967758D02*
X00361000Y01967758D01*
X00361000Y01979756D02*
X00140000Y01979756D01*
X00140000Y01991755D02*
X00361000Y01991755D01*
X00361000Y02003753D02*
X00140000Y02003753D01*
X00140000Y02015752D02*
X00361000Y02015752D01*
X00361000Y02027750D02*
X00140000Y02027750D01*
X00140000Y02039749D02*
X00361000Y02039749D01*
X00361000Y02051748D02*
X00140000Y02051748D01*
X00140000Y02063746D02*
X00361000Y02063746D01*
X00361000Y02075745D02*
X00140000Y02075745D01*
X00140000Y02087743D02*
X00361000Y02087743D01*
X00361000Y02099742D02*
X00140000Y02099742D01*
X00140000Y02111740D02*
X00361000Y02111740D01*
X00361000Y02123739D02*
X00140000Y02123739D01*
X00140000Y02135737D02*
X00361000Y02135737D01*
X00361000Y02147736D02*
X00140000Y02147736D01*
X00140000Y02159734D02*
X00361000Y02159734D01*
X00361000Y02171733D02*
X00140000Y02171733D01*
X00140000Y02183731D02*
X00361000Y02183731D01*
X00361000Y02195730D02*
X00140000Y02195730D01*
X00140000Y02207728D02*
X00361000Y02207728D01*
X00361000Y02219727D02*
X00140000Y02219727D01*
X00140000Y02231725D02*
X00361000Y02231725D01*
X00361000Y02243724D02*
X00140000Y02243724D01*
X00140000Y02255722D02*
X00361000Y02255722D01*
X00361000Y02267721D02*
X00140000Y02267721D01*
X00140000Y02279719D02*
X00361000Y02279719D01*
X00361000Y02291718D02*
X00140000Y02291718D01*
X00140000Y02303717D02*
X00361000Y02303717D01*
X00361000Y02315715D02*
X00140000Y02315715D01*
X00140000Y02327714D02*
X00361000Y02327714D01*
X00361000Y02339712D02*
X00140000Y02339712D01*
X00140000Y02351711D02*
X00361000Y02351711D01*
X00361000Y02363709D02*
X00140000Y02363709D01*
X00140000Y02375708D02*
X00361000Y02375708D01*
X00361000Y02387706D02*
X00140000Y02387706D01*
X00140000Y02399705D02*
X00361000Y02399705D01*
X00361000Y02411703D02*
X00140000Y02411703D01*
X00140000Y02423702D02*
X00361000Y02423702D01*
X00361000Y02435700D02*
X00140000Y02435700D01*
X00140000Y02447699D02*
X00361000Y02447699D01*
X00361000Y02459697D02*
X00140000Y02459697D01*
X00140000Y02471696D02*
X00361000Y02471696D01*
X00361000Y02483694D02*
X00140000Y02483694D01*
X00757751Y02699668D02*
X01071000Y02699668D01*
X01071000Y02711666D02*
X00769750Y02711666D01*
X00781748Y02723665D02*
X01068872Y02723665D01*
X01057473Y02735663D02*
X00793747Y02735663D01*
X00805745Y02747662D02*
X01046074Y02747662D01*
X01034676Y02759660D02*
X00817744Y02759660D01*
X00829742Y02771659D02*
X01023277Y02771659D01*
X01011879Y02783657D02*
X00841741Y02783657D01*
X00853739Y02795656D02*
X01000480Y02795656D01*
X00954262Y02807655D02*
X00865738Y02807655D01*
X00875444Y02819653D02*
X00942264Y02819653D01*
X00930265Y02831652D02*
X00879000Y02831652D01*
X00879000Y02843650D02*
X00922900Y02843650D01*
X02005000Y01795000D02*
X02015000Y01795000D01*
X02050000Y01760000D01*
X01880000Y01260000D02*
X01735000Y01115000D01*
X01735000Y01090000D01*
X01870000Y00660000D02*
X01905000Y00625000D01*
X01541000Y00359956D02*
X00046000Y00359956D01*
X00046000Y00371954D02*
X00436933Y00371954D01*
X00433000Y00383953D02*
X00046000Y00383953D01*
X00046000Y00395951D02*
X00433000Y00395951D01*
X00433000Y00407950D02*
X00046000Y00407950D01*
X00046000Y00419948D02*
X00433000Y00419948D01*
X00433000Y00431947D02*
X00046000Y00431947D01*
X00046000Y00443945D02*
X00433000Y00443945D01*
X00433000Y00455944D02*
X00046000Y00455944D01*
X00046000Y00467942D02*
X00433000Y00467942D01*
X00433000Y00479941D02*
X00046000Y00479941D01*
X00046000Y00491939D02*
X00433000Y00491939D01*
X00433000Y00503938D02*
X00046000Y00503938D01*
X00046000Y00515937D02*
X00433000Y00515937D01*
X00433000Y00527935D02*
X00046000Y00527935D01*
X00046000Y00539934D02*
X00433000Y00539934D01*
X00433000Y00551932D02*
X00046000Y00551932D01*
X00046000Y00563931D02*
X00433000Y00563931D01*
X00433000Y00575929D02*
X00046000Y00575929D01*
X00046000Y00587928D02*
X00433000Y00587928D01*
X00433000Y00599926D02*
X00046000Y00599926D01*
X00046000Y00611925D02*
X00433000Y00611925D01*
X00433000Y00623923D02*
X00046000Y00623923D01*
X00046000Y00635922D02*
X00433000Y00635922D01*
X00433000Y00647920D02*
X00046000Y00647920D01*
X00046000Y00659919D02*
X00433000Y00659919D01*
X00433000Y00671917D02*
X00046000Y00671917D01*
X00046000Y00683916D02*
X00433000Y00683916D01*
X00433000Y00695914D02*
X00046000Y00695914D01*
X00140000Y00935885D02*
X00165841Y00935885D01*
X00154240Y00947883D02*
X00140000Y00947883D01*
X00140000Y00959882D02*
X00149270Y00959882D01*
X00147252Y00971880D02*
X00140000Y00971880D01*
X00140000Y00983879D02*
X00147252Y00983879D01*
X00147252Y00995877D02*
X00140000Y00995877D01*
X00140000Y01007876D02*
X00147252Y01007876D01*
X00147252Y01019875D02*
X00140000Y01019875D01*
X00140000Y01031873D02*
X00147252Y01031873D01*
X00150825Y01043872D02*
X00140000Y01043872D01*
X00140000Y01055870D02*
X00157596Y01055870D01*
X00171917Y01067869D02*
X00140000Y01067869D01*
X00195000Y01010000D02*
X00320000Y01135000D01*
X00295000Y01035000D02*
X00295000Y01000000D01*
X00247252Y00995877D02*
X00242748Y00995877D01*
X00242748Y00983879D02*
X00247252Y00983879D01*
X00247252Y00971880D02*
X00242748Y00971880D01*
X00240730Y00959882D02*
X00249270Y00959882D01*
X00254240Y00947883D02*
X00235760Y00947883D01*
X00224159Y00935885D02*
X00265841Y00935885D01*
X00247252Y01007876D02*
X00242748Y01007876D01*
X00244472Y01019875D02*
X00247252Y01019875D01*
X00195000Y01010000D02*
X00195000Y01000000D01*
X00518083Y01067869D02*
X00571917Y01067869D01*
X00567953Y01066227D02*
X00554521Y01052795D01*
X00547252Y01035246D01*
X00547252Y00964754D01*
X00554521Y00947205D01*
X00567953Y00933773D01*
X00585502Y00926504D01*
X00604498Y00926504D01*
X00622047Y00933773D01*
X00635479Y00947205D01*
X00642748Y00964754D01*
X00642748Y01035246D01*
X00635479Y01052795D01*
X00622047Y01066227D01*
X00604498Y01073496D01*
X00585502Y01073496D01*
X00567953Y01066227D01*
X00557596Y01055870D02*
X00532404Y01055870D01*
X00539175Y01043872D02*
X00550825Y01043872D01*
X00547252Y01031873D02*
X00542748Y01031873D01*
X00542748Y01019875D02*
X00547252Y01019875D01*
X00547252Y01007876D02*
X00542748Y01007876D01*
X00542748Y00995877D02*
X00547252Y00995877D01*
X00547252Y00983879D02*
X00542748Y00983879D01*
X00542748Y00971880D02*
X00547252Y00971880D01*
X00549270Y00959882D02*
X00540730Y00959882D01*
X00535760Y00947883D02*
X00554240Y00947883D01*
X00565841Y00935885D02*
X00524159Y00935885D01*
X00624159Y00935885D02*
X00665841Y00935885D01*
X00667953Y00933773D02*
X00685502Y00926504D01*
X00704498Y00926504D01*
X00722047Y00933773D01*
X00735479Y00947205D01*
X00742748Y00964754D01*
X00742748Y01035246D01*
X00735479Y01052795D01*
X00722047Y01066227D01*
X00704498Y01073496D01*
X00685502Y01073496D01*
X00667953Y01066227D01*
X00654521Y01052795D01*
X00647252Y01035246D01*
X00647252Y00964754D01*
X00654521Y00947205D01*
X00667953Y00933773D01*
X00654240Y00947883D02*
X00635760Y00947883D01*
X00640730Y00959882D02*
X00649270Y00959882D01*
X00647252Y00971880D02*
X00642748Y00971880D01*
X00642748Y00983879D02*
X00647252Y00983879D01*
X00647252Y00995877D02*
X00642748Y00995877D01*
X00642748Y01007876D02*
X00647252Y01007876D01*
X00647252Y01019875D02*
X00642748Y01019875D01*
X00642748Y01031873D02*
X00647252Y01031873D01*
X00650825Y01043872D02*
X00639175Y01043872D01*
X00632404Y01055870D02*
X00657596Y01055870D01*
X00671917Y01067869D02*
X00618083Y01067869D01*
X00718083Y01067869D02*
X00771917Y01067869D01*
X00767953Y01066227D02*
X00754521Y01052795D01*
X00747252Y01035246D01*
X00747252Y00964754D01*
X00754521Y00947205D01*
X00767953Y00933773D01*
X00785502Y00926504D01*
X00804498Y00926504D01*
X00822047Y00933773D01*
X00835479Y00947205D01*
X00842748Y00964754D01*
X00842748Y01035246D01*
X00835479Y01052795D01*
X00822047Y01066227D01*
X00804498Y01073496D01*
X00785502Y01073496D01*
X00767953Y01066227D01*
X00757596Y01055870D02*
X00732404Y01055870D01*
X00739175Y01043872D02*
X00750825Y01043872D01*
X00747252Y01031873D02*
X00742748Y01031873D01*
X00742748Y01019875D02*
X00747252Y01019875D01*
X00747252Y01007876D02*
X00742748Y01007876D01*
X00742748Y00995877D02*
X00747252Y00995877D01*
X00747252Y00983879D02*
X00742748Y00983879D01*
X00742748Y00971880D02*
X00747252Y00971880D01*
X00749270Y00959882D02*
X00740730Y00959882D01*
X00735760Y00947883D02*
X00754240Y00947883D01*
X00765841Y00935885D02*
X00724159Y00935885D01*
X00824159Y00935885D02*
X00865841Y00935885D01*
X00854240Y00947883D02*
X00835760Y00947883D01*
X00840730Y00959882D02*
X00849270Y00959882D01*
X00847252Y00971880D02*
X00842748Y00971880D01*
X00842748Y00983879D02*
X00847252Y00983879D01*
X00847252Y00995877D02*
X00842748Y00995877D01*
X00842748Y01007876D02*
X00847252Y01007876D01*
X00847252Y01019875D02*
X00842748Y01019875D01*
X00842748Y01031873D02*
X00847252Y01031873D01*
X00850825Y01043872D02*
X00839175Y01043872D01*
X00832404Y01055870D02*
X00857596Y01055870D01*
X00871917Y01067869D02*
X00818083Y01067869D01*
X00890213Y00815900D02*
X01033663Y00815900D01*
X01165259Y00983879D02*
X01174695Y00983879D01*
X01184532Y00995877D02*
X01153260Y00995877D01*
X01137118Y01007876D02*
X01197526Y01007876D01*
X01250000Y00995000D02*
X01170000Y01075000D01*
X01145000Y01075000D01*
X01170000Y01075000D02*
X01175000Y01075000D01*
X00582314Y01427824D02*
X00507685Y01427824D01*
X00046000Y00347957D02*
X01541000Y00347957D01*
X01541000Y00335959D02*
X00046000Y00335959D01*
X00046000Y00323960D02*
X01541000Y00323960D01*
X01541000Y00311962D02*
X00046000Y00311962D01*
X00046000Y00299963D02*
X01541000Y00299963D01*
X01541000Y00287965D02*
X00046000Y00287965D01*
X00046000Y00275966D02*
X01541000Y00275966D01*
X01541000Y00263968D02*
X00046000Y00263968D01*
X00046000Y00251969D02*
X01541000Y00251969D01*
X01541000Y00239970D02*
X00046000Y00239970D01*
X00046000Y00227972D02*
X01541000Y00227972D01*
X01618098Y00119985D02*
X02155157Y00119985D01*
X02155157Y00107987D02*
X01630096Y00107987D01*
X01593923Y00047994D02*
X00046000Y00047994D01*
X00046000Y00107987D02*
X00517415Y00107987D01*
X00505417Y00119985D02*
X00046000Y00119985D01*
X00046000Y00131984D02*
X00493418Y00131984D01*
X00481420Y00143982D02*
X00046000Y00143982D01*
D17*
X02150000Y00985000D02*
X02805000Y00985000D01*
X02845000Y00950000D01*
X02995000Y00950000D01*
X03085000Y00950000D01*
X03110000Y00975000D01*
X03150000Y01015000D01*
X03150000Y01205000D01*
X03070000Y01285000D01*
X03015000Y01285000D01*
X02990000Y00945000D02*
X02990000Y00670000D01*
X03630000Y02125000D02*
X03680000Y02125000D01*
X03630000Y02125000D02*
X03560000Y02195000D01*
X03560000Y02345000D01*
X03595000Y02380000D01*
X03595000Y02505000D01*
X03425000Y02675000D01*
X02070000Y02675000D01*
X01945000Y02800000D01*
X01945000Y03000000D01*
X02545000Y02210000D02*
X03055000Y02210000D01*
X03175000Y02330000D01*
X03175000Y02450000D01*
X03285000Y02560000D01*
X03360000Y02560000D01*
X02545000Y02210000D02*
X02530000Y02195000D01*
X02360000Y02195000D01*
D18*
X01780000Y01615000D02*
X01325000Y01615000D01*
X01250000Y01690000D01*
X01250000Y01955000D01*
X01255000Y01955000D01*
X01260000Y01960000D01*
X01215000Y01670000D02*
X01215000Y02805000D01*
X01175000Y02845000D01*
X01175000Y03000000D01*
X01065000Y03000000D02*
X01065000Y02840000D01*
X01145000Y02760000D01*
X01145000Y01530000D01*
X01230000Y01445000D01*
X01450000Y01445000D01*
X01525000Y01370000D01*
X01520000Y01365000D01*
X01550000Y01330000D02*
X01610000Y01390000D01*
X01610000Y01440000D01*
X01675000Y01505000D01*
X01810000Y01505000D01*
X01850000Y01545000D01*
X01780000Y01615000D01*
X01755000Y01575000D02*
X01745000Y01575000D01*
X01740000Y01580000D01*
X01305000Y01580000D01*
X01215000Y01670000D01*
X01105000Y01605000D02*
X01105000Y02735000D01*
X01010000Y02835000D01*
X00975000Y02835000D01*
X00955000Y02855000D01*
X00955000Y03000000D01*
X00845000Y03000000D02*
X00845000Y02835000D01*
X00720000Y02710000D01*
X00605000Y02710000D01*
X00515000Y02620000D01*
X00515000Y01685000D01*
X00695000Y01505000D01*
X00695000Y01500000D01*
X00595000Y01500000D02*
X00595000Y01520000D01*
X00475000Y01640000D01*
X00475000Y02630000D01*
X00590000Y02745000D01*
X00695000Y02745000D01*
X00735000Y02785000D01*
X00735000Y03000000D01*
X00680000Y02900000D02*
X00680000Y02825000D01*
X00645000Y02790000D01*
X00580000Y02790000D01*
X00435000Y02645000D01*
X00435000Y01620000D01*
X00495000Y01560000D01*
X00495000Y01500000D01*
X00395000Y01500000D02*
X00395000Y02660000D01*
X00565000Y02830000D01*
X00590000Y02830000D01*
X00625000Y02865000D01*
X00625000Y03000000D01*
X01120000Y02900000D02*
X01120000Y02845000D01*
X01180000Y02785000D01*
X01180000Y01550000D01*
X01250000Y01480000D01*
X01555000Y01480000D01*
X01585000Y01510000D01*
X01610000Y01510000D01*
X01550000Y01330000D02*
X01410000Y01330000D01*
X01390000Y01350000D01*
X01660000Y01035000D02*
X01590000Y00965000D01*
X01210000Y00965000D01*
X01575000Y00790000D02*
X01575000Y00115000D01*
X01625000Y00065000D01*
X02740000Y00065000D01*
X02920000Y00065000D01*
X02955000Y00100000D01*
X03250000Y00100000D01*
X03250000Y00300000D02*
X03090000Y00300000D01*
X02995000Y00205000D01*
X02940000Y00260000D01*
X02860000Y00260000D01*
X02995000Y00205000D02*
X02900000Y00110000D01*
X02200000Y00110000D01*
X02195000Y00115000D01*
X02195000Y00315000D01*
X01935000Y00575000D01*
X02070000Y00790000D02*
X01575000Y00790000D01*
X01995000Y01365000D02*
X02000000Y01370000D01*
X02000000Y01395000D01*
X01850000Y01545000D01*
X03250000Y00300000D02*
X03255000Y00305000D01*
X03395000Y00305000D01*
X03625000Y00535000D01*
X03625000Y00625000D01*
X03625000Y00785000D01*
X03765000Y00925000D01*
X03765000Y01015000D01*
X03685000Y01095000D01*
X03685000Y01135000D01*
D19*
X02625000Y00165000D03*
D20*
X00160000Y00780000D02*
X00075000Y00865000D01*
X00075000Y02520000D01*
X00455000Y02900000D01*
X00460000Y02900000D01*
D21*
X00160000Y00780000D03*
D22*
X00460000Y02900000D02*
X00460000Y02945000D01*
X00515000Y03000000D01*
M02*
